%TF.GenerationSoftware,KiCad,Pcbnew,8.0.4+dfsg-1*%
%TF.CreationDate,2024-08-03T22:50:01-04:00*%
%TF.ProjectId,Mixed-Signal_Demo_PCB,4d697865-642d-4536-9967-6e616c5f4465,rev?*%
%TF.SameCoordinates,Original*%
%TF.FileFunction,Copper,L3,Inr*%
%TF.FilePolarity,Positive*%
%FSLAX46Y46*%
G04 Gerber Fmt 4.6, Leading zero omitted, Abs format (unit mm)*
G04 Created by KiCad (PCBNEW 8.0.4+dfsg-1) date 2024-08-03 22:50:01*
%MOMM*%
%LPD*%
G01*
G04 APERTURE LIST*
%TA.AperFunction,ComponentPad*%
%ADD10O,2.100000X1.000000*%
%TD*%
%TA.AperFunction,ComponentPad*%
%ADD11O,1.600000X1.000000*%
%TD*%
%TA.AperFunction,ComponentPad*%
%ADD12O,1.600000X2.500000*%
%TD*%
%TA.AperFunction,ComponentPad*%
%ADD13O,3.500000X7.000000*%
%TD*%
%TA.AperFunction,ViaPad*%
%ADD14C,0.700000*%
%TD*%
%TA.AperFunction,ViaPad*%
%ADD15C,0.800000*%
%TD*%
G04 APERTURE END LIST*
D10*
%TO.N,unconnected-(J301-SHIELD-PadS1)*%
%TO.C,J301*%
X140369466Y-84874466D03*
D11*
%TO.N,unconnected-(J301-SHIELD-PadS1)_1*%
X144549466Y-84874466D03*
D10*
%TO.N,unconnected-(J301-SHIELD-PadS1)_3*%
X140369466Y-76234466D03*
D11*
%TO.N,unconnected-(J301-SHIELD-PadS1)_2*%
X144549466Y-76234466D03*
%TD*%
D12*
%TO.N,/ADC/IN*%
%TO.C,J401*%
X103639466Y-121384466D03*
D13*
%TO.N,GND*%
X108719466Y-126464466D03*
D12*
X106179466Y-121384466D03*
D13*
X98559466Y-126464466D03*
%TD*%
D12*
%TO.N,/DAC/IN*%
%TO.C,J501*%
X128639466Y-121384466D03*
D13*
%TO.N,GND*%
X133719466Y-126464466D03*
D12*
X131179466Y-121384466D03*
D13*
X123559466Y-126464466D03*
%TD*%
D14*
%TO.N,+3.3VA*%
X105200000Y-103950000D03*
X105200000Y-105550000D03*
X108850000Y-87403315D03*
X96350000Y-96250000D03*
X109000000Y-91950000D03*
D15*
%TO.N,GND*%
X98500000Y-117000000D03*
D14*
X113500000Y-102200000D03*
D15*
X138500000Y-104500000D03*
X143500000Y-94500000D03*
D14*
X113700000Y-110000000D03*
X106150000Y-87850000D03*
X128350000Y-70000000D03*
D15*
X141000000Y-92000000D03*
D14*
X140725000Y-74450000D03*
D15*
X136000000Y-97000000D03*
X143500000Y-102000000D03*
X91000000Y-84500000D03*
X101000000Y-117000000D03*
X136000000Y-114500000D03*
X141000000Y-99500000D03*
D14*
X107950000Y-81160000D03*
D15*
X136000000Y-109500000D03*
D14*
X103160000Y-76050000D03*
D15*
X138500000Y-122000000D03*
X88500000Y-107000000D03*
X116000000Y-69500000D03*
X136000000Y-67000000D03*
X131000000Y-112000000D03*
X113500000Y-117000000D03*
X136000000Y-64500000D03*
D14*
X99470000Y-94090000D03*
D15*
X123500000Y-99500000D03*
X118500000Y-129500000D03*
X88500000Y-99500000D03*
D14*
X128100000Y-110520000D03*
D15*
X123500000Y-104500000D03*
D14*
X111200000Y-63680000D03*
D15*
X133500000Y-104500000D03*
X141000000Y-94500000D03*
D14*
X105750000Y-91400000D03*
D15*
X116000000Y-92000000D03*
X91000000Y-87000000D03*
X101000000Y-64500000D03*
X88500000Y-82000000D03*
X96000000Y-114500000D03*
X121000000Y-117000000D03*
D14*
X106394466Y-69895533D03*
D15*
X133500000Y-89500000D03*
D14*
X104400000Y-103150000D03*
D15*
X141000000Y-107000000D03*
X141000000Y-112000000D03*
X121000000Y-102000000D03*
X91000000Y-69500000D03*
X118500000Y-117000000D03*
D14*
X105420000Y-112020000D03*
D15*
X133500000Y-92000000D03*
X88500000Y-114500000D03*
X143500000Y-122000000D03*
X91000000Y-97000000D03*
X136000000Y-94500000D03*
D14*
X118525000Y-83950000D03*
X94225000Y-102575000D03*
D15*
X141000000Y-117000000D03*
X88500000Y-77000000D03*
X113500000Y-97000000D03*
X121000000Y-62000000D03*
D14*
X95700000Y-90900000D03*
D15*
X113500000Y-64500000D03*
X93500000Y-124500000D03*
D14*
X136125000Y-77525000D03*
D15*
X91000000Y-119500000D03*
X113500000Y-127000000D03*
D14*
X126150000Y-84800000D03*
D15*
X123500000Y-64500000D03*
X138500000Y-112000000D03*
D14*
X137975000Y-77125000D03*
D15*
X96000000Y-67000000D03*
X88500000Y-87000000D03*
X143500000Y-109500000D03*
X138500000Y-117000000D03*
X118500000Y-127000000D03*
D14*
X117329999Y-75200000D03*
X103850000Y-60750000D03*
D15*
X98500000Y-77000000D03*
D14*
X128900000Y-85500000D03*
D15*
X141000000Y-124500000D03*
X96000000Y-89500000D03*
X88500000Y-74500000D03*
D14*
X132550000Y-71750000D03*
D15*
X133500000Y-107000000D03*
X93500000Y-69500000D03*
X116000000Y-64500000D03*
X118500000Y-124500000D03*
X88500000Y-92000000D03*
X143500000Y-104500000D03*
X138500000Y-97000000D03*
X88500000Y-124500000D03*
D14*
X130350000Y-81750000D03*
D15*
X126000000Y-64500000D03*
X123500000Y-102000000D03*
X143500000Y-117000000D03*
D14*
X91550000Y-91850000D03*
X129870000Y-116100000D03*
D15*
X133500000Y-117000000D03*
X88500000Y-109500000D03*
X96000000Y-64500000D03*
D14*
X130150000Y-75000000D03*
D15*
X111000000Y-97000000D03*
D14*
X128180000Y-106050000D03*
X117200000Y-80550000D03*
D15*
X98500000Y-87000000D03*
X118500000Y-62000000D03*
X88500000Y-72000000D03*
D14*
X138000000Y-84000000D03*
D15*
X98500000Y-112000000D03*
X118500000Y-114500000D03*
X116000000Y-122000000D03*
X91000000Y-107000000D03*
X113500000Y-119500000D03*
X141000000Y-122000000D03*
X123500000Y-62000000D03*
X88500000Y-112000000D03*
X93500000Y-87000000D03*
D14*
X110204465Y-69924466D03*
X124930000Y-94020000D03*
D15*
X91000000Y-109500000D03*
X126000000Y-117000000D03*
D14*
X103630000Y-100410000D03*
X133700000Y-70850000D03*
D15*
X91000000Y-112000000D03*
X138500000Y-89500000D03*
X116000000Y-124500000D03*
D14*
X98950000Y-107280000D03*
D15*
X118500000Y-119500000D03*
X136000000Y-99500000D03*
X141000000Y-119500000D03*
X133500000Y-97000000D03*
X133500000Y-114500000D03*
X141000000Y-97000000D03*
X91000000Y-117000000D03*
X93500000Y-74500000D03*
X138500000Y-107000000D03*
D14*
X102850000Y-101750000D03*
D15*
X116000000Y-129500000D03*
X143500000Y-124500000D03*
D14*
X106200000Y-105500000D03*
D15*
X123500000Y-117000000D03*
D14*
X95850000Y-95450000D03*
X124710000Y-98640000D03*
X114025000Y-78175000D03*
D15*
X88500000Y-122000000D03*
D14*
X124500000Y-72950000D03*
X123960000Y-110500000D03*
D15*
X143500000Y-99500000D03*
D14*
X134950000Y-67950000D03*
D15*
X101000000Y-62000000D03*
D14*
X100760534Y-111755534D03*
X138475000Y-76450000D03*
X129150000Y-77650000D03*
D15*
X101000000Y-114500000D03*
X138500000Y-119500000D03*
X88500000Y-84500000D03*
X136000000Y-92000000D03*
X133500000Y-112000000D03*
X136000000Y-117000000D03*
D14*
X136725000Y-80057500D03*
D15*
X123500000Y-114500000D03*
X88500000Y-117000000D03*
X118500000Y-69500000D03*
X88500000Y-104500000D03*
X93500000Y-114500000D03*
D14*
X110000000Y-76600000D03*
D15*
X98500000Y-69500000D03*
X96000000Y-69500000D03*
X96000000Y-62000000D03*
X113500000Y-67000000D03*
X111000000Y-67000000D03*
X88500000Y-102000000D03*
D14*
X117870000Y-109980000D03*
D15*
X88500000Y-94500000D03*
D14*
X113400000Y-112600000D03*
X111100000Y-75700000D03*
X98915534Y-65364465D03*
X140725000Y-86775000D03*
X130250000Y-109550000D03*
X105630000Y-78780000D03*
D15*
X136000000Y-62000000D03*
X143500000Y-114500000D03*
X136000000Y-72000000D03*
D14*
X103200000Y-81900000D03*
D15*
X113500000Y-124500000D03*
D14*
X119150000Y-78800000D03*
X127610000Y-101840000D03*
D15*
X111000000Y-117000000D03*
X88500000Y-97000000D03*
X93500000Y-109500000D03*
D14*
X124100000Y-72200000D03*
D15*
X111000000Y-114500000D03*
X118500000Y-132000000D03*
X96000000Y-109500000D03*
X93500000Y-119500000D03*
X121000000Y-97000000D03*
D14*
X109630000Y-81130000D03*
D15*
X133500000Y-102000000D03*
X133500000Y-62000000D03*
X136000000Y-112000000D03*
D14*
X111950000Y-100300000D03*
X102950000Y-84600000D03*
D15*
X141000000Y-114500000D03*
D14*
X101564466Y-67365535D03*
X107175000Y-106200000D03*
X99500000Y-98610000D03*
D15*
X88500000Y-119500000D03*
D14*
X107685000Y-60745000D03*
D15*
X93500000Y-89500000D03*
X138500000Y-92000000D03*
X113500000Y-132000000D03*
D14*
X111950000Y-102200000D03*
D15*
X116000000Y-117000000D03*
X141000000Y-104500000D03*
X138500000Y-99500000D03*
X96000000Y-112000000D03*
X93500000Y-122000000D03*
X133500000Y-99500000D03*
D14*
X104800000Y-107300000D03*
X106385000Y-60745000D03*
D15*
X121000000Y-104500000D03*
X91000000Y-94500000D03*
X121000000Y-99500000D03*
D14*
X111950000Y-101250000D03*
X104820000Y-116290000D03*
X93700000Y-103250000D03*
D15*
X121000000Y-64500000D03*
X143500000Y-112000000D03*
X131000000Y-104500000D03*
X138500000Y-109500000D03*
D14*
X102974466Y-69894465D03*
D15*
X108500000Y-117000000D03*
X91000000Y-124500000D03*
D14*
X98630000Y-98210000D03*
D15*
X143500000Y-107000000D03*
X133500000Y-64500000D03*
D14*
X127350000Y-69950000D03*
X138475000Y-84650000D03*
D15*
X93500000Y-112000000D03*
X136000000Y-89500000D03*
D14*
X99500000Y-97780000D03*
D15*
X93500000Y-117000000D03*
X98500000Y-89500000D03*
X91000000Y-122000000D03*
X113500000Y-129500000D03*
X96000000Y-77000000D03*
X141000000Y-109500000D03*
X138500000Y-74500000D03*
D14*
X97390534Y-108000534D03*
D15*
X116000000Y-132000000D03*
X133500000Y-94500000D03*
X88500000Y-79500000D03*
X126000000Y-114500000D03*
X126000000Y-62000000D03*
X91000000Y-89500000D03*
D14*
X113500000Y-101250000D03*
D15*
X131000000Y-102000000D03*
X138500000Y-124500000D03*
D14*
X132300000Y-86725000D03*
D15*
X138500000Y-94500000D03*
X113500000Y-92000000D03*
X98500000Y-74500000D03*
X88500000Y-89500000D03*
X91000000Y-114500000D03*
D14*
X131650000Y-71750000D03*
X133950000Y-86725000D03*
D15*
X133500000Y-109500000D03*
X143500000Y-92000000D03*
X143500000Y-119500000D03*
D14*
X140850000Y-70950000D03*
X116850000Y-94250000D03*
D15*
X111000000Y-92000000D03*
X96000000Y-74500000D03*
X118500000Y-122000000D03*
X118500000Y-92000000D03*
X136000000Y-107000000D03*
D14*
X130500000Y-98600000D03*
D15*
X116000000Y-119500000D03*
X98500000Y-114500000D03*
X88500000Y-69500000D03*
D14*
X118600000Y-79550000D03*
X92445534Y-77474466D03*
D15*
X136000000Y-74500000D03*
D14*
X130030000Y-103000000D03*
D15*
X98500000Y-62000000D03*
X121000000Y-114500000D03*
X118500000Y-64500000D03*
X116000000Y-127000000D03*
X143500000Y-97000000D03*
D14*
X113500000Y-100300000D03*
D15*
X138500000Y-72000000D03*
X96000000Y-117000000D03*
D14*
X107150000Y-112150000D03*
D15*
X131000000Y-107000000D03*
X138500000Y-114500000D03*
X96000000Y-87000000D03*
X136000000Y-104500000D03*
D14*
%TO.N,+5V*%
X128150000Y-78100000D03*
X116700000Y-95300000D03*
X129450000Y-82150000D03*
X95650000Y-91850000D03*
%TO.N,+3.3V*%
X112700000Y-62400000D03*
X130150000Y-73950000D03*
X124350000Y-77850000D03*
X111700000Y-86903315D03*
X121250000Y-76700000D03*
X125700000Y-91600000D03*
X124550000Y-88900000D03*
X90650000Y-76500000D03*
X101050000Y-91650000D03*
X135550000Y-68800000D03*
X113250000Y-74250000D03*
X134350000Y-68800000D03*
X106850000Y-86350000D03*
X120450000Y-86900000D03*
X134050000Y-69800000D03*
%TO.N,/MCU/NRST*%
X111950000Y-76600000D03*
X113950000Y-79400000D03*
%TO.N,SPI1_NSS*%
X106000000Y-90500000D03*
X107100000Y-88100000D03*
%TO.N,SPI2_NSS*%
X126250000Y-85750000D03*
X128850000Y-86500000D03*
%TO.N,/MCU/TIM4_CH1*%
X104000000Y-85450000D03*
X117850000Y-78750000D03*
%TO.N,/MCU/TIM4_CH2*%
X116500000Y-79600000D03*
X104000000Y-83800000D03*
%TO.N,/MCU/TIM4_CH3*%
X104000000Y-82750000D03*
X115400000Y-79100000D03*
%TO.N,DAC_NCLR*%
X129550000Y-99050000D03*
X126750000Y-90750000D03*
%TO.N,DAC_NLDAC*%
X129600000Y-98050000D03*
X126750000Y-89700000D03*
%TD*%
%TA.AperFunction,Conductor*%
%TO.N,GND*%
G36*
X140916873Y-59764967D02*
G01*
X140961224Y-59764966D01*
X140967719Y-59765107D01*
X141367567Y-59782562D01*
X141380505Y-59783694D01*
X141774085Y-59835508D01*
X141786886Y-59837765D01*
X142174446Y-59923682D01*
X142186990Y-59927042D01*
X142565601Y-60046415D01*
X142577805Y-60050857D01*
X142944579Y-60202776D01*
X142956350Y-60208266D01*
X143308472Y-60391566D01*
X143319724Y-60398062D01*
X143654531Y-60611355D01*
X143665179Y-60618811D01*
X143980118Y-60860469D01*
X143990075Y-60868824D01*
X144282748Y-61137005D01*
X144291940Y-61146196D01*
X144426040Y-61292539D01*
X144507852Y-61381820D01*
X144560141Y-61438882D01*
X144568494Y-61448837D01*
X144718826Y-61644751D01*
X144810154Y-61763770D01*
X144817610Y-61774418D01*
X145030906Y-62109221D01*
X145037405Y-62120478D01*
X145220705Y-62472588D01*
X145226197Y-62484364D01*
X145326987Y-62727690D01*
X145378119Y-62851130D01*
X145382557Y-62863325D01*
X145501935Y-63241929D01*
X145505299Y-63254484D01*
X145591224Y-63642053D01*
X145593481Y-63654855D01*
X145645298Y-64048426D01*
X145646431Y-64061374D01*
X145663824Y-64459657D01*
X145663966Y-64466158D01*
X145663966Y-75417312D01*
X145644004Y-75491812D01*
X145589466Y-75546350D01*
X145514966Y-75566312D01*
X145440466Y-75546350D01*
X145429701Y-75538899D01*
X145429588Y-75539069D01*
X145276014Y-75436453D01*
X145276012Y-75436452D01*
X145112133Y-75368572D01*
X145112129Y-75368571D01*
X144938157Y-75333966D01*
X144160775Y-75333966D01*
X143986802Y-75368571D01*
X143986798Y-75368572D01*
X143822919Y-75436452D01*
X143822917Y-75436453D01*
X143675434Y-75534999D01*
X143675429Y-75535003D01*
X143550003Y-75660429D01*
X143549999Y-75660434D01*
X143451453Y-75807917D01*
X143451452Y-75807919D01*
X143383572Y-75971798D01*
X143383571Y-75971802D01*
X143348966Y-76145774D01*
X143348966Y-76323157D01*
X143383571Y-76497129D01*
X143383572Y-76497133D01*
X143451452Y-76661012D01*
X143451453Y-76661014D01*
X143477503Y-76700000D01*
X143550002Y-76808501D01*
X143675431Y-76933930D01*
X143675434Y-76933932D01*
X143822917Y-77032478D01*
X143822919Y-77032479D01*
X143986800Y-77100360D01*
X144160775Y-77134966D01*
X144938157Y-77134966D01*
X145112132Y-77100360D01*
X145276013Y-77032479D01*
X145423501Y-76933930D01*
X145423500Y-76933930D01*
X145429588Y-76929863D01*
X145430838Y-76931734D01*
X145490665Y-76904614D01*
X145567423Y-76912158D01*
X145630126Y-76957071D01*
X145661971Y-77027318D01*
X145663966Y-77051619D01*
X145663966Y-84057312D01*
X145644004Y-84131812D01*
X145589466Y-84186350D01*
X145514966Y-84206312D01*
X145440466Y-84186350D01*
X145429701Y-84178899D01*
X145429588Y-84179069D01*
X145276014Y-84076453D01*
X145276012Y-84076452D01*
X145112133Y-84008572D01*
X145112129Y-84008571D01*
X144938157Y-83973966D01*
X144160775Y-83973966D01*
X143986802Y-84008571D01*
X143986798Y-84008572D01*
X143822919Y-84076452D01*
X143822917Y-84076453D01*
X143675434Y-84174999D01*
X143675429Y-84175003D01*
X143550003Y-84300429D01*
X143549999Y-84300434D01*
X143451453Y-84447917D01*
X143451452Y-84447919D01*
X143383572Y-84611798D01*
X143383571Y-84611802D01*
X143348966Y-84785774D01*
X143348966Y-84963157D01*
X143383571Y-85137129D01*
X143383572Y-85137133D01*
X143451452Y-85301012D01*
X143451453Y-85301014D01*
X143549999Y-85448497D01*
X143550002Y-85448501D01*
X143675431Y-85573930D01*
X143675434Y-85573932D01*
X143822917Y-85672478D01*
X143822919Y-85672479D01*
X143986800Y-85740360D01*
X144160775Y-85774966D01*
X144938157Y-85774966D01*
X145112132Y-85740360D01*
X145276013Y-85672479D01*
X145388868Y-85597071D01*
X145429588Y-85569863D01*
X145430838Y-85571734D01*
X145490665Y-85544614D01*
X145567423Y-85552158D01*
X145630126Y-85597071D01*
X145661971Y-85667318D01*
X145663966Y-85691619D01*
X145663966Y-129407729D01*
X145663965Y-129407747D01*
X145663965Y-129461224D01*
X145663823Y-129467722D01*
X145646369Y-129867558D01*
X145645236Y-129880507D01*
X145593424Y-130274077D01*
X145591167Y-130286879D01*
X145505249Y-130674439D01*
X145501885Y-130686995D01*
X145382515Y-131065593D01*
X145378069Y-131077807D01*
X145226160Y-131444551D01*
X145220667Y-131456332D01*
X145037362Y-131808460D01*
X145030862Y-131819717D01*
X144817580Y-132154504D01*
X144810125Y-132165152D01*
X144568461Y-132480096D01*
X144560105Y-132490054D01*
X144291918Y-132782727D01*
X144282727Y-132791918D01*
X143990054Y-133060105D01*
X143980096Y-133068461D01*
X143665152Y-133310125D01*
X143654504Y-133317580D01*
X143319717Y-133530862D01*
X143308460Y-133537362D01*
X142956332Y-133720667D01*
X142944551Y-133726160D01*
X142577807Y-133878069D01*
X142565593Y-133882515D01*
X142186995Y-134001885D01*
X142174439Y-134005249D01*
X141786879Y-134091167D01*
X141774077Y-134093424D01*
X141380507Y-134145236D01*
X141367558Y-134146369D01*
X140967722Y-134163823D01*
X140961224Y-134163965D01*
X140904870Y-134163965D01*
X140904858Y-134163966D01*
X90967716Y-134163966D01*
X90961217Y-134163824D01*
X90934674Y-134162664D01*
X90561381Y-134146363D01*
X90548433Y-134145230D01*
X90154870Y-134093414D01*
X90142069Y-134091157D01*
X89754511Y-134005235D01*
X89741955Y-134001871D01*
X89363362Y-133882499D01*
X89351147Y-133878053D01*
X88984393Y-133726135D01*
X88972613Y-133720641D01*
X88620517Y-133537349D01*
X88609259Y-133530850D01*
X88580669Y-133512636D01*
X88274451Y-133317550D01*
X88263804Y-133310094D01*
X87948884Y-133068443D01*
X87938927Y-133060088D01*
X87646245Y-132791892D01*
X87637053Y-132782700D01*
X87421152Y-132547082D01*
X87368868Y-132490023D01*
X87360527Y-132480082D01*
X87118866Y-132165140D01*
X87111410Y-132154492D01*
X86898121Y-131819690D01*
X86891622Y-131808433D01*
X86708333Y-131456332D01*
X86708320Y-131456307D01*
X86702844Y-131444565D01*
X86550916Y-131077770D01*
X86546480Y-131065579D01*
X86493140Y-130896404D01*
X86427110Y-130686978D01*
X86423747Y-130674426D01*
X86396858Y-130553132D01*
X86337827Y-130286852D01*
X86335576Y-130274087D01*
X86283762Y-129880499D01*
X86282630Y-129867556D01*
X86281253Y-129836023D01*
X86265107Y-129466162D01*
X86264966Y-129459663D01*
X86264967Y-129416873D01*
X86264966Y-129416869D01*
X86264966Y-129339895D01*
X89063966Y-129339895D01*
X89063966Y-129589036D01*
X89096482Y-129836023D01*
X89160965Y-130076676D01*
X89200455Y-130172014D01*
X89256302Y-130306839D01*
X89380867Y-130522593D01*
X89532528Y-130720242D01*
X89708690Y-130896404D01*
X89906339Y-131048065D01*
X90122093Y-131172630D01*
X90352259Y-131267968D01*
X90592901Y-131332448D01*
X90592907Y-131332448D01*
X90592908Y-131332449D01*
X90660052Y-131341288D01*
X90839901Y-131364966D01*
X91089031Y-131364966D01*
X91336031Y-131332448D01*
X91576673Y-131267968D01*
X91806839Y-131172630D01*
X92022593Y-131048065D01*
X92220242Y-130896404D01*
X92396404Y-130720242D01*
X92548065Y-130522593D01*
X92672630Y-130306839D01*
X92767968Y-130076673D01*
X92832448Y-129836031D01*
X92864966Y-129589031D01*
X92864966Y-129339901D01*
X92832448Y-129092901D01*
X92767968Y-128852259D01*
X92672630Y-128622093D01*
X92548065Y-128406339D01*
X92396404Y-128208690D01*
X92220242Y-128032528D01*
X92022593Y-127880867D01*
X91950675Y-127839345D01*
X91806843Y-127756304D01*
X91806841Y-127756303D01*
X91806839Y-127756302D01*
X91672014Y-127700455D01*
X91576676Y-127660965D01*
X91576674Y-127660964D01*
X91576673Y-127660964D01*
X91336031Y-127596484D01*
X91336029Y-127596483D01*
X91336023Y-127596482D01*
X91089036Y-127563966D01*
X91089031Y-127563966D01*
X90839901Y-127563966D01*
X90839895Y-127563966D01*
X90592908Y-127596482D01*
X90352255Y-127660965D01*
X90122088Y-127756304D01*
X89906340Y-127880866D01*
X89708688Y-128032529D01*
X89532529Y-128208688D01*
X89380866Y-128406340D01*
X89256304Y-128622088D01*
X89160965Y-128852255D01*
X89096482Y-129092908D01*
X89063966Y-129339895D01*
X86264966Y-129339895D01*
X86264966Y-124566987D01*
X96309466Y-124566987D01*
X96309466Y-126214466D01*
X97584504Y-126214466D01*
X97554466Y-126365482D01*
X97554466Y-126563450D01*
X97584504Y-126714466D01*
X96309466Y-126714466D01*
X96309466Y-128361944D01*
X96347961Y-128654345D01*
X96347964Y-128654362D01*
X96424299Y-128939253D01*
X96424299Y-128939254D01*
X96537174Y-129211755D01*
X96684646Y-129467183D01*
X96684647Y-129467185D01*
X96864197Y-129701177D01*
X97072754Y-129909734D01*
X97306746Y-130089284D01*
X97306748Y-130089285D01*
X97562176Y-130236757D01*
X97834677Y-130349632D01*
X98119569Y-130425967D01*
X98119586Y-130425970D01*
X98309466Y-130450968D01*
X98309466Y-127439427D01*
X98460482Y-127469466D01*
X98658450Y-127469466D01*
X98809466Y-127439427D01*
X98809466Y-130450967D01*
X98999345Y-130425970D01*
X98999362Y-130425967D01*
X99284253Y-130349632D01*
X99284254Y-130349632D01*
X99556755Y-130236757D01*
X99812183Y-130089285D01*
X99812185Y-130089284D01*
X100046177Y-129909734D01*
X100254734Y-129701177D01*
X100434284Y-129467185D01*
X100434285Y-129467183D01*
X100581757Y-129211755D01*
X100694632Y-128939254D01*
X100694632Y-128939253D01*
X100770967Y-128654362D01*
X100770970Y-128654345D01*
X100809465Y-128361944D01*
X100809466Y-128361939D01*
X100809466Y-126714466D01*
X99534428Y-126714466D01*
X99564466Y-126563450D01*
X99564466Y-126365482D01*
X99534428Y-126214466D01*
X100809466Y-126214466D01*
X100809466Y-124566993D01*
X100809465Y-124566987D01*
X106469466Y-124566987D01*
X106469466Y-126214466D01*
X107744504Y-126214466D01*
X107714466Y-126365482D01*
X107714466Y-126563450D01*
X107744504Y-126714466D01*
X106469466Y-126714466D01*
X106469466Y-128361944D01*
X106507961Y-128654345D01*
X106507964Y-128654362D01*
X106584299Y-128939253D01*
X106584299Y-128939254D01*
X106697174Y-129211755D01*
X106844646Y-129467183D01*
X106844647Y-129467185D01*
X107024197Y-129701177D01*
X107232754Y-129909734D01*
X107466746Y-130089284D01*
X107466748Y-130089285D01*
X107722176Y-130236757D01*
X107994677Y-130349632D01*
X108279569Y-130425967D01*
X108279586Y-130425970D01*
X108469466Y-130450968D01*
X108469466Y-127439427D01*
X108620482Y-127469466D01*
X108818450Y-127469466D01*
X108969466Y-127439427D01*
X108969466Y-130450967D01*
X109159345Y-130425970D01*
X109159362Y-130425967D01*
X109444253Y-130349632D01*
X109444254Y-130349632D01*
X109716755Y-130236757D01*
X109972183Y-130089285D01*
X109972185Y-130089284D01*
X110206177Y-129909734D01*
X110414734Y-129701177D01*
X110594284Y-129467185D01*
X110594285Y-129467183D01*
X110741757Y-129211755D01*
X110854632Y-128939254D01*
X110854632Y-128939253D01*
X110930967Y-128654362D01*
X110930970Y-128654345D01*
X110969465Y-128361944D01*
X110969466Y-128361939D01*
X110969466Y-126714466D01*
X109694428Y-126714466D01*
X109724466Y-126563450D01*
X109724466Y-126365482D01*
X109694428Y-126214466D01*
X110969466Y-126214466D01*
X110969466Y-124566993D01*
X110969465Y-124566987D01*
X121309466Y-124566987D01*
X121309466Y-126214466D01*
X122584504Y-126214466D01*
X122554466Y-126365482D01*
X122554466Y-126563450D01*
X122584504Y-126714466D01*
X121309466Y-126714466D01*
X121309466Y-128361944D01*
X121347961Y-128654345D01*
X121347964Y-128654362D01*
X121424299Y-128939253D01*
X121424299Y-128939254D01*
X121537174Y-129211755D01*
X121684646Y-129467183D01*
X121684647Y-129467185D01*
X121864197Y-129701177D01*
X122072754Y-129909734D01*
X122306746Y-130089284D01*
X122306748Y-130089285D01*
X122562176Y-130236757D01*
X122834677Y-130349632D01*
X123119569Y-130425967D01*
X123119586Y-130425970D01*
X123309466Y-130450968D01*
X123309466Y-127439427D01*
X123460482Y-127469466D01*
X123658450Y-127469466D01*
X123809466Y-127439427D01*
X123809466Y-130450968D01*
X123999345Y-130425970D01*
X123999362Y-130425967D01*
X124284253Y-130349632D01*
X124284254Y-130349632D01*
X124556755Y-130236757D01*
X124812183Y-130089285D01*
X124812185Y-130089284D01*
X125046177Y-129909734D01*
X125254734Y-129701177D01*
X125434284Y-129467185D01*
X125434285Y-129467183D01*
X125581757Y-129211755D01*
X125694632Y-128939254D01*
X125694632Y-128939253D01*
X125770967Y-128654362D01*
X125770970Y-128654345D01*
X125809465Y-128361944D01*
X125809466Y-128361939D01*
X125809466Y-126714466D01*
X124534428Y-126714466D01*
X124564466Y-126563450D01*
X124564466Y-126365482D01*
X124534428Y-126214466D01*
X125809466Y-126214466D01*
X125809466Y-124566993D01*
X125809465Y-124566987D01*
X131469466Y-124566987D01*
X131469466Y-126214466D01*
X132744504Y-126214466D01*
X132714466Y-126365482D01*
X132714466Y-126563450D01*
X132744504Y-126714466D01*
X131469466Y-126714466D01*
X131469466Y-128361944D01*
X131507961Y-128654345D01*
X131507964Y-128654362D01*
X131584299Y-128939253D01*
X131584299Y-128939254D01*
X131697174Y-129211755D01*
X131844646Y-129467183D01*
X131844647Y-129467185D01*
X132024197Y-129701177D01*
X132232754Y-129909734D01*
X132466746Y-130089284D01*
X132466748Y-130089285D01*
X132722176Y-130236757D01*
X132994677Y-130349632D01*
X133279569Y-130425967D01*
X133279586Y-130425970D01*
X133469466Y-130450968D01*
X133469466Y-127439427D01*
X133620482Y-127469466D01*
X133818450Y-127469466D01*
X133969466Y-127439427D01*
X133969466Y-130450968D01*
X134159345Y-130425970D01*
X134159362Y-130425967D01*
X134444253Y-130349632D01*
X134444254Y-130349632D01*
X134716755Y-130236757D01*
X134972183Y-130089285D01*
X134972185Y-130089284D01*
X135206177Y-129909734D01*
X135414734Y-129701177D01*
X135594284Y-129467185D01*
X135594285Y-129467183D01*
X135667775Y-129339895D01*
X139063966Y-129339895D01*
X139063966Y-129589036D01*
X139096482Y-129836023D01*
X139160965Y-130076676D01*
X139200455Y-130172014D01*
X139256302Y-130306839D01*
X139380867Y-130522593D01*
X139532528Y-130720242D01*
X139708690Y-130896404D01*
X139906339Y-131048065D01*
X140122093Y-131172630D01*
X140352259Y-131267968D01*
X140592901Y-131332448D01*
X140592907Y-131332448D01*
X140592908Y-131332449D01*
X140660052Y-131341288D01*
X140839901Y-131364966D01*
X141089031Y-131364966D01*
X141336031Y-131332448D01*
X141576673Y-131267968D01*
X141806839Y-131172630D01*
X142022593Y-131048065D01*
X142220242Y-130896404D01*
X142396404Y-130720242D01*
X142548065Y-130522593D01*
X142672630Y-130306839D01*
X142767968Y-130076673D01*
X142832448Y-129836031D01*
X142864966Y-129589031D01*
X142864966Y-129339901D01*
X142832448Y-129092901D01*
X142767968Y-128852259D01*
X142672630Y-128622093D01*
X142548065Y-128406339D01*
X142396404Y-128208690D01*
X142220242Y-128032528D01*
X142022593Y-127880867D01*
X141950675Y-127839345D01*
X141806843Y-127756304D01*
X141806841Y-127756303D01*
X141806839Y-127756302D01*
X141672014Y-127700455D01*
X141576676Y-127660965D01*
X141576674Y-127660964D01*
X141576673Y-127660964D01*
X141336031Y-127596484D01*
X141336029Y-127596483D01*
X141336023Y-127596482D01*
X141089036Y-127563966D01*
X141089031Y-127563966D01*
X140839901Y-127563966D01*
X140839895Y-127563966D01*
X140592908Y-127596482D01*
X140352255Y-127660965D01*
X140122088Y-127756304D01*
X139906340Y-127880866D01*
X139708688Y-128032529D01*
X139532529Y-128208688D01*
X139380866Y-128406340D01*
X139256304Y-128622088D01*
X139160965Y-128852255D01*
X139096482Y-129092908D01*
X139063966Y-129339895D01*
X135667775Y-129339895D01*
X135741757Y-129211755D01*
X135854632Y-128939254D01*
X135854632Y-128939253D01*
X135930967Y-128654362D01*
X135930970Y-128654345D01*
X135969465Y-128361944D01*
X135969466Y-128361939D01*
X135969466Y-126714466D01*
X134694428Y-126714466D01*
X134724466Y-126563450D01*
X134724466Y-126365482D01*
X134694428Y-126214466D01*
X135969466Y-126214466D01*
X135969466Y-124566993D01*
X135969465Y-124566987D01*
X135930970Y-124274586D01*
X135930967Y-124274569D01*
X135854632Y-123989678D01*
X135854632Y-123989677D01*
X135741757Y-123717176D01*
X135594285Y-123461748D01*
X135594284Y-123461746D01*
X135414734Y-123227754D01*
X135206177Y-123019197D01*
X134972185Y-122839647D01*
X134972183Y-122839646D01*
X134716755Y-122692174D01*
X134444254Y-122579299D01*
X134159355Y-122502962D01*
X134159350Y-122502961D01*
X133969466Y-122477962D01*
X133969466Y-125489504D01*
X133818450Y-125459466D01*
X133620482Y-125459466D01*
X133469466Y-125489504D01*
X133469466Y-122477962D01*
X133279581Y-122502961D01*
X133279576Y-122502962D01*
X132994678Y-122579299D01*
X132994677Y-122579299D01*
X132722176Y-122692174D01*
X132466748Y-122839646D01*
X132319099Y-122952942D01*
X132247842Y-122982457D01*
X132188616Y-122974659D01*
X132191547Y-122982294D01*
X132179482Y-123058472D01*
X132148722Y-123103228D01*
X132024205Y-123227745D01*
X132024197Y-123227754D01*
X131844647Y-123461746D01*
X131844646Y-123461748D01*
X131697174Y-123717176D01*
X131584299Y-123989677D01*
X131584299Y-123989678D01*
X131507964Y-124274569D01*
X131507961Y-124274586D01*
X131469466Y-124566987D01*
X125809465Y-124566987D01*
X125770970Y-124274586D01*
X125770967Y-124274569D01*
X125694632Y-123989678D01*
X125694632Y-123989677D01*
X125581757Y-123717176D01*
X125434285Y-123461748D01*
X125434284Y-123461746D01*
X125254734Y-123227754D01*
X125046177Y-123019197D01*
X124812185Y-122839647D01*
X124812183Y-122839646D01*
X124556755Y-122692174D01*
X124284254Y-122579299D01*
X123999355Y-122502962D01*
X123999350Y-122502961D01*
X123809466Y-122477962D01*
X123809466Y-125489504D01*
X123658450Y-125459466D01*
X123460482Y-125459466D01*
X123309466Y-125489504D01*
X123309466Y-122477962D01*
X123119581Y-122502961D01*
X123119576Y-122502962D01*
X122834678Y-122579299D01*
X122834677Y-122579299D01*
X122562176Y-122692174D01*
X122306748Y-122839646D01*
X122306746Y-122839647D01*
X122072754Y-123019197D01*
X121864197Y-123227754D01*
X121684647Y-123461746D01*
X121684646Y-123461748D01*
X121537174Y-123717176D01*
X121424299Y-123989677D01*
X121424299Y-123989678D01*
X121347964Y-124274569D01*
X121347961Y-124274586D01*
X121309466Y-124566987D01*
X110969465Y-124566987D01*
X110930970Y-124274586D01*
X110930967Y-124274569D01*
X110854632Y-123989678D01*
X110854632Y-123989677D01*
X110741757Y-123717176D01*
X110594285Y-123461748D01*
X110594284Y-123461746D01*
X110414734Y-123227754D01*
X110206177Y-123019197D01*
X109972185Y-122839647D01*
X109972183Y-122839646D01*
X109716755Y-122692174D01*
X109444254Y-122579299D01*
X109159355Y-122502962D01*
X109159350Y-122502961D01*
X108969466Y-122477962D01*
X108969466Y-125489504D01*
X108818450Y-125459466D01*
X108620482Y-125459466D01*
X108469466Y-125489504D01*
X108469466Y-122477962D01*
X108279581Y-122502961D01*
X108279576Y-122502962D01*
X107994678Y-122579299D01*
X107994677Y-122579299D01*
X107722176Y-122692174D01*
X107466748Y-122839646D01*
X107319099Y-122952942D01*
X107247842Y-122982457D01*
X107188616Y-122974659D01*
X107191547Y-122982294D01*
X107179482Y-123058472D01*
X107148722Y-123103228D01*
X107024205Y-123227745D01*
X107024197Y-123227754D01*
X106844647Y-123461746D01*
X106844646Y-123461748D01*
X106697174Y-123717176D01*
X106584299Y-123989677D01*
X106584299Y-123989678D01*
X106507964Y-124274569D01*
X106507961Y-124274586D01*
X106469466Y-124566987D01*
X100809465Y-124566987D01*
X100770970Y-124274586D01*
X100770967Y-124274569D01*
X100694632Y-123989678D01*
X100694632Y-123989677D01*
X100581757Y-123717176D01*
X100434285Y-123461748D01*
X100434284Y-123461746D01*
X100254734Y-123227754D01*
X100046177Y-123019197D01*
X99812185Y-122839647D01*
X99812183Y-122839646D01*
X99556755Y-122692174D01*
X99284254Y-122579299D01*
X98999355Y-122502962D01*
X98999350Y-122502961D01*
X98809466Y-122477962D01*
X98809466Y-125489504D01*
X98658450Y-125459466D01*
X98460482Y-125459466D01*
X98309466Y-125489504D01*
X98309466Y-122477962D01*
X98119581Y-122502961D01*
X98119576Y-122502962D01*
X97834678Y-122579299D01*
X97834677Y-122579299D01*
X97562176Y-122692174D01*
X97306748Y-122839646D01*
X97306746Y-122839647D01*
X97072754Y-123019197D01*
X96864197Y-123227754D01*
X96684647Y-123461746D01*
X96684646Y-123461748D01*
X96537174Y-123717176D01*
X96424299Y-123989677D01*
X96424299Y-123989678D01*
X96347964Y-124274569D01*
X96347961Y-124274586D01*
X96309466Y-124566987D01*
X86264966Y-124566987D01*
X86264966Y-120839985D01*
X102438966Y-120839985D01*
X102438966Y-121928947D01*
X102468526Y-122115584D01*
X102526919Y-122295298D01*
X102612706Y-122463665D01*
X102723776Y-122616539D01*
X102857393Y-122750156D01*
X103010267Y-122861226D01*
X103178634Y-122947013D01*
X103358348Y-123005406D01*
X103544985Y-123034966D01*
X103544990Y-123034966D01*
X103733942Y-123034966D01*
X103733947Y-123034966D01*
X103920584Y-123005406D01*
X104100298Y-122947013D01*
X104268665Y-122861226D01*
X104421539Y-122750156D01*
X104555156Y-122616539D01*
X104666226Y-122463665D01*
X104720870Y-122356417D01*
X104772478Y-122299102D01*
X104845831Y-122275267D01*
X104921274Y-122291303D01*
X104978591Y-122342911D01*
X104986390Y-122356418D01*
X105067609Y-122515820D01*
X105187878Y-122681355D01*
X105332576Y-122826053D01*
X105498111Y-122946322D01*
X105680433Y-123039219D01*
X105680445Y-123039225D01*
X105875043Y-123102454D01*
X105929466Y-123111073D01*
X105929466Y-121753970D01*
X106007702Y-121799140D01*
X106120881Y-121829466D01*
X106238051Y-121829466D01*
X106351230Y-121799140D01*
X106429466Y-121753970D01*
X106429466Y-123111072D01*
X106483888Y-123102454D01*
X106678486Y-123039225D01*
X106678498Y-123039219D01*
X106860824Y-122946320D01*
X106955782Y-122877328D01*
X107027787Y-122849686D01*
X107082389Y-122858333D01*
X107080669Y-122854180D01*
X107090736Y-122777712D01*
X107123036Y-122729372D01*
X107171053Y-122681355D01*
X107291322Y-122515820D01*
X107384219Y-122333498D01*
X107384224Y-122333486D01*
X107447455Y-122138882D01*
X107479466Y-121936773D01*
X107479466Y-121634466D01*
X106548970Y-121634466D01*
X106594140Y-121556230D01*
X106624466Y-121443051D01*
X106624466Y-121325881D01*
X106594140Y-121212702D01*
X106548970Y-121134466D01*
X107479466Y-121134466D01*
X107479466Y-120839985D01*
X127438966Y-120839985D01*
X127438966Y-121928947D01*
X127468526Y-122115584D01*
X127526919Y-122295298D01*
X127612706Y-122463665D01*
X127723776Y-122616539D01*
X127857393Y-122750156D01*
X128010267Y-122861226D01*
X128178634Y-122947013D01*
X128358348Y-123005406D01*
X128544985Y-123034966D01*
X128544990Y-123034966D01*
X128733942Y-123034966D01*
X128733947Y-123034966D01*
X128920584Y-123005406D01*
X129100298Y-122947013D01*
X129268665Y-122861226D01*
X129421539Y-122750156D01*
X129555156Y-122616539D01*
X129666226Y-122463665D01*
X129720870Y-122356417D01*
X129772478Y-122299102D01*
X129845831Y-122275267D01*
X129921274Y-122291303D01*
X129978591Y-122342911D01*
X129986390Y-122356418D01*
X130067609Y-122515820D01*
X130187878Y-122681355D01*
X130332576Y-122826053D01*
X130498111Y-122946322D01*
X130680433Y-123039219D01*
X130680445Y-123039225D01*
X130875043Y-123102454D01*
X130929466Y-123111073D01*
X130929466Y-121753970D01*
X131007702Y-121799140D01*
X131120881Y-121829466D01*
X131238051Y-121829466D01*
X131351230Y-121799140D01*
X131429466Y-121753970D01*
X131429466Y-123111072D01*
X131483888Y-123102454D01*
X131678486Y-123039225D01*
X131678498Y-123039219D01*
X131860824Y-122946320D01*
X131955782Y-122877328D01*
X132027787Y-122849686D01*
X132082389Y-122858333D01*
X132080669Y-122854180D01*
X132090736Y-122777712D01*
X132123036Y-122729372D01*
X132171053Y-122681355D01*
X132291322Y-122515820D01*
X132384219Y-122333498D01*
X132384224Y-122333486D01*
X132447455Y-122138882D01*
X132479466Y-121936773D01*
X132479466Y-121634466D01*
X131548970Y-121634466D01*
X131594140Y-121556230D01*
X131624466Y-121443051D01*
X131624466Y-121325881D01*
X131594140Y-121212702D01*
X131548970Y-121134466D01*
X132479466Y-121134466D01*
X132479466Y-120832158D01*
X132447455Y-120630049D01*
X132384224Y-120435445D01*
X132384219Y-120435433D01*
X132291322Y-120253111D01*
X132171053Y-120087576D01*
X132026355Y-119942878D01*
X131860820Y-119822609D01*
X131678498Y-119729712D01*
X131678486Y-119729707D01*
X131483883Y-119666476D01*
X131429466Y-119657857D01*
X131429466Y-121014961D01*
X131351230Y-120969792D01*
X131238051Y-120939466D01*
X131120881Y-120939466D01*
X131007702Y-120969792D01*
X130929466Y-121014961D01*
X130929466Y-119657857D01*
X130875048Y-119666476D01*
X130680445Y-119729707D01*
X130680433Y-119729712D01*
X130498111Y-119822609D01*
X130332576Y-119942878D01*
X130187878Y-120087576D01*
X130067609Y-120253111D01*
X129986390Y-120412513D01*
X129934781Y-120469830D01*
X129861428Y-120493664D01*
X129785985Y-120477628D01*
X129728668Y-120426019D01*
X129720870Y-120412512D01*
X129711035Y-120393210D01*
X129666226Y-120305267D01*
X129555156Y-120152393D01*
X129421539Y-120018776D01*
X129268665Y-119907706D01*
X129100298Y-119821919D01*
X128920584Y-119763526D01*
X128733947Y-119733966D01*
X128544985Y-119733966D01*
X128358348Y-119763526D01*
X128178634Y-119821919D01*
X128178629Y-119821921D01*
X128178623Y-119821924D01*
X128010270Y-119907704D01*
X128010265Y-119907707D01*
X127857402Y-120018769D01*
X127857391Y-120018778D01*
X127723778Y-120152391D01*
X127723769Y-120152402D01*
X127612707Y-120305265D01*
X127612704Y-120305270D01*
X127526924Y-120473623D01*
X127526921Y-120473629D01*
X127526919Y-120473634D01*
X127468526Y-120653348D01*
X127438966Y-120839985D01*
X107479466Y-120839985D01*
X107479466Y-120832158D01*
X107447455Y-120630049D01*
X107384224Y-120435445D01*
X107384219Y-120435433D01*
X107291322Y-120253111D01*
X107171053Y-120087576D01*
X107026355Y-119942878D01*
X106860820Y-119822609D01*
X106678498Y-119729712D01*
X106678486Y-119729707D01*
X106483883Y-119666476D01*
X106429466Y-119657857D01*
X106429466Y-121014961D01*
X106351230Y-120969792D01*
X106238051Y-120939466D01*
X106120881Y-120939466D01*
X106007702Y-120969792D01*
X105929466Y-121014961D01*
X105929466Y-119657857D01*
X105875048Y-119666476D01*
X105680445Y-119729707D01*
X105680433Y-119729712D01*
X105498111Y-119822609D01*
X105332576Y-119942878D01*
X105187878Y-120087576D01*
X105067609Y-120253111D01*
X104986390Y-120412513D01*
X104934781Y-120469830D01*
X104861428Y-120493664D01*
X104785985Y-120477628D01*
X104728668Y-120426019D01*
X104720870Y-120412512D01*
X104711035Y-120393210D01*
X104666226Y-120305267D01*
X104555156Y-120152393D01*
X104421539Y-120018776D01*
X104268665Y-119907706D01*
X104100298Y-119821919D01*
X103920584Y-119763526D01*
X103733947Y-119733966D01*
X103544985Y-119733966D01*
X103358348Y-119763526D01*
X103178634Y-119821919D01*
X103178629Y-119821921D01*
X103178623Y-119821924D01*
X103010270Y-119907704D01*
X103010265Y-119907707D01*
X102857402Y-120018769D01*
X102857391Y-120018778D01*
X102723778Y-120152391D01*
X102723769Y-120152402D01*
X102612707Y-120305265D01*
X102612704Y-120305270D01*
X102526924Y-120473623D01*
X102526921Y-120473629D01*
X102526919Y-120473634D01*
X102468526Y-120653348D01*
X102438966Y-120839985D01*
X86264966Y-120839985D01*
X86264966Y-103949999D01*
X104444751Y-103949999D01*
X104444751Y-103950000D01*
X104463686Y-104118056D01*
X104463686Y-104118058D01*
X104463687Y-104118059D01*
X104519544Y-104277690D01*
X104609523Y-104420890D01*
X104609524Y-104420891D01*
X104729109Y-104540476D01*
X104729116Y-104540481D01*
X104861777Y-104623839D01*
X104914238Y-104680378D01*
X104931400Y-104755572D01*
X104908665Y-104829273D01*
X104861777Y-104876161D01*
X104729116Y-104959518D01*
X104729109Y-104959524D01*
X104609523Y-105079110D01*
X104519544Y-105222309D01*
X104463686Y-105381943D01*
X104444751Y-105549999D01*
X104444751Y-105550000D01*
X104463686Y-105718056D01*
X104463686Y-105718058D01*
X104463687Y-105718059D01*
X104519544Y-105877690D01*
X104609523Y-106020890D01*
X104729110Y-106140477D01*
X104872310Y-106230456D01*
X105031941Y-106286313D01*
X105143980Y-106298937D01*
X105199999Y-106305249D01*
X105200000Y-106305249D01*
X105200001Y-106305249D01*
X105242014Y-106300515D01*
X105368059Y-106286313D01*
X105527690Y-106230456D01*
X105670890Y-106140477D01*
X105790477Y-106020890D01*
X105880456Y-105877690D01*
X105936313Y-105718059D01*
X105955249Y-105550000D01*
X105936313Y-105381941D01*
X105880456Y-105222310D01*
X105790477Y-105079110D01*
X105670890Y-104959523D01*
X105538221Y-104876161D01*
X105485762Y-104819623D01*
X105468599Y-104744428D01*
X105491333Y-104670727D01*
X105538222Y-104623838D01*
X105670890Y-104540477D01*
X105790477Y-104420890D01*
X105880456Y-104277690D01*
X105936313Y-104118059D01*
X105955249Y-103950000D01*
X105936313Y-103781941D01*
X105880456Y-103622310D01*
X105790477Y-103479110D01*
X105670890Y-103359523D01*
X105527690Y-103269544D01*
X105368059Y-103213687D01*
X105368058Y-103213686D01*
X105368056Y-103213686D01*
X105200001Y-103194751D01*
X105199999Y-103194751D01*
X105031943Y-103213686D01*
X104872309Y-103269544D01*
X104729110Y-103359523D01*
X104609523Y-103479110D01*
X104519544Y-103622309D01*
X104463686Y-103781943D01*
X104444751Y-103949999D01*
X86264966Y-103949999D01*
X86264966Y-99049999D01*
X128794751Y-99049999D01*
X128794751Y-99050000D01*
X128813686Y-99218056D01*
X128813686Y-99218058D01*
X128813687Y-99218059D01*
X128869544Y-99377690D01*
X128959523Y-99520890D01*
X129079110Y-99640477D01*
X129222310Y-99730456D01*
X129381941Y-99786313D01*
X129493980Y-99798937D01*
X129549999Y-99805249D01*
X129550000Y-99805249D01*
X129550001Y-99805249D01*
X129592014Y-99800515D01*
X129718059Y-99786313D01*
X129877690Y-99730456D01*
X130020890Y-99640477D01*
X130140477Y-99520890D01*
X130230456Y-99377690D01*
X130286313Y-99218059D01*
X130305249Y-99050000D01*
X130286313Y-98881941D01*
X130230456Y-98722310D01*
X130196995Y-98669058D01*
X130174262Y-98595358D01*
X130191424Y-98520164D01*
X130196986Y-98510530D01*
X130280456Y-98377690D01*
X130336313Y-98218059D01*
X130355249Y-98050000D01*
X130336313Y-97881941D01*
X130280456Y-97722310D01*
X130190477Y-97579110D01*
X130070890Y-97459523D01*
X129927690Y-97369544D01*
X129768059Y-97313687D01*
X129768058Y-97313686D01*
X129768056Y-97313686D01*
X129600001Y-97294751D01*
X129599999Y-97294751D01*
X129431943Y-97313686D01*
X129272309Y-97369544D01*
X129129110Y-97459523D01*
X129009523Y-97579110D01*
X128919544Y-97722309D01*
X128863686Y-97881943D01*
X128844751Y-98049999D01*
X128844751Y-98050000D01*
X128863686Y-98218056D01*
X128919544Y-98377690D01*
X128953003Y-98430940D01*
X128975737Y-98504642D01*
X128958574Y-98579836D01*
X128953003Y-98589486D01*
X128869544Y-98722309D01*
X128813686Y-98881943D01*
X128794751Y-99049999D01*
X86264966Y-99049999D01*
X86264966Y-96249999D01*
X95594751Y-96249999D01*
X95594751Y-96250000D01*
X95613686Y-96418056D01*
X95613686Y-96418058D01*
X95613687Y-96418059D01*
X95669544Y-96577690D01*
X95759523Y-96720890D01*
X95879110Y-96840477D01*
X96022310Y-96930456D01*
X96181941Y-96986313D01*
X96293980Y-96998937D01*
X96349999Y-97005249D01*
X96350000Y-97005249D01*
X96350001Y-97005249D01*
X96392014Y-97000515D01*
X96518059Y-96986313D01*
X96677690Y-96930456D01*
X96820890Y-96840477D01*
X96940477Y-96720890D01*
X97030456Y-96577690D01*
X97086313Y-96418059D01*
X97105249Y-96250000D01*
X97086313Y-96081941D01*
X97030456Y-95922310D01*
X96940477Y-95779110D01*
X96820890Y-95659523D01*
X96677690Y-95569544D01*
X96518059Y-95513687D01*
X96518058Y-95513686D01*
X96518056Y-95513686D01*
X96350001Y-95494751D01*
X96349999Y-95494751D01*
X96181943Y-95513686D01*
X96022309Y-95569544D01*
X95879110Y-95659523D01*
X95759523Y-95779110D01*
X95669544Y-95922309D01*
X95613686Y-96081943D01*
X95594751Y-96249999D01*
X86264966Y-96249999D01*
X86264966Y-95299999D01*
X115944751Y-95299999D01*
X115944751Y-95300000D01*
X115963686Y-95468056D01*
X115963686Y-95468058D01*
X115963687Y-95468059D01*
X116019544Y-95627690D01*
X116109523Y-95770890D01*
X116229110Y-95890477D01*
X116372310Y-95980456D01*
X116531941Y-96036313D01*
X116643980Y-96048937D01*
X116699999Y-96055249D01*
X116700000Y-96055249D01*
X116700001Y-96055249D01*
X116742014Y-96050515D01*
X116868059Y-96036313D01*
X117027690Y-95980456D01*
X117170890Y-95890477D01*
X117290477Y-95770890D01*
X117380456Y-95627690D01*
X117436313Y-95468059D01*
X117455249Y-95300000D01*
X117436313Y-95131941D01*
X117380456Y-94972310D01*
X117290477Y-94829110D01*
X117170890Y-94709523D01*
X117027690Y-94619544D01*
X116868059Y-94563687D01*
X116868058Y-94563686D01*
X116868056Y-94563686D01*
X116700001Y-94544751D01*
X116699999Y-94544751D01*
X116531943Y-94563686D01*
X116372309Y-94619544D01*
X116229110Y-94709523D01*
X116109523Y-94829110D01*
X116019544Y-94972309D01*
X115963686Y-95131943D01*
X115944751Y-95299999D01*
X86264966Y-95299999D01*
X86264966Y-91849999D01*
X94894751Y-91849999D01*
X94894751Y-91850000D01*
X94913686Y-92018056D01*
X94913686Y-92018058D01*
X94913687Y-92018059D01*
X94969544Y-92177690D01*
X95059523Y-92320890D01*
X95179110Y-92440477D01*
X95322310Y-92530456D01*
X95481941Y-92586313D01*
X95593980Y-92598937D01*
X95649999Y-92605249D01*
X95650000Y-92605249D01*
X95650001Y-92605249D01*
X95692014Y-92600515D01*
X95818059Y-92586313D01*
X95977690Y-92530456D01*
X96120890Y-92440477D01*
X96240477Y-92320890D01*
X96330456Y-92177690D01*
X96386313Y-92018059D01*
X96405249Y-91850000D01*
X96386313Y-91681941D01*
X96375136Y-91649999D01*
X100294751Y-91649999D01*
X100294751Y-91650000D01*
X100313686Y-91818056D01*
X100313686Y-91818058D01*
X100313687Y-91818059D01*
X100369544Y-91977690D01*
X100459523Y-92120890D01*
X100579110Y-92240477D01*
X100722310Y-92330456D01*
X100881941Y-92386313D01*
X100993980Y-92398937D01*
X101049999Y-92405249D01*
X101050000Y-92405249D01*
X101050001Y-92405249D01*
X101092014Y-92400515D01*
X101218059Y-92386313D01*
X101377690Y-92330456D01*
X101520890Y-92240477D01*
X101640477Y-92120890D01*
X101730456Y-91977690D01*
X101740145Y-91949999D01*
X108244751Y-91949999D01*
X108244751Y-91950000D01*
X108263686Y-92118056D01*
X108263686Y-92118058D01*
X108263687Y-92118059D01*
X108319544Y-92277690D01*
X108409523Y-92420890D01*
X108529110Y-92540477D01*
X108672310Y-92630456D01*
X108831941Y-92686313D01*
X108943980Y-92698937D01*
X108999999Y-92705249D01*
X109000000Y-92705249D01*
X109000001Y-92705249D01*
X109042014Y-92700515D01*
X109168059Y-92686313D01*
X109327690Y-92630456D01*
X109470890Y-92540477D01*
X109590477Y-92420890D01*
X109680456Y-92277690D01*
X109736313Y-92118059D01*
X109755249Y-91950000D01*
X109736313Y-91781941D01*
X109680456Y-91622310D01*
X109666437Y-91599999D01*
X124944751Y-91599999D01*
X124944751Y-91600000D01*
X124963686Y-91768056D01*
X124963686Y-91768058D01*
X124963687Y-91768059D01*
X125019544Y-91927690D01*
X125109523Y-92070890D01*
X125229110Y-92190477D01*
X125372310Y-92280456D01*
X125531941Y-92336313D01*
X125643980Y-92348937D01*
X125699999Y-92355249D01*
X125700000Y-92355249D01*
X125700001Y-92355249D01*
X125742014Y-92350515D01*
X125868059Y-92336313D01*
X126027690Y-92280456D01*
X126170890Y-92190477D01*
X126290477Y-92070890D01*
X126380456Y-91927690D01*
X126436313Y-91768059D01*
X126452803Y-91621703D01*
X126480981Y-91549909D01*
X126541282Y-91501820D01*
X126617548Y-91490325D01*
X126686206Y-91498061D01*
X126749999Y-91505249D01*
X126750000Y-91505249D01*
X126750001Y-91505249D01*
X126792014Y-91500515D01*
X126918059Y-91486313D01*
X127077690Y-91430456D01*
X127220890Y-91340477D01*
X127340477Y-91220890D01*
X127430456Y-91077690D01*
X127486313Y-90918059D01*
X127505249Y-90750000D01*
X127486313Y-90581941D01*
X127430456Y-90422310D01*
X127356287Y-90304271D01*
X127333553Y-90230573D01*
X127350715Y-90155378D01*
X127356280Y-90145739D01*
X127430456Y-90027690D01*
X127486313Y-89868059D01*
X127505249Y-89700000D01*
X127486313Y-89531941D01*
X127430456Y-89372310D01*
X127340477Y-89229110D01*
X127220890Y-89109523D01*
X127077690Y-89019544D01*
X126918059Y-88963687D01*
X126918058Y-88963686D01*
X126918056Y-88963686D01*
X126750001Y-88944751D01*
X126749999Y-88944751D01*
X126581943Y-88963686D01*
X126422309Y-89019544D01*
X126279110Y-89109523D01*
X126159523Y-89229110D01*
X126069544Y-89372309D01*
X126013686Y-89531943D01*
X125994751Y-89699999D01*
X125994751Y-89700000D01*
X126013686Y-89868056D01*
X126069544Y-90027690D01*
X126143712Y-90145727D01*
X126166446Y-90219428D01*
X126149283Y-90294623D01*
X126143712Y-90304273D01*
X126069544Y-90422309D01*
X126013686Y-90581942D01*
X125997196Y-90728295D01*
X125969017Y-90800091D01*
X125908716Y-90848179D01*
X125832451Y-90859674D01*
X125700002Y-90844751D01*
X125699999Y-90844751D01*
X125531943Y-90863686D01*
X125372309Y-90919544D01*
X125229110Y-91009523D01*
X125109523Y-91129110D01*
X125027579Y-91259523D01*
X125019544Y-91272310D01*
X124991615Y-91352125D01*
X124963686Y-91431943D01*
X124944751Y-91599999D01*
X109666437Y-91599999D01*
X109590477Y-91479110D01*
X109470890Y-91359523D01*
X109327690Y-91269544D01*
X109168059Y-91213687D01*
X109168058Y-91213686D01*
X109168056Y-91213686D01*
X109000001Y-91194751D01*
X108999999Y-91194751D01*
X108831943Y-91213686D01*
X108672309Y-91269544D01*
X108529110Y-91359523D01*
X108409523Y-91479110D01*
X108319544Y-91622309D01*
X108263686Y-91781943D01*
X108244751Y-91949999D01*
X101740145Y-91949999D01*
X101786313Y-91818059D01*
X101805249Y-91650000D01*
X101786313Y-91481941D01*
X101730456Y-91322310D01*
X101640477Y-91179110D01*
X101520890Y-91059523D01*
X101377690Y-90969544D01*
X101218059Y-90913687D01*
X101218058Y-90913686D01*
X101218056Y-90913686D01*
X101050001Y-90894751D01*
X101049999Y-90894751D01*
X100881943Y-90913686D01*
X100722309Y-90969544D01*
X100579110Y-91059523D01*
X100459523Y-91179110D01*
X100369544Y-91322309D01*
X100313686Y-91481943D01*
X100294751Y-91649999D01*
X96375136Y-91649999D01*
X96330456Y-91522310D01*
X96240477Y-91379110D01*
X96120890Y-91259523D01*
X95977690Y-91169544D01*
X95818059Y-91113687D01*
X95818058Y-91113686D01*
X95818056Y-91113686D01*
X95650001Y-91094751D01*
X95649999Y-91094751D01*
X95481943Y-91113686D01*
X95322309Y-91169544D01*
X95179110Y-91259523D01*
X95059523Y-91379110D01*
X94969544Y-91522309D01*
X94913686Y-91681943D01*
X94894751Y-91849999D01*
X86264966Y-91849999D01*
X86264966Y-90499999D01*
X105244751Y-90499999D01*
X105244751Y-90500000D01*
X105263686Y-90668056D01*
X105263686Y-90668058D01*
X105263687Y-90668059D01*
X105319544Y-90827690D01*
X105409523Y-90970890D01*
X105529110Y-91090477D01*
X105672310Y-91180456D01*
X105831941Y-91236313D01*
X105943980Y-91248937D01*
X105999999Y-91255249D01*
X106000000Y-91255249D01*
X106000001Y-91255249D01*
X106042014Y-91250515D01*
X106168059Y-91236313D01*
X106327690Y-91180456D01*
X106470890Y-91090477D01*
X106590477Y-90970890D01*
X106680456Y-90827690D01*
X106736313Y-90668059D01*
X106755249Y-90500000D01*
X106736313Y-90331941D01*
X106680456Y-90172310D01*
X106590477Y-90029110D01*
X106470890Y-89909523D01*
X106327690Y-89819544D01*
X106168059Y-89763687D01*
X106168058Y-89763686D01*
X106168056Y-89763686D01*
X106000001Y-89744751D01*
X105999999Y-89744751D01*
X105831943Y-89763686D01*
X105672309Y-89819544D01*
X105529110Y-89909523D01*
X105409523Y-90029110D01*
X105319544Y-90172309D01*
X105263686Y-90331943D01*
X105244751Y-90499999D01*
X86264966Y-90499999D01*
X86264966Y-88899999D01*
X123794751Y-88899999D01*
X123794751Y-88900000D01*
X123813686Y-89068056D01*
X123813686Y-89068058D01*
X123813687Y-89068059D01*
X123869544Y-89227690D01*
X123959523Y-89370890D01*
X124079110Y-89490477D01*
X124222310Y-89580456D01*
X124381941Y-89636313D01*
X124493980Y-89648937D01*
X124549999Y-89655249D01*
X124550000Y-89655249D01*
X124550001Y-89655249D01*
X124592014Y-89650515D01*
X124718059Y-89636313D01*
X124877690Y-89580456D01*
X125020890Y-89490477D01*
X125140477Y-89370890D01*
X125230456Y-89227690D01*
X125286313Y-89068059D01*
X125305249Y-88900000D01*
X125286313Y-88731941D01*
X125230456Y-88572310D01*
X125140477Y-88429110D01*
X125020890Y-88309523D01*
X124877690Y-88219544D01*
X124718059Y-88163687D01*
X124718058Y-88163686D01*
X124718056Y-88163686D01*
X124550001Y-88144751D01*
X124549999Y-88144751D01*
X124381943Y-88163686D01*
X124222309Y-88219544D01*
X124079110Y-88309523D01*
X123959523Y-88429110D01*
X123869544Y-88572309D01*
X123813686Y-88731943D01*
X123794751Y-88899999D01*
X86264966Y-88899999D01*
X86264966Y-86349999D01*
X106094751Y-86349999D01*
X106094751Y-86350000D01*
X106113686Y-86518056D01*
X106113686Y-86518058D01*
X106113687Y-86518059D01*
X106169544Y-86677690D01*
X106259523Y-86820890D01*
X106379110Y-86940477D01*
X106522310Y-87030456D01*
X106681941Y-87086313D01*
X106786967Y-87098146D01*
X106821954Y-87102089D01*
X106893751Y-87130267D01*
X106941839Y-87190568D01*
X106953334Y-87266835D01*
X106925156Y-87338632D01*
X106864855Y-87386720D01*
X106854482Y-87390791D01*
X106772309Y-87419544D01*
X106629110Y-87509523D01*
X106509523Y-87629110D01*
X106419544Y-87772309D01*
X106363686Y-87931943D01*
X106344751Y-88099999D01*
X106344751Y-88100000D01*
X106363686Y-88268056D01*
X106363686Y-88268058D01*
X106363687Y-88268059D01*
X106419544Y-88427690D01*
X106509523Y-88570890D01*
X106629110Y-88690477D01*
X106772310Y-88780456D01*
X106931941Y-88836313D01*
X107043980Y-88848937D01*
X107099999Y-88855249D01*
X107100000Y-88855249D01*
X107100001Y-88855249D01*
X107142014Y-88850515D01*
X107268059Y-88836313D01*
X107427690Y-88780456D01*
X107570890Y-88690477D01*
X107690477Y-88570890D01*
X107780456Y-88427690D01*
X107836313Y-88268059D01*
X107855249Y-88100000D01*
X107836313Y-87931941D01*
X107780456Y-87772310D01*
X107690477Y-87629110D01*
X107570890Y-87509523D01*
X107427690Y-87419544D01*
X107381307Y-87403314D01*
X108094751Y-87403314D01*
X108094751Y-87403315D01*
X108113686Y-87571371D01*
X108113686Y-87571373D01*
X108113687Y-87571374D01*
X108169544Y-87731005D01*
X108259523Y-87874205D01*
X108379110Y-87993792D01*
X108522310Y-88083771D01*
X108681941Y-88139628D01*
X108793980Y-88152252D01*
X108849999Y-88158564D01*
X108850000Y-88158564D01*
X108850001Y-88158564D01*
X108892014Y-88153830D01*
X109018059Y-88139628D01*
X109177690Y-88083771D01*
X109320890Y-87993792D01*
X109440477Y-87874205D01*
X109530456Y-87731005D01*
X109586313Y-87571374D01*
X109605249Y-87403315D01*
X109586313Y-87235256D01*
X109530456Y-87075625D01*
X109440477Y-86932425D01*
X109411366Y-86903314D01*
X110944751Y-86903314D01*
X110944751Y-86903315D01*
X110963686Y-87071371D01*
X110963686Y-87071373D01*
X110963687Y-87071374D01*
X111019544Y-87231005D01*
X111109523Y-87374205D01*
X111229110Y-87493792D01*
X111372310Y-87583771D01*
X111531941Y-87639628D01*
X111643980Y-87652252D01*
X111699999Y-87658564D01*
X111700000Y-87658564D01*
X111700001Y-87658564D01*
X111742014Y-87653830D01*
X111868059Y-87639628D01*
X112027690Y-87583771D01*
X112170890Y-87493792D01*
X112290477Y-87374205D01*
X112380456Y-87231005D01*
X112436313Y-87071374D01*
X112455249Y-86903315D01*
X112454875Y-86900000D01*
X112454875Y-86899999D01*
X119694751Y-86899999D01*
X119694751Y-86900000D01*
X119713686Y-87068056D01*
X119713686Y-87068058D01*
X119713687Y-87068059D01*
X119769544Y-87227690D01*
X119859523Y-87370890D01*
X119979110Y-87490477D01*
X120122310Y-87580456D01*
X120281941Y-87636313D01*
X120393980Y-87648937D01*
X120449999Y-87655249D01*
X120450000Y-87655249D01*
X120450001Y-87655249D01*
X120492014Y-87650515D01*
X120618059Y-87636313D01*
X120777690Y-87580456D01*
X120920890Y-87490477D01*
X121040477Y-87370890D01*
X121130456Y-87227690D01*
X121186313Y-87068059D01*
X121205249Y-86900000D01*
X121186313Y-86731941D01*
X121130456Y-86572310D01*
X121040477Y-86429110D01*
X120920890Y-86309523D01*
X120777690Y-86219544D01*
X120618059Y-86163687D01*
X120618058Y-86163686D01*
X120618056Y-86163686D01*
X120450001Y-86144751D01*
X120449999Y-86144751D01*
X120281943Y-86163686D01*
X120122309Y-86219544D01*
X119979110Y-86309523D01*
X119859523Y-86429110D01*
X119769544Y-86572309D01*
X119713686Y-86731943D01*
X119694751Y-86899999D01*
X112454875Y-86899999D01*
X112445055Y-86812839D01*
X112436313Y-86735256D01*
X112380456Y-86575625D01*
X112290477Y-86432425D01*
X112170890Y-86312838D01*
X112027690Y-86222859D01*
X111868059Y-86167002D01*
X111868058Y-86167001D01*
X111868056Y-86167001D01*
X111700001Y-86148066D01*
X111699999Y-86148066D01*
X111531943Y-86167001D01*
X111372309Y-86222859D01*
X111229110Y-86312838D01*
X111109523Y-86432425D01*
X111019544Y-86575624D01*
X110963686Y-86735258D01*
X110944751Y-86903314D01*
X109411366Y-86903314D01*
X109320890Y-86812838D01*
X109177690Y-86722859D01*
X109018059Y-86667002D01*
X109018058Y-86667001D01*
X109018056Y-86667001D01*
X108850001Y-86648066D01*
X108849999Y-86648066D01*
X108681943Y-86667001D01*
X108522309Y-86722859D01*
X108379110Y-86812838D01*
X108259523Y-86932425D01*
X108169544Y-87075624D01*
X108113686Y-87235258D01*
X108094751Y-87403314D01*
X107381307Y-87403314D01*
X107268059Y-87363687D01*
X107268058Y-87363686D01*
X107268057Y-87363686D01*
X107128044Y-87347910D01*
X107056248Y-87319731D01*
X107008160Y-87259430D01*
X106996665Y-87183163D01*
X107024844Y-87111367D01*
X107085145Y-87063279D01*
X107095502Y-87059214D01*
X107153525Y-87038911D01*
X107177688Y-87030457D01*
X107177690Y-87030456D01*
X107320890Y-86940477D01*
X107440477Y-86820890D01*
X107530456Y-86677690D01*
X107586313Y-86518059D01*
X107605249Y-86350000D01*
X107603214Y-86331943D01*
X107590702Y-86220891D01*
X107586313Y-86181941D01*
X107530456Y-86022310D01*
X107440477Y-85879110D01*
X107320890Y-85759523D01*
X107305733Y-85749999D01*
X125494751Y-85749999D01*
X125494751Y-85750000D01*
X125513686Y-85918056D01*
X125513686Y-85918058D01*
X125513687Y-85918059D01*
X125569544Y-86077690D01*
X125659523Y-86220890D01*
X125779110Y-86340477D01*
X125922310Y-86430456D01*
X126081941Y-86486313D01*
X126193980Y-86498937D01*
X126249999Y-86505249D01*
X126250000Y-86505249D01*
X126250001Y-86505249D01*
X126296594Y-86499999D01*
X128094751Y-86499999D01*
X128094751Y-86500000D01*
X128113686Y-86668056D01*
X128113686Y-86668058D01*
X128113687Y-86668059D01*
X128169544Y-86827690D01*
X128259523Y-86970890D01*
X128379110Y-87090477D01*
X128522310Y-87180456D01*
X128681941Y-87236313D01*
X128793980Y-87248937D01*
X128849999Y-87255249D01*
X128850000Y-87255249D01*
X128850001Y-87255249D01*
X128892014Y-87250515D01*
X129018059Y-87236313D01*
X129177690Y-87180456D01*
X129320890Y-87090477D01*
X129440477Y-86970890D01*
X129530456Y-86827690D01*
X129586313Y-86668059D01*
X129605249Y-86500000D01*
X129586313Y-86331941D01*
X129530456Y-86172310D01*
X129440477Y-86029110D01*
X129320890Y-85909523D01*
X129177690Y-85819544D01*
X129018059Y-85763687D01*
X129018058Y-85763686D01*
X129018056Y-85763686D01*
X128850001Y-85744751D01*
X128849999Y-85744751D01*
X128681943Y-85763686D01*
X128522309Y-85819544D01*
X128379110Y-85909523D01*
X128259523Y-86029110D01*
X128169544Y-86172309D01*
X128113686Y-86331943D01*
X128094751Y-86499999D01*
X126296594Y-86499999D01*
X126418059Y-86486313D01*
X126577690Y-86430456D01*
X126720890Y-86340477D01*
X126840477Y-86220890D01*
X126930456Y-86077690D01*
X126986313Y-85918059D01*
X127005249Y-85750000D01*
X126986313Y-85581941D01*
X126930456Y-85422310D01*
X126840477Y-85279110D01*
X126720890Y-85159523D01*
X126577690Y-85069544D01*
X126418059Y-85013687D01*
X126418058Y-85013686D01*
X126418056Y-85013686D01*
X126250001Y-84994751D01*
X126249999Y-84994751D01*
X126081943Y-85013686D01*
X125922309Y-85069544D01*
X125779110Y-85159523D01*
X125659523Y-85279110D01*
X125569544Y-85422309D01*
X125513686Y-85581943D01*
X125494751Y-85749999D01*
X107305733Y-85749999D01*
X107177690Y-85669544D01*
X107018059Y-85613687D01*
X107018058Y-85613686D01*
X107018056Y-85613686D01*
X106850001Y-85594751D01*
X106849999Y-85594751D01*
X106681943Y-85613686D01*
X106522309Y-85669544D01*
X106379110Y-85759523D01*
X106259523Y-85879110D01*
X106169544Y-86022309D01*
X106113686Y-86181943D01*
X106094751Y-86349999D01*
X86264966Y-86349999D01*
X86264966Y-82749999D01*
X103244751Y-82749999D01*
X103244751Y-82750000D01*
X103263686Y-82918056D01*
X103319544Y-83077690D01*
X103393712Y-83195727D01*
X103416446Y-83269428D01*
X103399283Y-83344623D01*
X103393712Y-83354273D01*
X103319544Y-83472309D01*
X103263686Y-83631943D01*
X103244751Y-83799999D01*
X103244751Y-83800000D01*
X103263686Y-83968056D01*
X103263686Y-83968058D01*
X103263687Y-83968059D01*
X103319544Y-84127690D01*
X103409523Y-84270890D01*
X103529110Y-84390477D01*
X103672310Y-84480456D01*
X103683470Y-84484361D01*
X103747197Y-84527809D01*
X103780661Y-84597299D01*
X103774898Y-84674211D01*
X103731450Y-84737938D01*
X103683470Y-84765639D01*
X103672309Y-84769544D01*
X103529110Y-84859523D01*
X103409523Y-84979110D01*
X103319544Y-85122309D01*
X103263686Y-85281943D01*
X103244751Y-85449999D01*
X103244751Y-85450000D01*
X103263686Y-85618056D01*
X103263686Y-85618058D01*
X103263687Y-85618059D01*
X103319544Y-85777690D01*
X103409523Y-85920890D01*
X103529110Y-86040477D01*
X103672310Y-86130456D01*
X103831941Y-86186313D01*
X103943980Y-86198937D01*
X103999999Y-86205249D01*
X104000000Y-86205249D01*
X104000001Y-86205249D01*
X104042014Y-86200515D01*
X104168059Y-86186313D01*
X104327690Y-86130456D01*
X104470890Y-86040477D01*
X104590477Y-85920890D01*
X104680456Y-85777690D01*
X104736313Y-85618059D01*
X104755249Y-85450000D01*
X104736313Y-85281941D01*
X104680456Y-85122310D01*
X104590477Y-84979110D01*
X104470890Y-84859523D01*
X104353520Y-84785774D01*
X138918966Y-84785774D01*
X138918966Y-84963157D01*
X138953571Y-85137129D01*
X138953572Y-85137133D01*
X139021452Y-85301012D01*
X139021453Y-85301014D01*
X139119999Y-85448497D01*
X139120002Y-85448501D01*
X139245431Y-85573930D01*
X139245434Y-85573932D01*
X139392917Y-85672478D01*
X139392919Y-85672479D01*
X139556800Y-85740360D01*
X139730775Y-85774966D01*
X141008157Y-85774966D01*
X141182132Y-85740360D01*
X141346013Y-85672479D01*
X141493501Y-85573930D01*
X141618930Y-85448501D01*
X141717479Y-85301013D01*
X141785360Y-85137132D01*
X141819966Y-84963157D01*
X141819966Y-84785775D01*
X141816737Y-84769544D01*
X141785360Y-84611802D01*
X141785359Y-84611798D01*
X141779353Y-84597299D01*
X141717479Y-84447919D01*
X141618930Y-84300431D01*
X141493501Y-84175002D01*
X141493494Y-84174997D01*
X141380711Y-84099636D01*
X141329857Y-84041648D01*
X141314811Y-83966002D01*
X141339604Y-83892967D01*
X141358130Y-83870392D01*
X141385324Y-83843199D01*
X141453777Y-83740752D01*
X141500929Y-83626918D01*
X141524966Y-83506072D01*
X141524966Y-83382860D01*
X141500929Y-83262014D01*
X141453777Y-83148180D01*
X141385324Y-83045733D01*
X141298199Y-82958608D01*
X141298195Y-82958605D01*
X141195759Y-82890159D01*
X141195747Y-82890152D01*
X141117021Y-82857543D01*
X141081918Y-82843003D01*
X141081916Y-82843002D01*
X141081915Y-82843002D01*
X140961072Y-82818966D01*
X140837860Y-82818966D01*
X140717016Y-82843002D01*
X140717014Y-82843003D01*
X140603184Y-82890152D01*
X140603172Y-82890159D01*
X140500736Y-82958605D01*
X140500729Y-82958611D01*
X140413611Y-83045729D01*
X140413605Y-83045736D01*
X140345159Y-83148172D01*
X140345152Y-83148184D01*
X140298003Y-83262014D01*
X140298002Y-83262016D01*
X140279652Y-83354273D01*
X140273966Y-83382860D01*
X140273966Y-83506072D01*
X140298003Y-83626918D01*
X140312543Y-83662021D01*
X140345152Y-83740747D01*
X140345157Y-83740755D01*
X140346111Y-83742183D01*
X140346443Y-83743161D01*
X140348606Y-83747208D01*
X140347938Y-83747564D01*
X140370905Y-83815217D01*
X140355860Y-83890863D01*
X140305007Y-83948853D01*
X140231973Y-83973647D01*
X140222224Y-83973966D01*
X139730775Y-83973966D01*
X139556802Y-84008571D01*
X139556798Y-84008572D01*
X139392919Y-84076452D01*
X139392917Y-84076453D01*
X139245434Y-84174999D01*
X139245429Y-84175003D01*
X139120003Y-84300429D01*
X139119999Y-84300434D01*
X139021453Y-84447917D01*
X139021452Y-84447919D01*
X138953572Y-84611798D01*
X138953571Y-84611802D01*
X138918966Y-84785774D01*
X104353520Y-84785774D01*
X104327690Y-84769544D01*
X104327689Y-84769543D01*
X104327688Y-84769543D01*
X104316531Y-84765639D01*
X104252804Y-84722193D01*
X104219338Y-84652703D01*
X104225101Y-84575791D01*
X104268547Y-84512064D01*
X104316531Y-84484361D01*
X104320018Y-84483140D01*
X104327690Y-84480456D01*
X104470890Y-84390477D01*
X104590477Y-84270890D01*
X104680456Y-84127690D01*
X104736313Y-83968059D01*
X104755249Y-83800000D01*
X104736313Y-83631941D01*
X104680456Y-83472310D01*
X104606287Y-83354271D01*
X104583553Y-83280573D01*
X104600715Y-83205378D01*
X104606280Y-83195739D01*
X104680456Y-83077690D01*
X104736313Y-82918059D01*
X104755249Y-82750000D01*
X104736313Y-82581941D01*
X104680456Y-82422310D01*
X104590477Y-82279110D01*
X104470890Y-82159523D01*
X104455733Y-82149999D01*
X128694751Y-82149999D01*
X128694751Y-82150000D01*
X128713686Y-82318056D01*
X128713686Y-82318058D01*
X128713687Y-82318059D01*
X128769544Y-82477690D01*
X128859523Y-82620890D01*
X128979110Y-82740477D01*
X129122310Y-82830456D01*
X129281941Y-82886313D01*
X129393980Y-82898937D01*
X129449999Y-82905249D01*
X129450000Y-82905249D01*
X129450001Y-82905249D01*
X129492014Y-82900515D01*
X129618059Y-82886313D01*
X129777690Y-82830456D01*
X129920890Y-82740477D01*
X130040477Y-82620890D01*
X130130456Y-82477690D01*
X130186313Y-82318059D01*
X130205249Y-82150000D01*
X130186313Y-81981941D01*
X130130456Y-81822310D01*
X130040477Y-81679110D01*
X129920890Y-81559523D01*
X129777690Y-81469544D01*
X129618059Y-81413687D01*
X129618058Y-81413686D01*
X129618056Y-81413686D01*
X129450001Y-81394751D01*
X129449999Y-81394751D01*
X129281943Y-81413686D01*
X129122309Y-81469544D01*
X128979110Y-81559523D01*
X128859523Y-81679110D01*
X128769544Y-81822309D01*
X128713686Y-81981943D01*
X128694751Y-82149999D01*
X104455733Y-82149999D01*
X104327690Y-82069544D01*
X104168059Y-82013687D01*
X104168058Y-82013686D01*
X104168056Y-82013686D01*
X104000001Y-81994751D01*
X103999999Y-81994751D01*
X103831943Y-82013686D01*
X103672309Y-82069544D01*
X103529110Y-82159523D01*
X103409523Y-82279110D01*
X103319544Y-82422309D01*
X103263686Y-82581943D01*
X103244751Y-82749999D01*
X86264966Y-82749999D01*
X86264966Y-79399999D01*
X113194751Y-79399999D01*
X113194751Y-79400000D01*
X113213686Y-79568056D01*
X113213686Y-79568058D01*
X113213687Y-79568059D01*
X113269544Y-79727690D01*
X113359523Y-79870890D01*
X113479110Y-79990477D01*
X113622310Y-80080456D01*
X113781941Y-80136313D01*
X113893980Y-80148937D01*
X113949999Y-80155249D01*
X113950000Y-80155249D01*
X113950001Y-80155249D01*
X113992014Y-80150515D01*
X114118059Y-80136313D01*
X114277690Y-80080456D01*
X114420890Y-79990477D01*
X114540477Y-79870890D01*
X114630456Y-79727690D01*
X114639196Y-79702710D01*
X114682640Y-79638985D01*
X114752129Y-79605519D01*
X114829042Y-79611280D01*
X114885194Y-79646561D01*
X114929110Y-79690477D01*
X115072310Y-79780456D01*
X115231941Y-79836313D01*
X115343980Y-79848937D01*
X115399999Y-79855249D01*
X115400000Y-79855249D01*
X115400001Y-79855249D01*
X115442014Y-79850515D01*
X115568059Y-79836313D01*
X115622987Y-79817092D01*
X115699897Y-79811328D01*
X115769387Y-79844792D01*
X115812835Y-79908518D01*
X115812835Y-79908519D01*
X115819542Y-79927688D01*
X115858995Y-79990476D01*
X115909523Y-80070890D01*
X116029110Y-80190477D01*
X116172310Y-80280456D01*
X116331941Y-80336313D01*
X116443980Y-80348937D01*
X116499999Y-80355249D01*
X116500000Y-80355249D01*
X116500001Y-80355249D01*
X116542014Y-80350515D01*
X116668059Y-80336313D01*
X116827690Y-80280456D01*
X116970890Y-80190477D01*
X117090477Y-80070890D01*
X117180456Y-79927690D01*
X117236313Y-79768059D01*
X117255249Y-79600000D01*
X117248984Y-79544401D01*
X117260478Y-79468138D01*
X117308566Y-79407836D01*
X117380362Y-79379657D01*
X117456629Y-79391151D01*
X117476320Y-79401558D01*
X117522310Y-79430456D01*
X117681941Y-79486313D01*
X117793980Y-79498937D01*
X117849999Y-79505249D01*
X117850000Y-79505249D01*
X117850001Y-79505249D01*
X117892014Y-79500515D01*
X118018059Y-79486313D01*
X118177690Y-79430456D01*
X118320890Y-79340477D01*
X118440477Y-79220890D01*
X118530456Y-79077690D01*
X118586313Y-78918059D01*
X118605249Y-78750000D01*
X118586313Y-78581941D01*
X118530456Y-78422310D01*
X118440477Y-78279110D01*
X118320890Y-78159523D01*
X118177690Y-78069544D01*
X118018059Y-78013687D01*
X118018058Y-78013686D01*
X118018056Y-78013686D01*
X117850001Y-77994751D01*
X117849999Y-77994751D01*
X117681943Y-78013686D01*
X117522309Y-78069544D01*
X117393756Y-78150320D01*
X117379110Y-78159523D01*
X117259523Y-78279110D01*
X117169544Y-78422310D01*
X117163187Y-78440477D01*
X117113686Y-78581943D01*
X117094751Y-78749999D01*
X117094751Y-78750001D01*
X117101015Y-78805596D01*
X117089520Y-78881863D01*
X117041431Y-78942164D01*
X116969635Y-78970342D01*
X116893368Y-78958847D01*
X116873679Y-78948440D01*
X116827694Y-78919545D01*
X116668056Y-78863686D01*
X116500001Y-78844751D01*
X116499999Y-78844751D01*
X116331943Y-78863686D01*
X116331939Y-78863687D01*
X116277012Y-78882907D01*
X116200100Y-78888670D01*
X116130610Y-78855205D01*
X116087163Y-78791478D01*
X116087163Y-78791477D01*
X116080457Y-78772311D01*
X116047301Y-78719544D01*
X115990477Y-78629110D01*
X115870890Y-78509523D01*
X115727690Y-78419544D01*
X115568059Y-78363687D01*
X115568058Y-78363686D01*
X115568056Y-78363686D01*
X115400001Y-78344751D01*
X115399999Y-78344751D01*
X115231943Y-78363686D01*
X115072309Y-78419544D01*
X114929110Y-78509523D01*
X114809523Y-78629110D01*
X114719542Y-78772311D01*
X114710802Y-78797291D01*
X114667354Y-78861017D01*
X114597864Y-78894482D01*
X114520952Y-78888717D01*
X114464805Y-78853438D01*
X114420891Y-78809524D01*
X114420890Y-78809523D01*
X114277690Y-78719544D01*
X114118059Y-78663687D01*
X114118058Y-78663686D01*
X114118056Y-78663686D01*
X113950001Y-78644751D01*
X113949999Y-78644751D01*
X113781943Y-78663686D01*
X113622309Y-78719544D01*
X113479110Y-78809523D01*
X113359523Y-78929110D01*
X113269544Y-79072309D01*
X113213686Y-79231943D01*
X113194751Y-79399999D01*
X86264966Y-79399999D01*
X86264966Y-77849999D01*
X123594751Y-77849999D01*
X123594751Y-77850000D01*
X123613686Y-78018056D01*
X123613686Y-78018058D01*
X123613687Y-78018059D01*
X123669544Y-78177690D01*
X123759523Y-78320890D01*
X123879110Y-78440477D01*
X124022310Y-78530456D01*
X124181941Y-78586313D01*
X124293980Y-78598937D01*
X124349999Y-78605249D01*
X124350000Y-78605249D01*
X124350001Y-78605249D01*
X124392014Y-78600515D01*
X124518059Y-78586313D01*
X124677690Y-78530456D01*
X124820890Y-78440477D01*
X124940477Y-78320890D01*
X125030456Y-78177690D01*
X125057641Y-78099999D01*
X127394751Y-78099999D01*
X127394751Y-78100000D01*
X127413686Y-78268056D01*
X127413686Y-78268058D01*
X127413687Y-78268059D01*
X127469544Y-78427690D01*
X127559523Y-78570890D01*
X127679110Y-78690477D01*
X127822310Y-78780456D01*
X127981941Y-78836313D01*
X128093980Y-78848937D01*
X128149999Y-78855249D01*
X128150000Y-78855249D01*
X128150001Y-78855249D01*
X128192014Y-78850515D01*
X128318059Y-78836313D01*
X128477690Y-78780456D01*
X128620890Y-78690477D01*
X128740477Y-78570890D01*
X128830456Y-78427690D01*
X128886313Y-78268059D01*
X128905249Y-78100000D01*
X128886313Y-77931941D01*
X128830456Y-77772310D01*
X128740477Y-77629110D01*
X128620890Y-77509523D01*
X128477690Y-77419544D01*
X128318059Y-77363687D01*
X128318058Y-77363686D01*
X128318056Y-77363686D01*
X128150001Y-77344751D01*
X128149999Y-77344751D01*
X127981943Y-77363686D01*
X127822309Y-77419544D01*
X127679110Y-77509523D01*
X127559523Y-77629110D01*
X127469544Y-77772309D01*
X127413686Y-77931943D01*
X127394751Y-78099999D01*
X125057641Y-78099999D01*
X125086313Y-78018059D01*
X125105249Y-77850000D01*
X125104901Y-77846915D01*
X125086313Y-77681943D01*
X125086313Y-77681941D01*
X125030456Y-77522310D01*
X124940477Y-77379110D01*
X124820890Y-77259523D01*
X124677690Y-77169544D01*
X124518059Y-77113687D01*
X124518058Y-77113686D01*
X124518056Y-77113686D01*
X124350001Y-77094751D01*
X124349999Y-77094751D01*
X124181943Y-77113686D01*
X124022309Y-77169544D01*
X123879110Y-77259523D01*
X123759523Y-77379110D01*
X123669544Y-77522309D01*
X123613686Y-77681943D01*
X123594751Y-77849999D01*
X86264966Y-77849999D01*
X86264966Y-76499999D01*
X89894751Y-76499999D01*
X89894751Y-76500000D01*
X89913686Y-76668056D01*
X89913686Y-76668058D01*
X89913687Y-76668059D01*
X89969544Y-76827690D01*
X90059523Y-76970890D01*
X90179110Y-77090477D01*
X90322310Y-77180456D01*
X90481941Y-77236313D01*
X90593980Y-77248937D01*
X90649999Y-77255249D01*
X90650000Y-77255249D01*
X90650001Y-77255249D01*
X90692014Y-77250515D01*
X90818059Y-77236313D01*
X90977690Y-77180456D01*
X91120890Y-77090477D01*
X91240477Y-76970890D01*
X91330456Y-76827690D01*
X91386313Y-76668059D01*
X91393982Y-76599999D01*
X111194751Y-76599999D01*
X111194751Y-76600000D01*
X111213686Y-76768056D01*
X111213686Y-76768058D01*
X111213687Y-76768059D01*
X111269544Y-76927690D01*
X111359523Y-77070890D01*
X111479110Y-77190477D01*
X111622310Y-77280456D01*
X111781941Y-77336313D01*
X111893980Y-77348937D01*
X111949999Y-77355249D01*
X111950000Y-77355249D01*
X111950001Y-77355249D01*
X111992014Y-77350515D01*
X112118059Y-77336313D01*
X112277690Y-77280456D01*
X112420890Y-77190477D01*
X112540477Y-77070890D01*
X112630456Y-76927690D01*
X112686313Y-76768059D01*
X112693982Y-76699999D01*
X120494751Y-76699999D01*
X120494751Y-76700000D01*
X120513686Y-76868056D01*
X120513686Y-76868058D01*
X120513687Y-76868059D01*
X120569544Y-77027690D01*
X120659523Y-77170890D01*
X120779110Y-77290477D01*
X120922310Y-77380456D01*
X121081941Y-77436313D01*
X121193980Y-77448937D01*
X121249999Y-77455249D01*
X121250000Y-77455249D01*
X121250001Y-77455249D01*
X121292014Y-77450515D01*
X121418059Y-77436313D01*
X121577690Y-77380456D01*
X121720890Y-77290477D01*
X121840477Y-77170890D01*
X121930456Y-77027690D01*
X121986313Y-76868059D01*
X122005249Y-76700000D01*
X121986313Y-76531941D01*
X121930456Y-76372310D01*
X121840477Y-76229110D01*
X121757141Y-76145774D01*
X138918966Y-76145774D01*
X138918966Y-76323157D01*
X138953571Y-76497129D01*
X138953572Y-76497133D01*
X139021452Y-76661012D01*
X139021453Y-76661014D01*
X139047503Y-76700000D01*
X139120002Y-76808501D01*
X139245431Y-76933930D01*
X139245434Y-76933932D01*
X139392917Y-77032478D01*
X139392919Y-77032479D01*
X139556800Y-77100360D01*
X139730775Y-77134966D01*
X140222224Y-77134966D01*
X140296724Y-77154928D01*
X140351262Y-77209466D01*
X140371224Y-77283966D01*
X140351262Y-77358466D01*
X140346111Y-77366749D01*
X140345157Y-77368176D01*
X140345152Y-77368184D01*
X140298003Y-77482014D01*
X140298002Y-77482016D01*
X140273966Y-77602859D01*
X140273966Y-77602860D01*
X140273966Y-77726072D01*
X140298003Y-77846918D01*
X140299280Y-77850000D01*
X140345152Y-77960747D01*
X140345159Y-77960759D01*
X140367872Y-77994751D01*
X140413608Y-78063199D01*
X140500733Y-78150324D01*
X140500736Y-78150326D01*
X140603172Y-78218772D01*
X140603176Y-78218774D01*
X140603180Y-78218777D01*
X140603181Y-78218777D01*
X140603184Y-78218779D01*
X140632264Y-78230824D01*
X140717014Y-78265929D01*
X140837860Y-78289966D01*
X140961072Y-78289966D01*
X141081918Y-78265929D01*
X141195752Y-78218777D01*
X141298199Y-78150324D01*
X141385324Y-78063199D01*
X141453777Y-77960752D01*
X141500929Y-77846918D01*
X141524966Y-77726072D01*
X141524966Y-77602860D01*
X141500929Y-77482014D01*
X141458862Y-77380455D01*
X141453779Y-77368184D01*
X141453772Y-77368172D01*
X141385326Y-77265736D01*
X141385324Y-77265733D01*
X141358133Y-77238542D01*
X141319569Y-77171747D01*
X141319569Y-77094619D01*
X141358133Y-77027824D01*
X141380712Y-77009294D01*
X141458868Y-76957071D01*
X141493501Y-76933930D01*
X141618930Y-76808501D01*
X141717479Y-76661013D01*
X141785360Y-76497132D01*
X141819966Y-76323157D01*
X141819966Y-76145775D01*
X141785360Y-75971800D01*
X141717479Y-75807919D01*
X141618930Y-75660431D01*
X141493501Y-75535002D01*
X141493497Y-75534999D01*
X141346014Y-75436453D01*
X141346012Y-75436452D01*
X141182133Y-75368572D01*
X141182129Y-75368571D01*
X141008157Y-75333966D01*
X139730775Y-75333966D01*
X139556802Y-75368571D01*
X139556798Y-75368572D01*
X139392919Y-75436452D01*
X139392917Y-75436453D01*
X139245434Y-75534999D01*
X139245429Y-75535003D01*
X139120003Y-75660429D01*
X139119999Y-75660434D01*
X139021453Y-75807917D01*
X139021452Y-75807919D01*
X138953572Y-75971798D01*
X138953571Y-75971802D01*
X138918966Y-76145774D01*
X121757141Y-76145774D01*
X121720890Y-76109523D01*
X121577690Y-76019544D01*
X121418059Y-75963687D01*
X121418058Y-75963686D01*
X121418056Y-75963686D01*
X121250001Y-75944751D01*
X121249999Y-75944751D01*
X121081943Y-75963686D01*
X120922309Y-76019544D01*
X120779110Y-76109523D01*
X120659523Y-76229110D01*
X120569544Y-76372309D01*
X120513686Y-76531943D01*
X120494751Y-76699999D01*
X112693982Y-76699999D01*
X112705249Y-76600000D01*
X112686313Y-76431941D01*
X112630456Y-76272310D01*
X112540477Y-76129110D01*
X112420890Y-76009523D01*
X112277690Y-75919544D01*
X112118059Y-75863687D01*
X112118058Y-75863686D01*
X112118056Y-75863686D01*
X111950001Y-75844751D01*
X111949999Y-75844751D01*
X111781943Y-75863686D01*
X111622309Y-75919544D01*
X111479110Y-76009523D01*
X111359523Y-76129110D01*
X111269544Y-76272309D01*
X111213686Y-76431943D01*
X111194751Y-76599999D01*
X91393982Y-76599999D01*
X91405249Y-76500000D01*
X91386313Y-76331941D01*
X91330456Y-76172310D01*
X91240477Y-76029110D01*
X91120890Y-75909523D01*
X90977690Y-75819544D01*
X90818059Y-75763687D01*
X90818058Y-75763686D01*
X90818056Y-75763686D01*
X90650001Y-75744751D01*
X90649999Y-75744751D01*
X90481943Y-75763686D01*
X90322309Y-75819544D01*
X90179110Y-75909523D01*
X90059523Y-76029110D01*
X89969544Y-76172309D01*
X89913686Y-76331943D01*
X89894751Y-76499999D01*
X86264966Y-76499999D01*
X86264966Y-74249999D01*
X112494751Y-74249999D01*
X112494751Y-74250000D01*
X112513686Y-74418056D01*
X112513686Y-74418058D01*
X112513687Y-74418059D01*
X112569544Y-74577690D01*
X112659523Y-74720890D01*
X112779110Y-74840477D01*
X112922310Y-74930456D01*
X113081941Y-74986313D01*
X113193980Y-74998937D01*
X113249999Y-75005249D01*
X113250000Y-75005249D01*
X113250001Y-75005249D01*
X113292014Y-75000515D01*
X113418059Y-74986313D01*
X113577690Y-74930456D01*
X113720890Y-74840477D01*
X113840477Y-74720890D01*
X113930456Y-74577690D01*
X113986313Y-74418059D01*
X114005249Y-74250000D01*
X113986313Y-74081941D01*
X113940145Y-73949999D01*
X129394751Y-73949999D01*
X129394751Y-73950000D01*
X129413686Y-74118056D01*
X129413686Y-74118058D01*
X129413687Y-74118059D01*
X129469544Y-74277690D01*
X129559523Y-74420890D01*
X129679110Y-74540477D01*
X129822310Y-74630456D01*
X129981941Y-74686313D01*
X130093980Y-74698937D01*
X130149999Y-74705249D01*
X130150000Y-74705249D01*
X130150001Y-74705249D01*
X130192014Y-74700515D01*
X130318059Y-74686313D01*
X130477690Y-74630456D01*
X130620890Y-74540477D01*
X130740477Y-74420890D01*
X130830456Y-74277690D01*
X130886313Y-74118059D01*
X130905249Y-73950000D01*
X130886313Y-73781941D01*
X130830456Y-73622310D01*
X130740477Y-73479110D01*
X130620890Y-73359523D01*
X130477690Y-73269544D01*
X130318059Y-73213687D01*
X130318058Y-73213686D01*
X130318056Y-73213686D01*
X130150001Y-73194751D01*
X130149999Y-73194751D01*
X129981943Y-73213686D01*
X129822309Y-73269544D01*
X129679110Y-73359523D01*
X129559523Y-73479110D01*
X129469544Y-73622309D01*
X129413686Y-73781943D01*
X129394751Y-73949999D01*
X113940145Y-73949999D01*
X113930456Y-73922310D01*
X113840477Y-73779110D01*
X113720890Y-73659523D01*
X113577690Y-73569544D01*
X113418059Y-73513687D01*
X113418058Y-73513686D01*
X113418056Y-73513686D01*
X113250001Y-73494751D01*
X113249999Y-73494751D01*
X113081943Y-73513686D01*
X112922309Y-73569544D01*
X112779110Y-73659523D01*
X112659523Y-73779110D01*
X112569544Y-73922309D01*
X112513686Y-74081943D01*
X112494751Y-74249999D01*
X86264966Y-74249999D01*
X86264966Y-69799999D01*
X133294751Y-69799999D01*
X133294751Y-69800000D01*
X133313686Y-69968056D01*
X133313686Y-69968058D01*
X133313687Y-69968059D01*
X133369544Y-70127690D01*
X133459523Y-70270890D01*
X133579110Y-70390477D01*
X133722310Y-70480456D01*
X133881941Y-70536313D01*
X133993980Y-70548937D01*
X134049999Y-70555249D01*
X134050000Y-70555249D01*
X134050001Y-70555249D01*
X134092014Y-70550515D01*
X134218059Y-70536313D01*
X134377690Y-70480456D01*
X134520890Y-70390477D01*
X134640477Y-70270890D01*
X134730456Y-70127690D01*
X134786313Y-69968059D01*
X134805249Y-69800000D01*
X134786313Y-69631941D01*
X134762525Y-69563961D01*
X134756763Y-69487049D01*
X134790228Y-69417559D01*
X134814878Y-69396349D01*
X134814352Y-69395690D01*
X134820881Y-69390482D01*
X134820890Y-69390477D01*
X134844641Y-69366726D01*
X134911436Y-69328162D01*
X134988564Y-69328162D01*
X135055359Y-69366726D01*
X135079110Y-69390477D01*
X135222310Y-69480456D01*
X135381941Y-69536313D01*
X135493980Y-69548937D01*
X135549999Y-69555249D01*
X135550000Y-69555249D01*
X135550001Y-69555249D01*
X135592014Y-69550515D01*
X135718059Y-69536313D01*
X135877690Y-69480456D01*
X136020890Y-69390477D01*
X136140477Y-69270890D01*
X136230456Y-69127690D01*
X136286313Y-68968059D01*
X136305249Y-68800000D01*
X136286313Y-68631941D01*
X136230456Y-68472310D01*
X136140477Y-68329110D01*
X136020890Y-68209523D01*
X135877690Y-68119544D01*
X135718059Y-68063687D01*
X135718058Y-68063686D01*
X135718056Y-68063686D01*
X135550001Y-68044751D01*
X135549999Y-68044751D01*
X135381943Y-68063686D01*
X135222309Y-68119544D01*
X135079110Y-68209523D01*
X135055359Y-68233274D01*
X134988564Y-68271838D01*
X134911436Y-68271838D01*
X134844641Y-68233274D01*
X134820891Y-68209524D01*
X134820890Y-68209523D01*
X134677690Y-68119544D01*
X134518059Y-68063687D01*
X134518058Y-68063686D01*
X134518056Y-68063686D01*
X134350001Y-68044751D01*
X134349999Y-68044751D01*
X134181943Y-68063686D01*
X134022309Y-68119544D01*
X133879110Y-68209523D01*
X133759523Y-68329110D01*
X133669544Y-68472309D01*
X133613686Y-68631943D01*
X133594751Y-68799999D01*
X133594751Y-68800000D01*
X133613686Y-68968056D01*
X133613687Y-68968060D01*
X133637473Y-69036037D01*
X133643236Y-69112949D01*
X133609771Y-69182439D01*
X133585127Y-69203650D01*
X133585651Y-69204307D01*
X133579109Y-69209524D01*
X133459523Y-69329110D01*
X133369544Y-69472309D01*
X133313686Y-69631943D01*
X133294751Y-69799999D01*
X86264966Y-69799999D01*
X86264966Y-64467710D01*
X86265108Y-64461211D01*
X86266693Y-64424904D01*
X86270405Y-64339895D01*
X89063966Y-64339895D01*
X89063966Y-64589036D01*
X89096482Y-64836023D01*
X89096483Y-64836029D01*
X89096484Y-64836031D01*
X89160964Y-65076673D01*
X89256302Y-65306839D01*
X89380867Y-65522593D01*
X89532528Y-65720242D01*
X89708690Y-65896404D01*
X89906339Y-66048065D01*
X90122093Y-66172630D01*
X90352259Y-66267968D01*
X90592901Y-66332448D01*
X90592907Y-66332448D01*
X90592908Y-66332449D01*
X90660052Y-66341288D01*
X90839901Y-66364966D01*
X91089031Y-66364966D01*
X91336031Y-66332448D01*
X91576673Y-66267968D01*
X91806839Y-66172630D01*
X92022593Y-66048065D01*
X92220242Y-65896404D01*
X92396404Y-65720242D01*
X92548065Y-65522593D01*
X92672630Y-65306839D01*
X92767968Y-65076673D01*
X92832448Y-64836031D01*
X92864966Y-64589031D01*
X92864966Y-64339901D01*
X92864965Y-64339895D01*
X139063966Y-64339895D01*
X139063966Y-64589036D01*
X139096482Y-64836023D01*
X139096483Y-64836029D01*
X139096484Y-64836031D01*
X139160964Y-65076673D01*
X139256302Y-65306839D01*
X139380867Y-65522593D01*
X139532528Y-65720242D01*
X139708690Y-65896404D01*
X139906339Y-66048065D01*
X140122093Y-66172630D01*
X140352259Y-66267968D01*
X140592901Y-66332448D01*
X140592907Y-66332448D01*
X140592908Y-66332449D01*
X140660052Y-66341288D01*
X140839901Y-66364966D01*
X141089031Y-66364966D01*
X141336031Y-66332448D01*
X141576673Y-66267968D01*
X141806839Y-66172630D01*
X142022593Y-66048065D01*
X142220242Y-65896404D01*
X142396404Y-65720242D01*
X142548065Y-65522593D01*
X142672630Y-65306839D01*
X142767968Y-65076673D01*
X142832448Y-64836031D01*
X142864966Y-64589031D01*
X142864966Y-64339901D01*
X142832448Y-64092901D01*
X142767968Y-63852259D01*
X142672630Y-63622093D01*
X142548065Y-63406339D01*
X142396404Y-63208690D01*
X142220242Y-63032528D01*
X142022593Y-62880867D01*
X141950675Y-62839345D01*
X141806843Y-62756304D01*
X141806841Y-62756303D01*
X141806839Y-62756302D01*
X141672014Y-62700455D01*
X141576676Y-62660965D01*
X141576674Y-62660964D01*
X141576673Y-62660964D01*
X141336031Y-62596484D01*
X141336029Y-62596483D01*
X141336023Y-62596482D01*
X141089036Y-62563966D01*
X141089031Y-62563966D01*
X140839901Y-62563966D01*
X140839895Y-62563966D01*
X140592908Y-62596482D01*
X140352255Y-62660965D01*
X140122088Y-62756304D01*
X139906340Y-62880866D01*
X139708688Y-63032529D01*
X139532529Y-63208688D01*
X139380866Y-63406340D01*
X139256304Y-63622088D01*
X139160965Y-63852255D01*
X139096482Y-64092908D01*
X139063966Y-64339895D01*
X92864965Y-64339895D01*
X92832448Y-64092901D01*
X92767968Y-63852259D01*
X92672630Y-63622093D01*
X92548065Y-63406339D01*
X92396404Y-63208690D01*
X92220242Y-63032528D01*
X92022593Y-62880867D01*
X91950675Y-62839345D01*
X91806843Y-62756304D01*
X91806841Y-62756303D01*
X91806839Y-62756302D01*
X91672014Y-62700455D01*
X91576676Y-62660965D01*
X91576674Y-62660964D01*
X91576673Y-62660964D01*
X91336031Y-62596484D01*
X91336029Y-62596483D01*
X91336023Y-62596482D01*
X91089036Y-62563966D01*
X91089031Y-62563966D01*
X90839901Y-62563966D01*
X90839895Y-62563966D01*
X90592908Y-62596482D01*
X90352255Y-62660965D01*
X90122088Y-62756304D01*
X89906340Y-62880866D01*
X89708688Y-63032529D01*
X89532529Y-63208688D01*
X89380866Y-63406340D01*
X89256304Y-63622088D01*
X89160965Y-63852255D01*
X89096482Y-64092908D01*
X89063966Y-64339895D01*
X86270405Y-64339895D01*
X86282565Y-64061371D01*
X86283698Y-64048427D01*
X86283698Y-64048426D01*
X86335516Y-63654834D01*
X86337765Y-63642081D01*
X86423693Y-63254484D01*
X86427053Y-63241945D01*
X86454388Y-63155249D01*
X86546432Y-62863321D01*
X86550860Y-62851156D01*
X86702786Y-62484377D01*
X86708275Y-62472607D01*
X86746072Y-62399999D01*
X111944751Y-62399999D01*
X111944751Y-62400000D01*
X111963686Y-62568056D01*
X111963686Y-62568058D01*
X111963687Y-62568059D01*
X112019544Y-62727690D01*
X112109523Y-62870890D01*
X112229110Y-62990477D01*
X112372310Y-63080456D01*
X112531941Y-63136313D01*
X112643980Y-63148937D01*
X112699999Y-63155249D01*
X112700000Y-63155249D01*
X112700001Y-63155249D01*
X112742014Y-63150515D01*
X112868059Y-63136313D01*
X113027690Y-63080456D01*
X113170890Y-62990477D01*
X113290477Y-62870890D01*
X113380456Y-62727690D01*
X113436313Y-62568059D01*
X113455249Y-62400000D01*
X113436313Y-62231941D01*
X113380456Y-62072310D01*
X113290477Y-61929110D01*
X113170890Y-61809523D01*
X113027690Y-61719544D01*
X112868059Y-61663687D01*
X112868058Y-61663686D01*
X112868056Y-61663686D01*
X112700001Y-61644751D01*
X112699999Y-61644751D01*
X112531943Y-61663686D01*
X112372309Y-61719544D01*
X112229110Y-61809523D01*
X112109523Y-61929110D01*
X112019544Y-62072309D01*
X111963686Y-62231943D01*
X111944751Y-62399999D01*
X86746072Y-62399999D01*
X86833558Y-62231941D01*
X86891584Y-62120473D01*
X86898069Y-62109240D01*
X87111370Y-61774425D01*
X87118821Y-61763785D01*
X87130243Y-61748900D01*
X87360496Y-61448827D01*
X87368820Y-61438907D01*
X87637027Y-61146211D01*
X87646215Y-61137024D01*
X87646236Y-61137005D01*
X87938907Y-60868820D01*
X87948827Y-60860496D01*
X88263799Y-60618811D01*
X88274425Y-60611370D01*
X88609240Y-60398069D01*
X88620473Y-60391584D01*
X88972608Y-60208274D01*
X88984377Y-60202786D01*
X89351156Y-60050860D01*
X89363321Y-60046432D01*
X89741948Y-59927052D01*
X89754492Y-59923691D01*
X90142081Y-59837765D01*
X90154834Y-59835516D01*
X90548433Y-59783697D01*
X90561371Y-59782565D01*
X90961214Y-59765108D01*
X90967713Y-59764966D01*
X91012061Y-59764966D01*
X140916870Y-59764966D01*
X140916873Y-59764967D01*
G37*
%TD.AperFunction*%
%TD*%
M02*
