%TF.GenerationSoftware,KiCad,Pcbnew,8.0.4+dfsg-1*%
%TF.CreationDate,2024-08-03T22:50:01-04:00*%
%TF.ProjectId,Mixed-Signal_Demo_PCB,4d697865-642d-4536-9967-6e616c5f4465,rev?*%
%TF.SameCoordinates,Original*%
%TF.FileFunction,Legend,Bot*%
%TF.FilePolarity,Positive*%
%FSLAX46Y46*%
G04 Gerber Fmt 4.6, Leading zero omitted, Abs format (unit mm)*
G04 Created by KiCad (PCBNEW 8.0.4+dfsg-1) date 2024-08-03 22:50:01*
%MOMM*%
%LPD*%
G01*
G04 APERTURE LIST*
%ADD10C,0.200000*%
%ADD11C,0.100000*%
G04 APERTURE END LIST*
D10*
X94408835Y-64464470D02*
G75*
G02*
X87520105Y-64464470I-3444365J0D01*
G01*
X87520105Y-64464470D02*
G75*
G02*
X94408835Y-64464470I3444365J0D01*
G01*
X144408865Y-129464500D02*
G75*
G02*
X137520135Y-129464500I-3444365J0D01*
G01*
X137520135Y-129464500D02*
G75*
G02*
X144408865Y-129464500I3444365J0D01*
G01*
X94408865Y-129464500D02*
G75*
G02*
X87520135Y-129464500I-3444365J0D01*
G01*
X87520135Y-129464500D02*
G75*
G02*
X94408865Y-129464500I3444365J0D01*
G01*
X144408865Y-64464500D02*
G75*
G02*
X137520135Y-64464500I-3444365J0D01*
G01*
X137520135Y-64464500D02*
G75*
G02*
X144408865Y-64464500I3444365J0D01*
G01*
D11*
X130619925Y-132672419D02*
X131096115Y-132672419D01*
X131096115Y-132672419D02*
X131143734Y-133148609D01*
X131143734Y-133148609D02*
X131096115Y-133100990D01*
X131096115Y-133100990D02*
X131000877Y-133053371D01*
X131000877Y-133053371D02*
X130762782Y-133053371D01*
X130762782Y-133053371D02*
X130667544Y-133100990D01*
X130667544Y-133100990D02*
X130619925Y-133148609D01*
X130619925Y-133148609D02*
X130572306Y-133243847D01*
X130572306Y-133243847D02*
X130572306Y-133481942D01*
X130572306Y-133481942D02*
X130619925Y-133577180D01*
X130619925Y-133577180D02*
X130667544Y-133624800D01*
X130667544Y-133624800D02*
X130762782Y-133672419D01*
X130762782Y-133672419D02*
X131000877Y-133672419D01*
X131000877Y-133672419D02*
X131096115Y-133624800D01*
X131096115Y-133624800D02*
X131143734Y-133577180D01*
X129953258Y-132672419D02*
X129858020Y-132672419D01*
X129858020Y-132672419D02*
X129762782Y-132720038D01*
X129762782Y-132720038D02*
X129715163Y-132767657D01*
X129715163Y-132767657D02*
X129667544Y-132862895D01*
X129667544Y-132862895D02*
X129619925Y-133053371D01*
X129619925Y-133053371D02*
X129619925Y-133291466D01*
X129619925Y-133291466D02*
X129667544Y-133481942D01*
X129667544Y-133481942D02*
X129715163Y-133577180D01*
X129715163Y-133577180D02*
X129762782Y-133624800D01*
X129762782Y-133624800D02*
X129858020Y-133672419D01*
X129858020Y-133672419D02*
X129953258Y-133672419D01*
X129953258Y-133672419D02*
X130048496Y-133624800D01*
X130048496Y-133624800D02*
X130096115Y-133577180D01*
X130096115Y-133577180D02*
X130143734Y-133481942D01*
X130143734Y-133481942D02*
X130191353Y-133291466D01*
X130191353Y-133291466D02*
X130191353Y-133053371D01*
X130191353Y-133053371D02*
X130143734Y-132862895D01*
X130143734Y-132862895D02*
X130096115Y-132767657D01*
X130096115Y-132767657D02*
X130048496Y-132720038D01*
X130048496Y-132720038D02*
X129953258Y-132672419D01*
X128238972Y-132672419D02*
X128048496Y-132672419D01*
X128048496Y-132672419D02*
X127953258Y-132720038D01*
X127953258Y-132720038D02*
X127858020Y-132815276D01*
X127858020Y-132815276D02*
X127810401Y-133005752D01*
X127810401Y-133005752D02*
X127810401Y-133339085D01*
X127810401Y-133339085D02*
X127858020Y-133529561D01*
X127858020Y-133529561D02*
X127953258Y-133624800D01*
X127953258Y-133624800D02*
X128048496Y-133672419D01*
X128048496Y-133672419D02*
X128238972Y-133672419D01*
X128238972Y-133672419D02*
X128334210Y-133624800D01*
X128334210Y-133624800D02*
X128429448Y-133529561D01*
X128429448Y-133529561D02*
X128477067Y-133339085D01*
X128477067Y-133339085D02*
X128477067Y-133005752D01*
X128477067Y-133005752D02*
X128429448Y-132815276D01*
X128429448Y-132815276D02*
X128334210Y-132720038D01*
X128334210Y-132720038D02*
X128238972Y-132672419D01*
X127381829Y-133672419D02*
X127381829Y-132672419D01*
X126953258Y-133672419D02*
X126953258Y-133148609D01*
X126953258Y-133148609D02*
X127000877Y-133053371D01*
X127000877Y-133053371D02*
X127096115Y-133005752D01*
X127096115Y-133005752D02*
X127238972Y-133005752D01*
X127238972Y-133005752D02*
X127334210Y-133053371D01*
X127334210Y-133053371D02*
X127381829Y-133100990D01*
X126477067Y-133672419D02*
X126477067Y-133005752D01*
X126477067Y-133100990D02*
X126429448Y-133053371D01*
X126429448Y-133053371D02*
X126334210Y-133005752D01*
X126334210Y-133005752D02*
X126191353Y-133005752D01*
X126191353Y-133005752D02*
X126096115Y-133053371D01*
X126096115Y-133053371D02*
X126048496Y-133148609D01*
X126048496Y-133148609D02*
X126048496Y-133672419D01*
X126048496Y-133148609D02*
X126000877Y-133053371D01*
X126000877Y-133053371D02*
X125905639Y-133005752D01*
X125905639Y-133005752D02*
X125762782Y-133005752D01*
X125762782Y-133005752D02*
X125667543Y-133053371D01*
X125667543Y-133053371D02*
X125619924Y-133148609D01*
X125619924Y-133148609D02*
X125619924Y-133672419D01*
X107672306Y-120720038D02*
X107767544Y-120672419D01*
X107767544Y-120672419D02*
X107910401Y-120672419D01*
X107910401Y-120672419D02*
X108053258Y-120720038D01*
X108053258Y-120720038D02*
X108148496Y-120815276D01*
X108148496Y-120815276D02*
X108196115Y-120910514D01*
X108196115Y-120910514D02*
X108243734Y-121100990D01*
X108243734Y-121100990D02*
X108243734Y-121243847D01*
X108243734Y-121243847D02*
X108196115Y-121434323D01*
X108196115Y-121434323D02*
X108148496Y-121529561D01*
X108148496Y-121529561D02*
X108053258Y-121624800D01*
X108053258Y-121624800D02*
X107910401Y-121672419D01*
X107910401Y-121672419D02*
X107815163Y-121672419D01*
X107815163Y-121672419D02*
X107672306Y-121624800D01*
X107672306Y-121624800D02*
X107624687Y-121577180D01*
X107624687Y-121577180D02*
X107624687Y-121243847D01*
X107624687Y-121243847D02*
X107815163Y-121243847D01*
X102143734Y-121624800D02*
X102000877Y-121672419D01*
X102000877Y-121672419D02*
X101762782Y-121672419D01*
X101762782Y-121672419D02*
X101667544Y-121624800D01*
X101667544Y-121624800D02*
X101619925Y-121577180D01*
X101619925Y-121577180D02*
X101572306Y-121481942D01*
X101572306Y-121481942D02*
X101572306Y-121386704D01*
X101572306Y-121386704D02*
X101619925Y-121291466D01*
X101619925Y-121291466D02*
X101667544Y-121243847D01*
X101667544Y-121243847D02*
X101762782Y-121196228D01*
X101762782Y-121196228D02*
X101953258Y-121148609D01*
X101953258Y-121148609D02*
X102048496Y-121100990D01*
X102048496Y-121100990D02*
X102096115Y-121053371D01*
X102096115Y-121053371D02*
X102143734Y-120958133D01*
X102143734Y-120958133D02*
X102143734Y-120862895D01*
X102143734Y-120862895D02*
X102096115Y-120767657D01*
X102096115Y-120767657D02*
X102048496Y-120720038D01*
X102048496Y-120720038D02*
X101953258Y-120672419D01*
X101953258Y-120672419D02*
X101715163Y-120672419D01*
X101715163Y-120672419D02*
X101572306Y-120720038D01*
X127143734Y-121624800D02*
X127000877Y-121672419D01*
X127000877Y-121672419D02*
X126762782Y-121672419D01*
X126762782Y-121672419D02*
X126667544Y-121624800D01*
X126667544Y-121624800D02*
X126619925Y-121577180D01*
X126619925Y-121577180D02*
X126572306Y-121481942D01*
X126572306Y-121481942D02*
X126572306Y-121386704D01*
X126572306Y-121386704D02*
X126619925Y-121291466D01*
X126619925Y-121291466D02*
X126667544Y-121243847D01*
X126667544Y-121243847D02*
X126762782Y-121196228D01*
X126762782Y-121196228D02*
X126953258Y-121148609D01*
X126953258Y-121148609D02*
X127048496Y-121100990D01*
X127048496Y-121100990D02*
X127096115Y-121053371D01*
X127096115Y-121053371D02*
X127143734Y-120958133D01*
X127143734Y-120958133D02*
X127143734Y-120862895D01*
X127143734Y-120862895D02*
X127096115Y-120767657D01*
X127096115Y-120767657D02*
X127048496Y-120720038D01*
X127048496Y-120720038D02*
X126953258Y-120672419D01*
X126953258Y-120672419D02*
X126715163Y-120672419D01*
X126715163Y-120672419D02*
X126572306Y-120720038D01*
X105672306Y-133772419D02*
X106243734Y-133772419D01*
X105958020Y-133772419D02*
X105958020Y-132772419D01*
X105958020Y-132772419D02*
X106053258Y-132915276D01*
X106053258Y-132915276D02*
X106148496Y-133010514D01*
X106148496Y-133010514D02*
X106243734Y-133058133D01*
X104481829Y-133772419D02*
X104481829Y-132772419D01*
X104481829Y-132772419D02*
X104148496Y-133486704D01*
X104148496Y-133486704D02*
X103815163Y-132772419D01*
X103815163Y-132772419D02*
X103815163Y-133772419D01*
X103148496Y-132772419D02*
X102958020Y-132772419D01*
X102958020Y-132772419D02*
X102862782Y-132820038D01*
X102862782Y-132820038D02*
X102767544Y-132915276D01*
X102767544Y-132915276D02*
X102719925Y-133105752D01*
X102719925Y-133105752D02*
X102719925Y-133439085D01*
X102719925Y-133439085D02*
X102767544Y-133629561D01*
X102767544Y-133629561D02*
X102862782Y-133724800D01*
X102862782Y-133724800D02*
X102958020Y-133772419D01*
X102958020Y-133772419D02*
X103148496Y-133772419D01*
X103148496Y-133772419D02*
X103243734Y-133724800D01*
X103243734Y-133724800D02*
X103338972Y-133629561D01*
X103338972Y-133629561D02*
X103386591Y-133439085D01*
X103386591Y-133439085D02*
X103386591Y-133105752D01*
X103386591Y-133105752D02*
X103338972Y-132915276D01*
X103338972Y-132915276D02*
X103243734Y-132820038D01*
X103243734Y-132820038D02*
X103148496Y-132772419D01*
X102291353Y-133772419D02*
X102291353Y-132772419D01*
X101862782Y-133772419D02*
X101862782Y-133248609D01*
X101862782Y-133248609D02*
X101910401Y-133153371D01*
X101910401Y-133153371D02*
X102005639Y-133105752D01*
X102005639Y-133105752D02*
X102148496Y-133105752D01*
X102148496Y-133105752D02*
X102243734Y-133153371D01*
X102243734Y-133153371D02*
X102291353Y-133200990D01*
X101386591Y-133772419D02*
X101386591Y-133105752D01*
X101386591Y-133200990D02*
X101338972Y-133153371D01*
X101338972Y-133153371D02*
X101243734Y-133105752D01*
X101243734Y-133105752D02*
X101100877Y-133105752D01*
X101100877Y-133105752D02*
X101005639Y-133153371D01*
X101005639Y-133153371D02*
X100958020Y-133248609D01*
X100958020Y-133248609D02*
X100958020Y-133772419D01*
X100958020Y-133248609D02*
X100910401Y-133153371D01*
X100910401Y-133153371D02*
X100815163Y-133105752D01*
X100815163Y-133105752D02*
X100672306Y-133105752D01*
X100672306Y-133105752D02*
X100577067Y-133153371D01*
X100577067Y-133153371D02*
X100529448Y-133248609D01*
X100529448Y-133248609D02*
X100529448Y-133772419D01*
X132672306Y-120820038D02*
X132767544Y-120772419D01*
X132767544Y-120772419D02*
X132910401Y-120772419D01*
X132910401Y-120772419D02*
X133053258Y-120820038D01*
X133053258Y-120820038D02*
X133148496Y-120915276D01*
X133148496Y-120915276D02*
X133196115Y-121010514D01*
X133196115Y-121010514D02*
X133243734Y-121200990D01*
X133243734Y-121200990D02*
X133243734Y-121343847D01*
X133243734Y-121343847D02*
X133196115Y-121534323D01*
X133196115Y-121534323D02*
X133148496Y-121629561D01*
X133148496Y-121629561D02*
X133053258Y-121724800D01*
X133053258Y-121724800D02*
X132910401Y-121772419D01*
X132910401Y-121772419D02*
X132815163Y-121772419D01*
X132815163Y-121772419D02*
X132672306Y-121724800D01*
X132672306Y-121724800D02*
X132624687Y-121677180D01*
X132624687Y-121677180D02*
X132624687Y-121343847D01*
X132624687Y-121343847D02*
X132815163Y-121343847D01*
M02*
