%TF.GenerationSoftware,KiCad,Pcbnew,8.0.4+dfsg-1*%
%TF.CreationDate,2024-08-03T22:50:01-04:00*%
%TF.ProjectId,Mixed-Signal_Demo_PCB,4d697865-642d-4536-9967-6e616c5f4465,rev?*%
%TF.SameCoordinates,Original*%
%TF.FileFunction,Legend,Top*%
%TF.FilePolarity,Positive*%
%FSLAX46Y46*%
G04 Gerber Fmt 4.6, Leading zero omitted, Abs format (unit mm)*
G04 Created by KiCad (PCBNEW 8.0.4+dfsg-1) date 2024-08-03 22:50:01*
%MOMM*%
%LPD*%
G01*
G04 APERTURE LIST*
%ADD10C,0.200000*%
%ADD11C,0.100000*%
%ADD12C,0.120000*%
G04 APERTURE END LIST*
D10*
X144408865Y-129464500D02*
G75*
G02*
X137520135Y-129464500I-3444365J0D01*
G01*
X137520135Y-129464500D02*
G75*
G02*
X144408865Y-129464500I3444365J0D01*
G01*
D11*
X86500000Y-98200000D02*
X96600000Y-98200000D01*
D10*
X144408865Y-64464500D02*
G75*
G02*
X137520135Y-64464500I-3444365J0D01*
G01*
X137520135Y-64464500D02*
G75*
G02*
X144408865Y-64464500I3444365J0D01*
G01*
X94408831Y-64464466D02*
G75*
G02*
X87520101Y-64464466I-3444365J0D01*
G01*
X87520101Y-64464466D02*
G75*
G02*
X94408831Y-64464466I3444365J0D01*
G01*
X94408865Y-129464500D02*
G75*
G02*
X87520135Y-129464500I-3444365J0D01*
G01*
X87520135Y-129464500D02*
G75*
G02*
X94408865Y-129464500I3444365J0D01*
G01*
D11*
X119300000Y-98200000D02*
X123600000Y-98200000D01*
X104300000Y-98200000D02*
X115300000Y-98200000D01*
X130800000Y-98200000D02*
X145500000Y-98200000D01*
X108556265Y-115367657D02*
X108603884Y-115320038D01*
X108603884Y-115320038D02*
X108699122Y-115272419D01*
X108699122Y-115272419D02*
X108937217Y-115272419D01*
X108937217Y-115272419D02*
X109032455Y-115320038D01*
X109032455Y-115320038D02*
X109080074Y-115367657D01*
X109080074Y-115367657D02*
X109127693Y-115462895D01*
X109127693Y-115462895D02*
X109127693Y-115558133D01*
X109127693Y-115558133D02*
X109080074Y-115700990D01*
X109080074Y-115700990D02*
X108508646Y-116272419D01*
X108508646Y-116272419D02*
X109127693Y-116272419D01*
X109746741Y-115272419D02*
X109841979Y-115272419D01*
X109841979Y-115272419D02*
X109937217Y-115320038D01*
X109937217Y-115320038D02*
X109984836Y-115367657D01*
X109984836Y-115367657D02*
X110032455Y-115462895D01*
X110032455Y-115462895D02*
X110080074Y-115653371D01*
X110080074Y-115653371D02*
X110080074Y-115891466D01*
X110080074Y-115891466D02*
X110032455Y-116081942D01*
X110032455Y-116081942D02*
X109984836Y-116177180D01*
X109984836Y-116177180D02*
X109937217Y-116224800D01*
X109937217Y-116224800D02*
X109841979Y-116272419D01*
X109841979Y-116272419D02*
X109746741Y-116272419D01*
X109746741Y-116272419D02*
X109651503Y-116224800D01*
X109651503Y-116224800D02*
X109603884Y-116177180D01*
X109603884Y-116177180D02*
X109556265Y-116081942D01*
X109556265Y-116081942D02*
X109508646Y-115891466D01*
X109508646Y-115891466D02*
X109508646Y-115653371D01*
X109508646Y-115653371D02*
X109556265Y-115462895D01*
X109556265Y-115462895D02*
X109603884Y-115367657D01*
X109603884Y-115367657D02*
X109651503Y-115320038D01*
X109651503Y-115320038D02*
X109746741Y-115272419D01*
X110508646Y-116272419D02*
X110508646Y-115272419D01*
X110508646Y-115748609D02*
X111080074Y-115748609D01*
X111080074Y-116272419D02*
X111080074Y-115272419D01*
X111461027Y-115605752D02*
X111984836Y-115605752D01*
X111984836Y-115605752D02*
X111461027Y-116272419D01*
X111461027Y-116272419D02*
X111984836Y-116272419D01*
X113889599Y-115605752D02*
X113127694Y-115891466D01*
X113127694Y-115891466D02*
X113889599Y-116177180D01*
X115461027Y-115748609D02*
X115603884Y-115796228D01*
X115603884Y-115796228D02*
X115651503Y-115843847D01*
X115651503Y-115843847D02*
X115699122Y-115939085D01*
X115699122Y-115939085D02*
X115699122Y-116081942D01*
X115699122Y-116081942D02*
X115651503Y-116177180D01*
X115651503Y-116177180D02*
X115603884Y-116224800D01*
X115603884Y-116224800D02*
X115508646Y-116272419D01*
X115508646Y-116272419D02*
X115127694Y-116272419D01*
X115127694Y-116272419D02*
X115127694Y-115272419D01*
X115127694Y-115272419D02*
X115461027Y-115272419D01*
X115461027Y-115272419D02*
X115556265Y-115320038D01*
X115556265Y-115320038D02*
X115603884Y-115367657D01*
X115603884Y-115367657D02*
X115651503Y-115462895D01*
X115651503Y-115462895D02*
X115651503Y-115558133D01*
X115651503Y-115558133D02*
X115603884Y-115653371D01*
X115603884Y-115653371D02*
X115556265Y-115700990D01*
X115556265Y-115700990D02*
X115461027Y-115748609D01*
X115461027Y-115748609D02*
X115127694Y-115748609D01*
X116032456Y-115272419D02*
X116270551Y-116272419D01*
X116270551Y-116272419D02*
X116461027Y-115558133D01*
X116461027Y-115558133D02*
X116651503Y-116272419D01*
X116651503Y-116272419D02*
X116889599Y-115272419D01*
X118794361Y-115605752D02*
X118032456Y-115891466D01*
X118032456Y-115891466D02*
X118794361Y-116177180D01*
X119984837Y-115367657D02*
X120032456Y-115320038D01*
X120032456Y-115320038D02*
X120127694Y-115272419D01*
X120127694Y-115272419D02*
X120365789Y-115272419D01*
X120365789Y-115272419D02*
X120461027Y-115320038D01*
X120461027Y-115320038D02*
X120508646Y-115367657D01*
X120508646Y-115367657D02*
X120556265Y-115462895D01*
X120556265Y-115462895D02*
X120556265Y-115558133D01*
X120556265Y-115558133D02*
X120508646Y-115700990D01*
X120508646Y-115700990D02*
X119937218Y-116272419D01*
X119937218Y-116272419D02*
X120556265Y-116272419D01*
X121175313Y-115272419D02*
X121270551Y-115272419D01*
X121270551Y-115272419D02*
X121365789Y-115320038D01*
X121365789Y-115320038D02*
X121413408Y-115367657D01*
X121413408Y-115367657D02*
X121461027Y-115462895D01*
X121461027Y-115462895D02*
X121508646Y-115653371D01*
X121508646Y-115653371D02*
X121508646Y-115891466D01*
X121508646Y-115891466D02*
X121461027Y-116081942D01*
X121461027Y-116081942D02*
X121413408Y-116177180D01*
X121413408Y-116177180D02*
X121365789Y-116224800D01*
X121365789Y-116224800D02*
X121270551Y-116272419D01*
X121270551Y-116272419D02*
X121175313Y-116272419D01*
X121175313Y-116272419D02*
X121080075Y-116224800D01*
X121080075Y-116224800D02*
X121032456Y-116177180D01*
X121032456Y-116177180D02*
X120984837Y-116081942D01*
X120984837Y-116081942D02*
X120937218Y-115891466D01*
X120937218Y-115891466D02*
X120937218Y-115653371D01*
X120937218Y-115653371D02*
X120984837Y-115462895D01*
X120984837Y-115462895D02*
X121032456Y-115367657D01*
X121032456Y-115367657D02*
X121080075Y-115320038D01*
X121080075Y-115320038D02*
X121175313Y-115272419D01*
X121937218Y-116272419D02*
X121937218Y-115272419D01*
X122032456Y-115891466D02*
X122318170Y-116272419D01*
X122318170Y-115605752D02*
X121937218Y-115986704D01*
X122746742Y-116272419D02*
X122746742Y-115272419D01*
X122746742Y-115748609D02*
X123318170Y-115748609D01*
X123318170Y-116272419D02*
X123318170Y-115272419D01*
X123699123Y-115605752D02*
X124222932Y-115605752D01*
X124222932Y-115605752D02*
X123699123Y-116272419D01*
X123699123Y-116272419D02*
X124222932Y-116272419D01*
X113976190Y-89552447D02*
X113642857Y-89076256D01*
X113404762Y-89552447D02*
X113404762Y-88552447D01*
X113404762Y-88552447D02*
X113785714Y-88552447D01*
X113785714Y-88552447D02*
X113880952Y-88600066D01*
X113880952Y-88600066D02*
X113928571Y-88647685D01*
X113928571Y-88647685D02*
X113976190Y-88742923D01*
X113976190Y-88742923D02*
X113976190Y-88885780D01*
X113976190Y-88885780D02*
X113928571Y-88981018D01*
X113928571Y-88981018D02*
X113880952Y-89028637D01*
X113880952Y-89028637D02*
X113785714Y-89076256D01*
X113785714Y-89076256D02*
X113404762Y-89076256D01*
X114976190Y-89457208D02*
X114928571Y-89504828D01*
X114928571Y-89504828D02*
X114785714Y-89552447D01*
X114785714Y-89552447D02*
X114690476Y-89552447D01*
X114690476Y-89552447D02*
X114547619Y-89504828D01*
X114547619Y-89504828D02*
X114452381Y-89409589D01*
X114452381Y-89409589D02*
X114404762Y-89314351D01*
X114404762Y-89314351D02*
X114357143Y-89123875D01*
X114357143Y-89123875D02*
X114357143Y-88981018D01*
X114357143Y-88981018D02*
X114404762Y-88790542D01*
X114404762Y-88790542D02*
X114452381Y-88695304D01*
X114452381Y-88695304D02*
X114547619Y-88600066D01*
X114547619Y-88600066D02*
X114690476Y-88552447D01*
X114690476Y-88552447D02*
X114785714Y-88552447D01*
X114785714Y-88552447D02*
X114928571Y-88600066D01*
X114928571Y-88600066D02*
X114976190Y-88647685D01*
X116309524Y-88981018D02*
X116214286Y-88933399D01*
X116214286Y-88933399D02*
X116166667Y-88885780D01*
X116166667Y-88885780D02*
X116119048Y-88790542D01*
X116119048Y-88790542D02*
X116119048Y-88742923D01*
X116119048Y-88742923D02*
X116166667Y-88647685D01*
X116166667Y-88647685D02*
X116214286Y-88600066D01*
X116214286Y-88600066D02*
X116309524Y-88552447D01*
X116309524Y-88552447D02*
X116500000Y-88552447D01*
X116500000Y-88552447D02*
X116595238Y-88600066D01*
X116595238Y-88600066D02*
X116642857Y-88647685D01*
X116642857Y-88647685D02*
X116690476Y-88742923D01*
X116690476Y-88742923D02*
X116690476Y-88790542D01*
X116690476Y-88790542D02*
X116642857Y-88885780D01*
X116642857Y-88885780D02*
X116595238Y-88933399D01*
X116595238Y-88933399D02*
X116500000Y-88981018D01*
X116500000Y-88981018D02*
X116309524Y-88981018D01*
X116309524Y-88981018D02*
X116214286Y-89028637D01*
X116214286Y-89028637D02*
X116166667Y-89076256D01*
X116166667Y-89076256D02*
X116119048Y-89171494D01*
X116119048Y-89171494D02*
X116119048Y-89361970D01*
X116119048Y-89361970D02*
X116166667Y-89457208D01*
X116166667Y-89457208D02*
X116214286Y-89504828D01*
X116214286Y-89504828D02*
X116309524Y-89552447D01*
X116309524Y-89552447D02*
X116500000Y-89552447D01*
X116500000Y-89552447D02*
X116595238Y-89504828D01*
X116595238Y-89504828D02*
X116642857Y-89457208D01*
X116642857Y-89457208D02*
X116690476Y-89361970D01*
X116690476Y-89361970D02*
X116690476Y-89171494D01*
X116690476Y-89171494D02*
X116642857Y-89076256D01*
X116642857Y-89076256D02*
X116595238Y-89028637D01*
X116595238Y-89028637D02*
X116500000Y-88981018D01*
X117833333Y-88504828D02*
X116976191Y-89790542D01*
X118119048Y-88647685D02*
X118166667Y-88600066D01*
X118166667Y-88600066D02*
X118261905Y-88552447D01*
X118261905Y-88552447D02*
X118500000Y-88552447D01*
X118500000Y-88552447D02*
X118595238Y-88600066D01*
X118595238Y-88600066D02*
X118642857Y-88647685D01*
X118642857Y-88647685D02*
X118690476Y-88742923D01*
X118690476Y-88742923D02*
X118690476Y-88838161D01*
X118690476Y-88838161D02*
X118642857Y-88981018D01*
X118642857Y-88981018D02*
X118071429Y-89552447D01*
X118071429Y-89552447D02*
X118690476Y-89552447D01*
X119547619Y-88885780D02*
X119547619Y-89552447D01*
X119309524Y-88504828D02*
X119071429Y-89219113D01*
X119071429Y-89219113D02*
X119690476Y-89219113D01*
X115119047Y-91162391D02*
X114785714Y-90686200D01*
X114547619Y-91162391D02*
X114547619Y-90162391D01*
X114547619Y-90162391D02*
X114928571Y-90162391D01*
X114928571Y-90162391D02*
X115023809Y-90210010D01*
X115023809Y-90210010D02*
X115071428Y-90257629D01*
X115071428Y-90257629D02*
X115119047Y-90352867D01*
X115119047Y-90352867D02*
X115119047Y-90495724D01*
X115119047Y-90495724D02*
X115071428Y-90590962D01*
X115071428Y-90590962D02*
X115023809Y-90638581D01*
X115023809Y-90638581D02*
X114928571Y-90686200D01*
X114928571Y-90686200D02*
X114547619Y-90686200D01*
X115547619Y-90638581D02*
X115880952Y-90638581D01*
X116023809Y-91162391D02*
X115547619Y-91162391D01*
X115547619Y-91162391D02*
X115547619Y-90162391D01*
X115547619Y-90162391D02*
X116023809Y-90162391D01*
X116309524Y-90162391D02*
X116642857Y-91162391D01*
X116642857Y-91162391D02*
X116976190Y-90162391D01*
X118023810Y-90876676D02*
X118500000Y-90876676D01*
X117928572Y-91162391D02*
X118261905Y-90162391D01*
X118261905Y-90162391D02*
X118595238Y-91162391D01*
X133690476Y-101462475D02*
X133690476Y-100462475D01*
X133690476Y-100462475D02*
X134023809Y-101176760D01*
X134023809Y-101176760D02*
X134357142Y-100462475D01*
X134357142Y-100462475D02*
X134357142Y-101462475D01*
X134833333Y-101462475D02*
X134833333Y-100795808D01*
X134833333Y-100462475D02*
X134785714Y-100510094D01*
X134785714Y-100510094D02*
X134833333Y-100557713D01*
X134833333Y-100557713D02*
X134880952Y-100510094D01*
X134880952Y-100510094D02*
X134833333Y-100462475D01*
X134833333Y-100462475D02*
X134833333Y-100557713D01*
X135214285Y-101462475D02*
X135738094Y-100795808D01*
X135214285Y-100795808D02*
X135738094Y-101462475D01*
X136499999Y-101414856D02*
X136404761Y-101462475D01*
X136404761Y-101462475D02*
X136214285Y-101462475D01*
X136214285Y-101462475D02*
X136119047Y-101414856D01*
X136119047Y-101414856D02*
X136071428Y-101319617D01*
X136071428Y-101319617D02*
X136071428Y-100938665D01*
X136071428Y-100938665D02*
X136119047Y-100843427D01*
X136119047Y-100843427D02*
X136214285Y-100795808D01*
X136214285Y-100795808D02*
X136404761Y-100795808D01*
X136404761Y-100795808D02*
X136499999Y-100843427D01*
X136499999Y-100843427D02*
X136547618Y-100938665D01*
X136547618Y-100938665D02*
X136547618Y-101033903D01*
X136547618Y-101033903D02*
X136071428Y-101129141D01*
X137404761Y-101462475D02*
X137404761Y-100462475D01*
X137404761Y-101414856D02*
X137309523Y-101462475D01*
X137309523Y-101462475D02*
X137119047Y-101462475D01*
X137119047Y-101462475D02*
X137023809Y-101414856D01*
X137023809Y-101414856D02*
X136976190Y-101367236D01*
X136976190Y-101367236D02*
X136928571Y-101271998D01*
X136928571Y-101271998D02*
X136928571Y-100986284D01*
X136928571Y-100986284D02*
X136976190Y-100891046D01*
X136976190Y-100891046D02*
X137023809Y-100843427D01*
X137023809Y-100843427D02*
X137119047Y-100795808D01*
X137119047Y-100795808D02*
X137309523Y-100795808D01*
X137309523Y-100795808D02*
X137404761Y-100843427D01*
X137880952Y-101081522D02*
X138642857Y-101081522D01*
X139071428Y-101414856D02*
X139214285Y-101462475D01*
X139214285Y-101462475D02*
X139452380Y-101462475D01*
X139452380Y-101462475D02*
X139547618Y-101414856D01*
X139547618Y-101414856D02*
X139595237Y-101367236D01*
X139595237Y-101367236D02*
X139642856Y-101271998D01*
X139642856Y-101271998D02*
X139642856Y-101176760D01*
X139642856Y-101176760D02*
X139595237Y-101081522D01*
X139595237Y-101081522D02*
X139547618Y-101033903D01*
X139547618Y-101033903D02*
X139452380Y-100986284D01*
X139452380Y-100986284D02*
X139261904Y-100938665D01*
X139261904Y-100938665D02*
X139166666Y-100891046D01*
X139166666Y-100891046D02*
X139119047Y-100843427D01*
X139119047Y-100843427D02*
X139071428Y-100748189D01*
X139071428Y-100748189D02*
X139071428Y-100652951D01*
X139071428Y-100652951D02*
X139119047Y-100557713D01*
X139119047Y-100557713D02*
X139166666Y-100510094D01*
X139166666Y-100510094D02*
X139261904Y-100462475D01*
X139261904Y-100462475D02*
X139499999Y-100462475D01*
X139499999Y-100462475D02*
X139642856Y-100510094D01*
X140071428Y-101462475D02*
X140071428Y-100795808D01*
X140071428Y-100462475D02*
X140023809Y-100510094D01*
X140023809Y-100510094D02*
X140071428Y-100557713D01*
X140071428Y-100557713D02*
X140119047Y-100510094D01*
X140119047Y-100510094D02*
X140071428Y-100462475D01*
X140071428Y-100462475D02*
X140071428Y-100557713D01*
X140976189Y-100795808D02*
X140976189Y-101605332D01*
X140976189Y-101605332D02*
X140928570Y-101700570D01*
X140928570Y-101700570D02*
X140880951Y-101748189D01*
X140880951Y-101748189D02*
X140785713Y-101795808D01*
X140785713Y-101795808D02*
X140642856Y-101795808D01*
X140642856Y-101795808D02*
X140547618Y-101748189D01*
X140976189Y-101414856D02*
X140880951Y-101462475D01*
X140880951Y-101462475D02*
X140690475Y-101462475D01*
X140690475Y-101462475D02*
X140595237Y-101414856D01*
X140595237Y-101414856D02*
X140547618Y-101367236D01*
X140547618Y-101367236D02*
X140499999Y-101271998D01*
X140499999Y-101271998D02*
X140499999Y-100986284D01*
X140499999Y-100986284D02*
X140547618Y-100891046D01*
X140547618Y-100891046D02*
X140595237Y-100843427D01*
X140595237Y-100843427D02*
X140690475Y-100795808D01*
X140690475Y-100795808D02*
X140880951Y-100795808D01*
X140880951Y-100795808D02*
X140976189Y-100843427D01*
X141452380Y-100795808D02*
X141452380Y-101462475D01*
X141452380Y-100891046D02*
X141499999Y-100843427D01*
X141499999Y-100843427D02*
X141595237Y-100795808D01*
X141595237Y-100795808D02*
X141738094Y-100795808D01*
X141738094Y-100795808D02*
X141833332Y-100843427D01*
X141833332Y-100843427D02*
X141880951Y-100938665D01*
X141880951Y-100938665D02*
X141880951Y-101462475D01*
X142785713Y-101462475D02*
X142785713Y-100938665D01*
X142785713Y-100938665D02*
X142738094Y-100843427D01*
X142738094Y-100843427D02*
X142642856Y-100795808D01*
X142642856Y-100795808D02*
X142452380Y-100795808D01*
X142452380Y-100795808D02*
X142357142Y-100843427D01*
X142785713Y-101414856D02*
X142690475Y-101462475D01*
X142690475Y-101462475D02*
X142452380Y-101462475D01*
X142452380Y-101462475D02*
X142357142Y-101414856D01*
X142357142Y-101414856D02*
X142309523Y-101319617D01*
X142309523Y-101319617D02*
X142309523Y-101224379D01*
X142309523Y-101224379D02*
X142357142Y-101129141D01*
X142357142Y-101129141D02*
X142452380Y-101081522D01*
X142452380Y-101081522D02*
X142690475Y-101081522D01*
X142690475Y-101081522D02*
X142785713Y-101033903D01*
X143404761Y-101462475D02*
X143309523Y-101414856D01*
X143309523Y-101414856D02*
X143261904Y-101319617D01*
X143261904Y-101319617D02*
X143261904Y-100462475D01*
X134142857Y-103072419D02*
X134142857Y-102072419D01*
X134142857Y-102072419D02*
X134380952Y-102072419D01*
X134380952Y-102072419D02*
X134523809Y-102120038D01*
X134523809Y-102120038D02*
X134619047Y-102215276D01*
X134619047Y-102215276D02*
X134666666Y-102310514D01*
X134666666Y-102310514D02*
X134714285Y-102500990D01*
X134714285Y-102500990D02*
X134714285Y-102643847D01*
X134714285Y-102643847D02*
X134666666Y-102834323D01*
X134666666Y-102834323D02*
X134619047Y-102929561D01*
X134619047Y-102929561D02*
X134523809Y-103024800D01*
X134523809Y-103024800D02*
X134380952Y-103072419D01*
X134380952Y-103072419D02*
X134142857Y-103072419D01*
X135523809Y-103024800D02*
X135428571Y-103072419D01*
X135428571Y-103072419D02*
X135238095Y-103072419D01*
X135238095Y-103072419D02*
X135142857Y-103024800D01*
X135142857Y-103024800D02*
X135095238Y-102929561D01*
X135095238Y-102929561D02*
X135095238Y-102548609D01*
X135095238Y-102548609D02*
X135142857Y-102453371D01*
X135142857Y-102453371D02*
X135238095Y-102405752D01*
X135238095Y-102405752D02*
X135428571Y-102405752D01*
X135428571Y-102405752D02*
X135523809Y-102453371D01*
X135523809Y-102453371D02*
X135571428Y-102548609D01*
X135571428Y-102548609D02*
X135571428Y-102643847D01*
X135571428Y-102643847D02*
X135095238Y-102739085D01*
X136000000Y-103072419D02*
X136000000Y-102405752D01*
X136000000Y-102500990D02*
X136047619Y-102453371D01*
X136047619Y-102453371D02*
X136142857Y-102405752D01*
X136142857Y-102405752D02*
X136285714Y-102405752D01*
X136285714Y-102405752D02*
X136380952Y-102453371D01*
X136380952Y-102453371D02*
X136428571Y-102548609D01*
X136428571Y-102548609D02*
X136428571Y-103072419D01*
X136428571Y-102548609D02*
X136476190Y-102453371D01*
X136476190Y-102453371D02*
X136571428Y-102405752D01*
X136571428Y-102405752D02*
X136714285Y-102405752D01*
X136714285Y-102405752D02*
X136809524Y-102453371D01*
X136809524Y-102453371D02*
X136857143Y-102548609D01*
X136857143Y-102548609D02*
X136857143Y-103072419D01*
X137476190Y-103072419D02*
X137380952Y-103024800D01*
X137380952Y-103024800D02*
X137333333Y-102977180D01*
X137333333Y-102977180D02*
X137285714Y-102881942D01*
X137285714Y-102881942D02*
X137285714Y-102596228D01*
X137285714Y-102596228D02*
X137333333Y-102500990D01*
X137333333Y-102500990D02*
X137380952Y-102453371D01*
X137380952Y-102453371D02*
X137476190Y-102405752D01*
X137476190Y-102405752D02*
X137619047Y-102405752D01*
X137619047Y-102405752D02*
X137714285Y-102453371D01*
X137714285Y-102453371D02*
X137761904Y-102500990D01*
X137761904Y-102500990D02*
X137809523Y-102596228D01*
X137809523Y-102596228D02*
X137809523Y-102881942D01*
X137809523Y-102881942D02*
X137761904Y-102977180D01*
X137761904Y-102977180D02*
X137714285Y-103024800D01*
X137714285Y-103024800D02*
X137619047Y-103072419D01*
X137619047Y-103072419D02*
X137476190Y-103072419D01*
X139333333Y-102548609D02*
X139476190Y-102596228D01*
X139476190Y-102596228D02*
X139523809Y-102643847D01*
X139523809Y-102643847D02*
X139571428Y-102739085D01*
X139571428Y-102739085D02*
X139571428Y-102881942D01*
X139571428Y-102881942D02*
X139523809Y-102977180D01*
X139523809Y-102977180D02*
X139476190Y-103024800D01*
X139476190Y-103024800D02*
X139380952Y-103072419D01*
X139380952Y-103072419D02*
X139000000Y-103072419D01*
X139000000Y-103072419D02*
X139000000Y-102072419D01*
X139000000Y-102072419D02*
X139333333Y-102072419D01*
X139333333Y-102072419D02*
X139428571Y-102120038D01*
X139428571Y-102120038D02*
X139476190Y-102167657D01*
X139476190Y-102167657D02*
X139523809Y-102262895D01*
X139523809Y-102262895D02*
X139523809Y-102358133D01*
X139523809Y-102358133D02*
X139476190Y-102453371D01*
X139476190Y-102453371D02*
X139428571Y-102500990D01*
X139428571Y-102500990D02*
X139333333Y-102548609D01*
X139333333Y-102548609D02*
X139000000Y-102548609D01*
X140142857Y-103072419D02*
X140047619Y-103024800D01*
X140047619Y-103024800D02*
X140000000Y-102977180D01*
X140000000Y-102977180D02*
X139952381Y-102881942D01*
X139952381Y-102881942D02*
X139952381Y-102596228D01*
X139952381Y-102596228D02*
X140000000Y-102500990D01*
X140000000Y-102500990D02*
X140047619Y-102453371D01*
X140047619Y-102453371D02*
X140142857Y-102405752D01*
X140142857Y-102405752D02*
X140285714Y-102405752D01*
X140285714Y-102405752D02*
X140380952Y-102453371D01*
X140380952Y-102453371D02*
X140428571Y-102500990D01*
X140428571Y-102500990D02*
X140476190Y-102596228D01*
X140476190Y-102596228D02*
X140476190Y-102881942D01*
X140476190Y-102881942D02*
X140428571Y-102977180D01*
X140428571Y-102977180D02*
X140380952Y-103024800D01*
X140380952Y-103024800D02*
X140285714Y-103072419D01*
X140285714Y-103072419D02*
X140142857Y-103072419D01*
X141333333Y-103072419D02*
X141333333Y-102548609D01*
X141333333Y-102548609D02*
X141285714Y-102453371D01*
X141285714Y-102453371D02*
X141190476Y-102405752D01*
X141190476Y-102405752D02*
X141000000Y-102405752D01*
X141000000Y-102405752D02*
X140904762Y-102453371D01*
X141333333Y-103024800D02*
X141238095Y-103072419D01*
X141238095Y-103072419D02*
X141000000Y-103072419D01*
X141000000Y-103072419D02*
X140904762Y-103024800D01*
X140904762Y-103024800D02*
X140857143Y-102929561D01*
X140857143Y-102929561D02*
X140857143Y-102834323D01*
X140857143Y-102834323D02*
X140904762Y-102739085D01*
X140904762Y-102739085D02*
X141000000Y-102691466D01*
X141000000Y-102691466D02*
X141238095Y-102691466D01*
X141238095Y-102691466D02*
X141333333Y-102643847D01*
X141809524Y-103072419D02*
X141809524Y-102405752D01*
X141809524Y-102596228D02*
X141857143Y-102500990D01*
X141857143Y-102500990D02*
X141904762Y-102453371D01*
X141904762Y-102453371D02*
X142000000Y-102405752D01*
X142000000Y-102405752D02*
X142095238Y-102405752D01*
X142857143Y-103072419D02*
X142857143Y-102072419D01*
X142857143Y-103024800D02*
X142761905Y-103072419D01*
X142761905Y-103072419D02*
X142571429Y-103072419D01*
X142571429Y-103072419D02*
X142476191Y-103024800D01*
X142476191Y-103024800D02*
X142428572Y-102977180D01*
X142428572Y-102977180D02*
X142380953Y-102881942D01*
X142380953Y-102881942D02*
X142380953Y-102596228D01*
X142380953Y-102596228D02*
X142428572Y-102500990D01*
X142428572Y-102500990D02*
X142476191Y-102453371D01*
X142476191Y-102453371D02*
X142571429Y-102405752D01*
X142571429Y-102405752D02*
X142761905Y-102405752D01*
X142761905Y-102405752D02*
X142857143Y-102453371D01*
D10*
X141188720Y-88006028D02*
X141188720Y-89220314D01*
X141188720Y-89220314D02*
X141260149Y-89363171D01*
X141260149Y-89363171D02*
X141331578Y-89434600D01*
X141331578Y-89434600D02*
X141474435Y-89506028D01*
X141474435Y-89506028D02*
X141760149Y-89506028D01*
X141760149Y-89506028D02*
X141903006Y-89434600D01*
X141903006Y-89434600D02*
X141974435Y-89363171D01*
X141974435Y-89363171D02*
X142045863Y-89220314D01*
X142045863Y-89220314D02*
X142045863Y-88006028D01*
X142688721Y-89434600D02*
X142903007Y-89506028D01*
X142903007Y-89506028D02*
X143260149Y-89506028D01*
X143260149Y-89506028D02*
X143403007Y-89434600D01*
X143403007Y-89434600D02*
X143474435Y-89363171D01*
X143474435Y-89363171D02*
X143545864Y-89220314D01*
X143545864Y-89220314D02*
X143545864Y-89077457D01*
X143545864Y-89077457D02*
X143474435Y-88934600D01*
X143474435Y-88934600D02*
X143403007Y-88863171D01*
X143403007Y-88863171D02*
X143260149Y-88791742D01*
X143260149Y-88791742D02*
X142974435Y-88720314D01*
X142974435Y-88720314D02*
X142831578Y-88648885D01*
X142831578Y-88648885D02*
X142760149Y-88577457D01*
X142760149Y-88577457D02*
X142688721Y-88434600D01*
X142688721Y-88434600D02*
X142688721Y-88291742D01*
X142688721Y-88291742D02*
X142760149Y-88148885D01*
X142760149Y-88148885D02*
X142831578Y-88077457D01*
X142831578Y-88077457D02*
X142974435Y-88006028D01*
X142974435Y-88006028D02*
X143331578Y-88006028D01*
X143331578Y-88006028D02*
X143545864Y-88077457D01*
X144688720Y-88720314D02*
X144903006Y-88791742D01*
X144903006Y-88791742D02*
X144974435Y-88863171D01*
X144974435Y-88863171D02*
X145045863Y-89006028D01*
X145045863Y-89006028D02*
X145045863Y-89220314D01*
X145045863Y-89220314D02*
X144974435Y-89363171D01*
X144974435Y-89363171D02*
X144903006Y-89434600D01*
X144903006Y-89434600D02*
X144760149Y-89506028D01*
X144760149Y-89506028D02*
X144188720Y-89506028D01*
X144188720Y-89506028D02*
X144188720Y-88006028D01*
X144188720Y-88006028D02*
X144688720Y-88006028D01*
X144688720Y-88006028D02*
X144831578Y-88077457D01*
X144831578Y-88077457D02*
X144903006Y-88148885D01*
X144903006Y-88148885D02*
X144974435Y-88291742D01*
X144974435Y-88291742D02*
X144974435Y-88434600D01*
X144974435Y-88434600D02*
X144903006Y-88577457D01*
X144903006Y-88577457D02*
X144831578Y-88648885D01*
X144831578Y-88648885D02*
X144688720Y-88720314D01*
X144688720Y-88720314D02*
X144188720Y-88720314D01*
X98317292Y-64134600D02*
X98531578Y-64206028D01*
X98531578Y-64206028D02*
X98888720Y-64206028D01*
X98888720Y-64206028D02*
X99031578Y-64134600D01*
X99031578Y-64134600D02*
X99103006Y-64063171D01*
X99103006Y-64063171D02*
X99174435Y-63920314D01*
X99174435Y-63920314D02*
X99174435Y-63777457D01*
X99174435Y-63777457D02*
X99103006Y-63634600D01*
X99103006Y-63634600D02*
X99031578Y-63563171D01*
X99031578Y-63563171D02*
X98888720Y-63491742D01*
X98888720Y-63491742D02*
X98603006Y-63420314D01*
X98603006Y-63420314D02*
X98460149Y-63348885D01*
X98460149Y-63348885D02*
X98388720Y-63277457D01*
X98388720Y-63277457D02*
X98317292Y-63134600D01*
X98317292Y-63134600D02*
X98317292Y-62991742D01*
X98317292Y-62991742D02*
X98388720Y-62848885D01*
X98388720Y-62848885D02*
X98460149Y-62777457D01*
X98460149Y-62777457D02*
X98603006Y-62706028D01*
X98603006Y-62706028D02*
X98960149Y-62706028D01*
X98960149Y-62706028D02*
X99174435Y-62777457D01*
X99674434Y-62706028D02*
X100031577Y-64206028D01*
X100031577Y-64206028D02*
X100317291Y-63134600D01*
X100317291Y-63134600D02*
X100603006Y-64206028D01*
X100603006Y-64206028D02*
X100960149Y-62706028D01*
X101531577Y-64206028D02*
X101531577Y-62706028D01*
X101531577Y-62706028D02*
X101888720Y-62706028D01*
X101888720Y-62706028D02*
X102103006Y-62777457D01*
X102103006Y-62777457D02*
X102245863Y-62920314D01*
X102245863Y-62920314D02*
X102317292Y-63063171D01*
X102317292Y-63063171D02*
X102388720Y-63348885D01*
X102388720Y-63348885D02*
X102388720Y-63563171D01*
X102388720Y-63563171D02*
X102317292Y-63848885D01*
X102317292Y-63848885D02*
X102245863Y-63991742D01*
X102245863Y-63991742D02*
X102103006Y-64134600D01*
X102103006Y-64134600D02*
X101888720Y-64206028D01*
X101888720Y-64206028D02*
X101531577Y-64206028D01*
D11*
X143794360Y-70072419D02*
X143984836Y-70072419D01*
X143984836Y-70072419D02*
X144080074Y-70120038D01*
X144080074Y-70120038D02*
X144175312Y-70215276D01*
X144175312Y-70215276D02*
X144222931Y-70405752D01*
X144222931Y-70405752D02*
X144222931Y-70739085D01*
X144222931Y-70739085D02*
X144175312Y-70929561D01*
X144175312Y-70929561D02*
X144080074Y-71024800D01*
X144080074Y-71024800D02*
X143984836Y-71072419D01*
X143984836Y-71072419D02*
X143794360Y-71072419D01*
X143794360Y-71072419D02*
X143699122Y-71024800D01*
X143699122Y-71024800D02*
X143603884Y-70929561D01*
X143603884Y-70929561D02*
X143556265Y-70739085D01*
X143556265Y-70739085D02*
X143556265Y-70405752D01*
X143556265Y-70405752D02*
X143603884Y-70215276D01*
X143603884Y-70215276D02*
X143699122Y-70120038D01*
X143699122Y-70120038D02*
X143794360Y-70072419D01*
X144651503Y-71072419D02*
X144651503Y-70072419D01*
X144651503Y-70072419D02*
X145222931Y-71072419D01*
X145222931Y-71072419D02*
X145222931Y-70072419D01*
D12*
%TO.C,U403*%
X100329466Y-98209466D02*
X100329466Y-96709466D01*
X100329466Y-98209466D02*
X100329466Y-99709466D01*
X103549466Y-98209466D02*
X103549466Y-96709466D01*
X103549466Y-98209466D02*
X103549466Y-99709466D01*
X100529466Y-100421966D02*
X100199466Y-100661966D01*
X100199466Y-100181966D01*
X100529466Y-100421966D01*
G36*
X100529466Y-100421966D02*
G01*
X100199466Y-100661966D01*
X100199466Y-100181966D01*
X100529466Y-100421966D01*
G37*
D11*
%TO.C,FL301*%
X126675000Y-79160000D02*
X129625000Y-79160000D01*
X126725000Y-80960001D02*
X130075000Y-80960000D01*
X130075000Y-80960000D02*
X130075000Y-80360000D01*
D12*
%TO.C,R505*%
X127524466Y-90760825D02*
X127524466Y-91068107D01*
X128284466Y-90760825D02*
X128284466Y-91068107D01*
%TO.C,C401*%
X101992164Y-109390000D02*
X102207836Y-109390000D01*
X101992164Y-110110000D02*
X102207836Y-110110000D01*
%TO.C,R203*%
X114720825Y-112074466D02*
X115028107Y-112074466D01*
X114720825Y-112834466D02*
X115028107Y-112834466D01*
%TO.C,C304*%
X121890000Y-77942164D02*
X121890000Y-78157836D01*
X122610000Y-77942164D02*
X122610000Y-78157836D01*
%TO.C,R401*%
X108446359Y-112120000D02*
X108753641Y-112120000D01*
X108446359Y-112880000D02*
X108753641Y-112880000D01*
%TO.C,C305*%
X113642164Y-74840000D02*
X113857836Y-74840000D01*
X113642164Y-75560000D02*
X113857836Y-75560000D01*
%TO.C,R304*%
X142203641Y-74095000D02*
X141896359Y-74095000D01*
X142203641Y-74855000D02*
X141896359Y-74855000D01*
%TO.C,R312*%
X104596359Y-71120000D02*
X104903641Y-71120000D01*
X104596359Y-71880000D02*
X104903641Y-71880000D01*
%TO.C,C410*%
X99129466Y-96376630D02*
X99129466Y-96592302D01*
X99849466Y-96376630D02*
X99849466Y-96592302D01*
%TO.C,C501*%
X124932300Y-107749466D02*
X124716628Y-107749466D01*
X124932300Y-108469466D02*
X124716628Y-108469466D01*
%TO.C,C206*%
X114695719Y-113380534D02*
X114173213Y-113380534D01*
X114695719Y-114850534D02*
X114173213Y-114850534D01*
%TO.C,C412*%
X100305047Y-92549466D02*
X100023885Y-92549466D01*
X100305047Y-93569466D02*
X100023885Y-93569466D01*
%TO.C,R204*%
X128696359Y-72450166D02*
X129003641Y-72450166D01*
X128696359Y-73210166D02*
X129003641Y-73210166D01*
%TO.C,U302*%
X134405000Y-78499999D02*
X133605000Y-78500000D01*
X134405000Y-78499999D02*
X135205000Y-78500000D01*
X134405000Y-81620001D02*
X133605000Y-81620000D01*
X134405000Y-81620001D02*
X135205000Y-81620000D01*
X135945000Y-81900000D02*
X135465000Y-81900000D01*
X135705000Y-81570000D01*
X135945000Y-81900000D01*
G36*
X135945000Y-81900000D02*
G01*
X135465000Y-81900000D01*
X135705000Y-81570000D01*
X135945000Y-81900000D01*
G37*
%TO.C,C507*%
X124194466Y-96723885D02*
X124194466Y-97005047D01*
X125214466Y-96723885D02*
X125214466Y-97005047D01*
%TO.C,D305*%
X101580001Y-69050000D02*
X101580001Y-70750000D01*
X101580001Y-69050000D02*
X104240001Y-69050000D01*
X101580001Y-70750000D02*
X104240001Y-70750000D01*
%TO.C,C404*%
X107506630Y-113244466D02*
X107722302Y-113244466D01*
X107506630Y-113964466D02*
X107722302Y-113964466D01*
%TO.C,U404*%
X95039466Y-100074465D02*
X94389466Y-100074466D01*
X95039466Y-100074465D02*
X95689466Y-100074466D01*
X95039466Y-103194467D02*
X94389466Y-103194466D01*
X95039466Y-103194467D02*
X95689466Y-103194466D01*
X96441966Y-103474466D02*
X95961966Y-103474465D01*
X96201966Y-103144466D01*
X96441966Y-103474466D01*
G36*
X96441966Y-103474466D02*
G01*
X95961966Y-103474465D01*
X96201966Y-103144466D01*
X96441966Y-103474466D01*
G37*
%TO.C,R202*%
X117100825Y-112084466D02*
X117408107Y-112084466D01*
X117100825Y-112844466D02*
X117408107Y-112844466D01*
%TO.C,C301*%
X108514466Y-77945048D02*
X108514466Y-77663886D01*
X109534466Y-77945048D02*
X109534466Y-77663886D01*
%TO.C,R504*%
X128159466Y-111910825D02*
X128159466Y-112218107D01*
X128919466Y-111910825D02*
X128919466Y-112218107D01*
%TO.C,D501*%
X131299466Y-115239466D02*
X128639466Y-115239466D01*
X131299466Y-116939466D02*
X128639466Y-116939466D01*
X131299466Y-116939466D02*
X131299466Y-115239466D01*
%TO.C,D304*%
X104990000Y-69050000D02*
X104990000Y-70750000D01*
X104990000Y-69050000D02*
X107650000Y-69050000D01*
X104990000Y-70750000D02*
X107650000Y-70750000D01*
%TO.C,R307*%
X121994466Y-84808108D02*
X121994466Y-84500826D01*
X122754466Y-84808108D02*
X122754466Y-84500826D01*
%TO.C,U202*%
X116044466Y-108451966D02*
X115244466Y-108451966D01*
X116044466Y-108451966D02*
X116844466Y-108451966D01*
X116044466Y-111571966D02*
X115244466Y-111571966D01*
X116044466Y-111571966D02*
X116844466Y-111571966D01*
X114744466Y-108501966D02*
X114504466Y-108171966D01*
X114984466Y-108171966D01*
X114744466Y-108501966D01*
G36*
X114744466Y-108501966D02*
G01*
X114504466Y-108171966D01*
X114984466Y-108171966D01*
X114744466Y-108501966D01*
G37*
%TO.C,C302*%
X110164466Y-77912303D02*
X110164466Y-77696631D01*
X110884466Y-77912303D02*
X110884466Y-77696631D01*
%TO.C,C505*%
X126791628Y-105699465D02*
X127007300Y-105699465D01*
X126791628Y-106419465D02*
X127007300Y-106419465D01*
%TO.C,C502*%
X125463886Y-92504466D02*
X125745046Y-92504466D01*
X125463886Y-93524466D02*
X125745046Y-93524466D01*
%TO.C,R503*%
X127796359Y-107729466D02*
X128103641Y-107729466D01*
X127796359Y-108489466D02*
X128103641Y-108489466D01*
%TO.C,R405*%
X99093107Y-109409466D02*
X98785825Y-109409466D01*
X99093107Y-110169466D02*
X98785825Y-110169466D01*
%TO.C,R306*%
X123895000Y-79026359D02*
X123895000Y-79333641D01*
X124655000Y-79026359D02*
X124655000Y-79333641D01*
%TO.C,C411*%
X100847302Y-94049466D02*
X100631630Y-94049466D01*
X100847302Y-94769466D02*
X100631630Y-94769466D01*
%TO.C,U401*%
X105604465Y-109714466D02*
X105604466Y-108914466D01*
X105604465Y-109714466D02*
X105604466Y-110514466D01*
X108724467Y-109714466D02*
X108724466Y-108914466D01*
X108724467Y-109714466D02*
X108724466Y-110514466D01*
X105654466Y-111014466D02*
X105324466Y-111254466D01*
X105324466Y-110774466D01*
X105654466Y-111014466D01*
G36*
X105654466Y-111014466D02*
G01*
X105324466Y-111254466D01*
X105324466Y-110774466D01*
X105654466Y-111014466D01*
G37*
%TO.C,C414*%
X95105047Y-103724466D02*
X94823885Y-103724466D01*
X95105047Y-104744466D02*
X94823885Y-104744466D01*
%TO.C,C503*%
X126071630Y-94054466D02*
X126287302Y-94054466D01*
X126071630Y-94774466D02*
X126287302Y-94774466D01*
%TO.C,R313*%
X94143642Y-81170000D02*
X93836360Y-81170000D01*
X94143642Y-81930000D02*
X93836360Y-81930000D01*
%TO.C,R301*%
X116163640Y-74820000D02*
X115856358Y-74820000D01*
X116163640Y-75580000D02*
X115856358Y-75580000D01*
%TO.C,R410*%
X102120000Y-91203641D02*
X102120000Y-90896359D01*
X102880000Y-91203641D02*
X102880000Y-90896359D01*
%TO.C,R311*%
X107303641Y-71120000D02*
X106996359Y-71120000D01*
X107303641Y-71880000D02*
X106996359Y-71880000D01*
%TO.C,D201*%
X140900000Y-70335000D02*
X143185000Y-70335000D01*
X143185000Y-68865000D02*
X140900000Y-68865000D01*
X143185000Y-70335000D02*
X143185000Y-68865000D01*
%TO.C,R308*%
X94103641Y-78670000D02*
X93796359Y-78670000D01*
X94103641Y-79430000D02*
X93796359Y-79430000D01*
%TO.C,D303*%
X111610000Y-69050000D02*
X108950000Y-69050000D01*
X111610000Y-70750000D02*
X108950000Y-70750000D01*
X111610000Y-70750000D02*
X111610000Y-69050000D01*
%TO.C,R409*%
X93720000Y-93636360D02*
X93720000Y-93943642D01*
X94480000Y-93636360D02*
X94480000Y-93943642D01*
%TO.C,J301*%
X141599466Y-75854466D02*
X143599466Y-75854466D01*
X141599466Y-85254466D02*
X143599466Y-85254466D01*
%TO.C,C306*%
X109955000Y-82157836D02*
X109955000Y-81942164D01*
X110675000Y-82157836D02*
X110675000Y-81942164D01*
%TO.C,C506*%
X128842164Y-109190000D02*
X129057836Y-109190000D01*
X128842164Y-109910000D02*
X129057836Y-109910000D01*
%TO.C,C409*%
X97629466Y-96343885D02*
X97629466Y-96625047D01*
X98649466Y-96343885D02*
X98649466Y-96625047D01*
%TO.C,C408*%
X101542164Y-103390000D02*
X101757836Y-103390000D01*
X101542164Y-104110000D02*
X101757836Y-104110000D01*
%TO.C,R506*%
X128546359Y-102620000D02*
X128853641Y-102620000D01*
X128546359Y-103380000D02*
X128853641Y-103380000D01*
%TO.C,L202*%
X127510999Y-62896000D02*
X131818999Y-62896000D01*
X131818999Y-67204000D02*
X127510999Y-67204000D01*
%TO.C,C416*%
X99154466Y-100017302D02*
X99154466Y-99801630D01*
X99874466Y-100017302D02*
X99874466Y-99801630D01*
%TO.C,R408*%
X102745000Y-104403641D02*
X102745000Y-104096359D01*
X103505000Y-104403641D02*
X103505000Y-104096359D01*
%TO.C,D302*%
X110344466Y-65044466D02*
X110344466Y-62384466D01*
X110344466Y-65044466D02*
X112044466Y-65044466D01*
X112044466Y-65044466D02*
X112044466Y-62384466D01*
%TO.C,C205*%
X112016966Y-104485719D02*
X112016966Y-103963213D01*
X113486966Y-104485719D02*
X113486966Y-103963213D01*
%TO.C,R502*%
X126044464Y-107455825D02*
X126044464Y-107763107D01*
X126804464Y-107455825D02*
X126804464Y-107763107D01*
%TO.C,C313*%
X98540000Y-66757836D02*
X98540000Y-66542164D01*
X99260000Y-66757836D02*
X99260000Y-66542164D01*
%TO.C,R402*%
X103284466Y-114408107D02*
X103284466Y-114100825D01*
X104044466Y-114408107D02*
X104044466Y-114100825D01*
%TO.C,C308*%
X106605000Y-82690581D02*
X106605000Y-82409419D01*
X107625000Y-82690581D02*
X107625000Y-82409419D01*
%TO.C,C403*%
X103579466Y-106922302D02*
X103579466Y-106706630D01*
X104299466Y-106922302D02*
X104299466Y-106706630D01*
%TO.C,U203*%
X128726966Y-68419465D02*
X127926966Y-68419466D01*
X128726966Y-68419465D02*
X129526966Y-68419466D01*
X128726966Y-71539467D02*
X127926966Y-71539466D01*
X128726966Y-71539467D02*
X129526966Y-71539466D01*
X130266966Y-71819466D02*
X129786966Y-71819466D01*
X130026966Y-71489466D01*
X130266966Y-71819466D01*
G36*
X130266966Y-71819466D02*
G01*
X129786966Y-71819466D01*
X130026966Y-71489466D01*
X130266966Y-71819466D01*
G37*
%TO.C,C204*%
X116013219Y-99939466D02*
X115490713Y-99939466D01*
X116013219Y-101409466D02*
X115490713Y-101409466D01*
%TO.C,R403*%
X103937258Y-110477500D02*
X103462742Y-110477500D01*
X103937258Y-111522500D02*
X103462742Y-111522500D01*
%TO.C,R314*%
X99570000Y-66496359D02*
X99570000Y-66803641D01*
X100330000Y-66496359D02*
X100330000Y-66803641D01*
%TO.C,D401*%
X106249466Y-115439466D02*
X103589466Y-115439466D01*
X106249466Y-117139466D02*
X103589466Y-117139466D01*
X106249466Y-117139466D02*
X106249466Y-115439466D01*
%TO.C,C303*%
X118957836Y-86640000D02*
X118742164Y-86640000D01*
X118957836Y-87360000D02*
X118742164Y-87360000D01*
%TO.C,C208*%
X131265000Y-69488747D02*
X131265000Y-70011253D01*
X132735000Y-69488747D02*
X132735000Y-70011253D01*
%TO.C,C307*%
X108305000Y-82690581D02*
X108305000Y-82409419D01*
X109325000Y-82690581D02*
X109325000Y-82409419D01*
%TO.C,C402*%
X106807836Y-106690000D02*
X106592164Y-106690000D01*
X106807836Y-107410000D02*
X106592164Y-107410000D01*
%TO.C,C201*%
X118454466Y-109602302D02*
X118454466Y-109386630D01*
X119174466Y-109602302D02*
X119174466Y-109386630D01*
%TO.C,C405*%
X105604466Y-113262302D02*
X105604466Y-113046630D01*
X106324466Y-113262302D02*
X106324466Y-113046630D01*
%TO.C,C203*%
X131815000Y-84634419D02*
X131815000Y-84915581D01*
X132835000Y-84634419D02*
X132835000Y-84915581D01*
%TO.C,J401*%
X96139466Y-119084466D02*
X111139466Y-119084466D01*
X96139466Y-134084466D02*
X96139466Y-119084466D01*
X103639466Y-133884466D02*
X102639466Y-132884466D01*
X103639466Y-133884466D02*
X104639466Y-132884466D01*
X111139466Y-119084466D02*
X111139466Y-134084466D01*
X111139466Y-134084466D02*
X96139466Y-134084466D01*
%TO.C,R407*%
X104409466Y-113000825D02*
X104409466Y-113308107D01*
X105169466Y-113000825D02*
X105169466Y-113308107D01*
%TO.C,C504*%
X122689464Y-110876629D02*
X122689464Y-111092301D01*
X123409464Y-110876629D02*
X123409464Y-111092301D01*
%TO.C,U402*%
X101289466Y-105741965D02*
X100489466Y-105741966D01*
X101289466Y-105741965D02*
X102089466Y-105741966D01*
X101289466Y-108861967D02*
X100489466Y-108861966D01*
X101289466Y-108861967D02*
X102089466Y-108861966D01*
X99989466Y-105791966D02*
X99749466Y-105461966D01*
X100229466Y-105461966D01*
X99989466Y-105791966D01*
G36*
X99989466Y-105791966D02*
G01*
X99749466Y-105461966D01*
X100229466Y-105461966D01*
X99989466Y-105791966D01*
G37*
%TO.C,U201*%
X115519466Y-102039466D02*
X118099466Y-102039466D01*
X118099466Y-103019466D02*
X118099466Y-102039466D01*
X118099466Y-105779466D02*
X118099466Y-106759466D01*
X118099466Y-106759466D02*
X115379466Y-106759466D01*
X114969466Y-102189466D02*
X114729466Y-101859466D01*
X115209466Y-101859466D01*
X114969466Y-102189466D01*
G36*
X114969466Y-102189466D02*
G01*
X114729466Y-101859466D01*
X115209466Y-101859466D01*
X114969466Y-102189466D01*
G37*
%TO.C,C310*%
X104382164Y-79040000D02*
X104597836Y-79040000D01*
X104382164Y-79760000D02*
X104597836Y-79760000D01*
%TO.C,R206*%
X126263680Y-72450166D02*
X126570962Y-72450166D01*
X126263680Y-73210166D02*
X126570962Y-73210166D01*
%TO.C,C413*%
X93440581Y-91345002D02*
X93159419Y-91345002D01*
X93440581Y-92365002D02*
X93159419Y-92365002D01*
D11*
%TO.C,D301*%
X90190001Y-78450000D02*
X90640001Y-78450000D01*
X90190001Y-81800000D02*
X90190001Y-78450000D01*
X92190001Y-81800000D02*
X92190001Y-78800000D01*
X90060712Y-78950000D02*
G75*
G02*
X89919290Y-78950000I-70711J0D01*
G01*
X89919290Y-78950000D02*
G75*
G02*
X90060712Y-78950000I70711J0D01*
G01*
D12*
%TO.C,C312*%
X91032165Y-77115000D02*
X91247837Y-77115000D01*
X91032165Y-77835000D02*
X91247837Y-77835000D01*
%TO.C,C406*%
X101265000Y-111167164D02*
X101265000Y-111382836D01*
X101985000Y-111167164D02*
X101985000Y-111382836D01*
%TO.C,J501*%
X121139466Y-119084466D02*
X136139466Y-119084466D01*
X121139466Y-134084466D02*
X121139466Y-119084466D01*
X128639466Y-133884466D02*
X127639466Y-132884466D01*
X128639466Y-133884466D02*
X129639466Y-132884466D01*
X136139466Y-119084466D02*
X136139466Y-134084466D01*
X136139466Y-134084466D02*
X121139466Y-134084466D01*
%TO.C,R205*%
X141946359Y-70570000D02*
X142253641Y-70570000D01*
X141946359Y-71330000D02*
X142253641Y-71330000D01*
%TO.C,U501*%
X125774464Y-108961965D02*
X124974464Y-108961966D01*
X125774464Y-108961965D02*
X126574464Y-108961966D01*
X125774464Y-112081967D02*
X124974464Y-112081966D01*
X125774464Y-112081967D02*
X126574464Y-112081966D01*
X127314464Y-112361966D02*
X126834464Y-112361966D01*
X127074464Y-112031966D01*
X127314464Y-112361966D01*
G36*
X127314464Y-112361966D02*
G01*
X126834464Y-112361966D01*
X127074464Y-112031966D01*
X127314464Y-112361966D01*
G37*
%TO.C,R302*%
X113046359Y-86570000D02*
X113353641Y-86570000D01*
X113046359Y-87330000D02*
X113353641Y-87330000D01*
%TO.C,C207*%
X124665000Y-69638747D02*
X124665000Y-70161253D01*
X126135000Y-69638747D02*
X126135000Y-70161253D01*
%TO.C,U301*%
X112664466Y-77444467D02*
X112664466Y-77894467D01*
X112664466Y-84664467D02*
X112664466Y-84214467D01*
X113114466Y-77444467D02*
X112664466Y-77444467D01*
X113114466Y-84664467D02*
X112664466Y-84664467D01*
X119434466Y-77444467D02*
X119884466Y-77444467D01*
X119434466Y-84664467D02*
X119884466Y-84664467D01*
X119884466Y-77444467D02*
X119884466Y-77894467D01*
X119884466Y-84664467D02*
X119884466Y-84214467D01*
X112074466Y-77894467D02*
X111734466Y-77424467D01*
X112414466Y-77424467D01*
X112074466Y-77894467D01*
G36*
X112074466Y-77894467D02*
G01*
X111734466Y-77424467D01*
X112414466Y-77424467D01*
X112074466Y-77894467D01*
G37*
%TO.C,C415*%
X97629466Y-100075047D02*
X97629466Y-99793885D01*
X98649466Y-100075047D02*
X98649466Y-99793885D01*
%TO.C,Y301*%
X107470000Y-75250000D02*
X103470000Y-75250000D01*
X107470000Y-78550000D02*
X107470000Y-75250000D01*
%TO.C,R201*%
X115991966Y-97422402D02*
X115991966Y-97876530D01*
X117461966Y-97422402D02*
X117461966Y-97876530D01*
%TO.C,R310*%
X94103641Y-82720000D02*
X93796359Y-82720000D01*
X94103641Y-83480000D02*
X93796359Y-83480000D01*
%TO.C,C407*%
X97040000Y-109407836D02*
X97040000Y-109192164D01*
X97760000Y-109407836D02*
X97760000Y-109192164D01*
%TO.C,C309*%
X106887836Y-79000000D02*
X106672164Y-79000000D01*
X106887836Y-79720000D02*
X106672164Y-79720000D01*
%TO.C,C209*%
X128907836Y-73590000D02*
X128692164Y-73590000D01*
X128907836Y-74310000D02*
X128692164Y-74310000D01*
%TO.C,C202*%
X133465000Y-84634419D02*
X133465000Y-84915581D01*
X134485000Y-84634419D02*
X134485000Y-84915581D01*
%TO.C,R305*%
X104316359Y-80270000D02*
X104623641Y-80270000D01*
X104316359Y-81030000D02*
X104623641Y-81030000D01*
%TO.C,R406*%
X99745000Y-104403641D02*
X99745000Y-104096359D01*
X100505000Y-104403641D02*
X100505000Y-104096359D01*
%TO.C,D306*%
X100700000Y-68760000D02*
X100700000Y-66100000D01*
X100700000Y-68760000D02*
X102400000Y-68760000D01*
X102400000Y-68760000D02*
X102400000Y-66100000D01*
%TO.C,C311*%
X134957836Y-77165000D02*
X134742164Y-77165000D01*
X134957836Y-77885000D02*
X134742164Y-77885000D01*
%TO.C,R303*%
X142203641Y-86370000D02*
X141896359Y-86370000D01*
X142203641Y-87130000D02*
X141896359Y-87130000D01*
%TO.C,R404*%
X100145000Y-110428641D02*
X100145000Y-110121359D01*
X100905000Y-110428641D02*
X100905000Y-110121359D01*
%TO.C,U502*%
X125794466Y-98289466D02*
X125794466Y-96789466D01*
X125794466Y-98289466D02*
X125794466Y-99789466D01*
X129014466Y-98289466D02*
X129014466Y-96789466D01*
X129014466Y-98289466D02*
X129014466Y-99789466D01*
X125994466Y-100501966D02*
X125664466Y-100741966D01*
X125664466Y-100261966D01*
X125994466Y-100501966D01*
G36*
X125994466Y-100501966D02*
G01*
X125664466Y-100741966D01*
X125664466Y-100261966D01*
X125994466Y-100501966D01*
G37*
%TO.C,R309*%
X109296359Y-71120000D02*
X109603641Y-71120000D01*
X109296359Y-71880000D02*
X109603641Y-71880000D01*
%TO.C,J302*%
X103159466Y-62669466D02*
X103159466Y-66199466D01*
X103224466Y-62669466D02*
X103159466Y-62669466D01*
X103224466Y-66199466D02*
X103159466Y-66199466D01*
X109564466Y-61344466D02*
X109564466Y-62669466D01*
X109629466Y-62669466D02*
X109564466Y-62669466D01*
X109629466Y-62669466D02*
X109629466Y-66199466D01*
X109629466Y-66199466D02*
X109564466Y-66199466D01*
%TO.C,R501*%
X125877500Y-103762742D02*
X125877500Y-104237258D01*
X126922500Y-103762742D02*
X126922500Y-104237258D01*
%TD*%
M02*
