M48
; DRILL file {KiCad 8.0.4+dfsg-1} date 2024-08-03T22:49:54-0400
; FORMAT={-:-/ absolute / metric / decimal}
; #@! TF.CreationDate,2024-08-03T22:49:54-04:00
; #@! TF.GenerationSoftware,Kicad,Pcbnew,8.0.4+dfsg-1
; #@! TF.FileFunction,MixedPlating,1,4
FMAT,2
METRIC
; #@! TA.AperFunction,Plated,PTH,ViaDrill
T1C0.300
; #@! TA.AperFunction,Plated,PTH,ViaDrill
T2C0.400
; #@! TA.AperFunction,Plated,PTH,ComponentDrill
T3C0.600
; #@! TA.AperFunction,Plated,PTH,ComponentDrill
T4C0.890
; #@! TA.AperFunction,Plated,PTH,ComponentDrill
T5C2.010
; #@! TA.AperFunction,NonPlated,NPTH,ComponentDrill
T6C0.650
; #@! TA.AperFunction,NonPlated,NPTH,ComponentDrill
T7C3.200
%
G90
G05
T1
X90.65Y-76.5
X91.55Y-91.85
X92.446Y-77.474
X93.7Y-103.25
X94.225Y-102.575
X95.65Y-91.85
X95.7Y-90.9
X95.85Y-95.45
X96.35Y-96.25
X97.391Y-108.001
X98.63Y-98.21
X98.916Y-65.364
X98.95Y-107.28
X99.47Y-94.09
X99.5Y-97.78
X99.5Y-98.61
X100.761Y-111.756
X101.05Y-91.65
X101.564Y-67.366
X102.85Y-101.75
X102.95Y-84.6
X102.974Y-69.894
X103.16Y-76.05
X103.2Y-81.9
X103.63Y-100.41
X103.85Y-60.75
X104.0Y-82.75
X104.0Y-83.8
X104.0Y-85.45
X104.4Y-103.15
X104.8Y-107.3
X104.82Y-116.29
X105.2Y-103.95
X105.2Y-105.55
X105.42Y-112.02
X105.63Y-78.78
X105.75Y-91.4
X106.0Y-90.5
X106.15Y-87.85
X106.2Y-105.5
X106.385Y-60.745
X106.394Y-69.896
X106.85Y-86.35
X107.1Y-88.1
X107.15Y-112.15
X107.175Y-106.2
X107.685Y-60.745
X107.95Y-81.16
X108.85Y-87.403
X109.0Y-91.95
X109.63Y-81.13
X110.0Y-76.6
X110.204Y-69.924
X111.1Y-75.7
X111.2Y-63.68
X111.7Y-86.903
X111.95Y-76.6
X111.95Y-100.3
X111.95Y-101.25
X111.95Y-102.2
X112.7Y-62.4
X113.25Y-74.25
X113.4Y-112.6
X113.5Y-100.3
X113.5Y-101.25
X113.5Y-102.2
X113.7Y-110.0
X113.95Y-79.4
X114.025Y-78.175
X115.4Y-79.1
X116.5Y-79.6
X116.7Y-95.3
X116.85Y-94.25
X117.2Y-80.55
X117.33Y-75.2
X117.85Y-78.75
X117.87Y-109.98
X118.525Y-83.95
X118.6Y-79.55
X119.15Y-78.8
X120.45Y-86.9
X121.25Y-76.7
X123.96Y-110.5
X124.1Y-72.2
X124.35Y-77.85
X124.5Y-72.95
X124.55Y-88.9
X124.71Y-98.64
X124.93Y-94.02
X125.7Y-91.6
X126.15Y-84.8
X126.25Y-85.75
X126.75Y-89.7
X126.75Y-90.75
X127.35Y-69.95
X127.61Y-101.84
X128.1Y-110.52
X128.15Y-78.1
X128.18Y-106.05
X128.35Y-70.0
X128.85Y-86.5
X128.9Y-85.5
X129.15Y-77.65
X129.45Y-82.15
X129.55Y-99.05
X129.6Y-98.05
X129.87Y-116.1
X130.03Y-103.0
X130.15Y-73.95
X130.15Y-75.0
X130.25Y-109.55
X130.35Y-81.75
X130.5Y-98.6
X131.65Y-71.75
X132.3Y-86.725
X132.55Y-71.75
X133.7Y-70.85
X133.95Y-86.725
X134.05Y-69.8
X134.35Y-68.8
X134.95Y-67.95
X135.55Y-68.8
X136.125Y-77.525
X136.725Y-80.057
X137.975Y-77.125
X138.0Y-84.0
X138.475Y-76.45
X138.475Y-84.65
X140.725Y-74.45
X140.725Y-86.775
X140.85Y-70.95
T2
X88.5Y-69.5
X88.5Y-72.0
X88.5Y-74.5
X88.5Y-77.0
X88.5Y-79.5
X88.5Y-82.0
X88.5Y-84.5
X88.5Y-87.0
X88.5Y-89.5
X88.5Y-92.0
X88.5Y-94.5
X88.5Y-97.0
X88.5Y-99.5
X88.5Y-102.0
X88.5Y-104.5
X88.5Y-107.0
X88.5Y-109.5
X88.5Y-112.0
X88.5Y-114.5
X88.5Y-117.0
X88.5Y-119.5
X88.5Y-122.0
X88.5Y-124.5
X91.0Y-69.5
X91.0Y-84.5
X91.0Y-87.0
X91.0Y-89.5
X91.0Y-94.5
X91.0Y-97.0
X91.0Y-107.0
X91.0Y-109.5
X91.0Y-112.0
X91.0Y-114.5
X91.0Y-117.0
X91.0Y-119.5
X91.0Y-122.0
X91.0Y-124.5
X93.5Y-69.5
X93.5Y-74.5
X93.5Y-87.0
X93.5Y-89.5
X93.5Y-109.5
X93.5Y-112.0
X93.5Y-114.5
X93.5Y-117.0
X93.5Y-119.5
X93.5Y-122.0
X93.5Y-124.5
X96.0Y-62.0
X96.0Y-64.5
X96.0Y-67.0
X96.0Y-69.5
X96.0Y-74.5
X96.0Y-77.0
X96.0Y-87.0
X96.0Y-89.5
X96.0Y-109.5
X96.0Y-112.0
X96.0Y-114.5
X96.0Y-117.0
X98.5Y-62.0
X98.5Y-69.5
X98.5Y-74.5
X98.5Y-77.0
X98.5Y-87.0
X98.5Y-89.5
X98.5Y-112.0
X98.5Y-114.5
X98.5Y-117.0
X101.0Y-62.0
X101.0Y-64.5
X101.0Y-114.5
X101.0Y-117.0
X108.5Y-117.0
X111.0Y-67.0
X111.0Y-92.0
X111.0Y-97.0
X111.0Y-114.5
X111.0Y-117.0
X113.5Y-64.5
X113.5Y-67.0
X113.5Y-92.0
X113.5Y-97.0
X113.5Y-117.0
X113.5Y-119.5
X113.5Y-124.5
X113.5Y-127.0
X113.5Y-129.5
X113.5Y-132.0
X116.0Y-64.5
X116.0Y-69.5
X116.0Y-92.0
X116.0Y-117.0
X116.0Y-119.5
X116.0Y-122.0
X116.0Y-124.5
X116.0Y-127.0
X116.0Y-129.5
X116.0Y-132.0
X118.5Y-62.0
X118.5Y-64.5
X118.5Y-69.5
X118.5Y-92.0
X118.5Y-114.5
X118.5Y-117.0
X118.5Y-119.5
X118.5Y-122.0
X118.5Y-124.5
X118.5Y-127.0
X118.5Y-129.5
X118.5Y-132.0
X121.0Y-62.0
X121.0Y-64.5
X121.0Y-97.0
X121.0Y-99.5
X121.0Y-102.0
X121.0Y-104.5
X121.0Y-114.5
X121.0Y-117.0
X123.5Y-62.0
X123.5Y-64.5
X123.5Y-99.5
X123.5Y-102.0
X123.5Y-104.5
X123.5Y-114.5
X123.5Y-117.0
X126.0Y-62.0
X126.0Y-64.5
X126.0Y-114.5
X126.0Y-117.0
X131.0Y-102.0
X131.0Y-104.5
X131.0Y-107.0
X131.0Y-112.0
X133.5Y-62.0
X133.5Y-64.5
X133.5Y-89.5
X133.5Y-92.0
X133.5Y-94.5
X133.5Y-97.0
X133.5Y-99.5
X133.5Y-102.0
X133.5Y-104.5
X133.5Y-107.0
X133.5Y-109.5
X133.5Y-112.0
X133.5Y-114.5
X133.5Y-117.0
X136.0Y-62.0
X136.0Y-64.5
X136.0Y-67.0
X136.0Y-72.0
X136.0Y-74.5
X136.0Y-89.5
X136.0Y-92.0
X136.0Y-94.5
X136.0Y-97.0
X136.0Y-99.5
X136.0Y-104.5
X136.0Y-107.0
X136.0Y-109.5
X136.0Y-112.0
X136.0Y-114.5
X136.0Y-117.0
X138.5Y-72.0
X138.5Y-74.5
X138.5Y-89.5
X138.5Y-92.0
X138.5Y-94.5
X138.5Y-97.0
X138.5Y-99.5
X138.5Y-104.5
X138.5Y-107.0
X138.5Y-109.5
X138.5Y-112.0
X138.5Y-114.5
X138.5Y-117.0
X138.5Y-119.5
X138.5Y-122.0
X138.5Y-124.5
X141.0Y-92.0
X141.0Y-94.5
X141.0Y-97.0
X141.0Y-99.5
X141.0Y-104.5
X141.0Y-107.0
X141.0Y-109.5
X141.0Y-112.0
X141.0Y-114.5
X141.0Y-117.0
X141.0Y-119.5
X141.0Y-122.0
X141.0Y-124.5
X143.5Y-92.0
X143.5Y-94.5
X143.5Y-97.0
X143.5Y-99.5
X143.5Y-102.0
X143.5Y-104.5
X143.5Y-107.0
X143.5Y-109.5
X143.5Y-112.0
X143.5Y-114.5
X143.5Y-117.0
X143.5Y-119.5
X143.5Y-122.0
X143.5Y-124.5
T4
X103.639Y-121.384
X106.179Y-121.384
X128.639Y-121.384
X131.179Y-121.384
T5
X98.559Y-126.464
X108.719Y-126.464
X123.559Y-126.464
X133.719Y-126.464
T6
X140.899Y-77.664
X140.899Y-83.444
T7
X90.964Y-64.464
X90.964Y-129.464
X140.964Y-64.464
X140.964Y-129.464
T3
X139.819Y-76.234G85X140.919Y-76.234
G05
X139.819Y-84.874G85X140.919Y-84.874
G05
X144.249Y-76.234G85X144.849Y-76.234
G05
X144.249Y-84.874G85X144.849Y-84.874
G05
M30
