%TF.GenerationSoftware,KiCad,Pcbnew,8.0.4+dfsg-1*%
%TF.CreationDate,2024-08-03T22:50:01-04:00*%
%TF.ProjectId,Mixed-Signal_Demo_PCB,4d697865-642d-4536-9967-6e616c5f4465,rev?*%
%TF.SameCoordinates,Original*%
%TF.FileFunction,Copper,L4,Bot*%
%TF.FilePolarity,Positive*%
%FSLAX46Y46*%
G04 Gerber Fmt 4.6, Leading zero omitted, Abs format (unit mm)*
G04 Created by KiCad (PCBNEW 8.0.4+dfsg-1) date 2024-08-03 22:50:01*
%MOMM*%
%LPD*%
G01*
G04 APERTURE LIST*
%TA.AperFunction,ComponentPad*%
%ADD10O,2.100000X1.000000*%
%TD*%
%TA.AperFunction,ComponentPad*%
%ADD11O,1.600000X1.000000*%
%TD*%
%TA.AperFunction,ComponentPad*%
%ADD12O,1.600000X2.500000*%
%TD*%
%TA.AperFunction,ComponentPad*%
%ADD13O,3.500000X7.000000*%
%TD*%
%TA.AperFunction,ViaPad*%
%ADD14C,0.700000*%
%TD*%
%TA.AperFunction,ViaPad*%
%ADD15C,0.800000*%
%TD*%
%TA.AperFunction,Conductor*%
%ADD16C,0.500000*%
%TD*%
%TA.AperFunction,Conductor*%
%ADD17C,0.300000*%
%TD*%
%TA.AperFunction,Conductor*%
%ADD18C,0.293370*%
%TD*%
G04 APERTURE END LIST*
D10*
%TO.P,J301,S1,SHIELD*%
%TO.N,unconnected-(J301-SHIELD-PadS1)*%
X140369466Y-84874466D03*
D11*
%TO.N,unconnected-(J301-SHIELD-PadS1)_1*%
X144549466Y-84874466D03*
D10*
%TO.N,unconnected-(J301-SHIELD-PadS1)_3*%
X140369466Y-76234466D03*
D11*
%TO.N,unconnected-(J301-SHIELD-PadS1)_2*%
X144549466Y-76234466D03*
%TD*%
D12*
%TO.P,J401,1,In*%
%TO.N,/ADC/IN*%
X103639466Y-121384466D03*
D13*
%TO.P,J401,2,Ext*%
%TO.N,GND*%
X108719466Y-126464466D03*
D12*
X106179466Y-121384466D03*
D13*
X98559466Y-126464466D03*
%TD*%
D12*
%TO.P,J501,1,In*%
%TO.N,/DAC/IN*%
X128639466Y-121384466D03*
D13*
%TO.P,J501,2,Ext*%
%TO.N,GND*%
X133719466Y-126464466D03*
D12*
X131179466Y-121384466D03*
D13*
X123559466Y-126464466D03*
%TD*%
D14*
%TO.N,+3.3VA*%
X105200000Y-103950000D03*
X105200000Y-105550000D03*
X108850000Y-87403315D03*
X96350000Y-96250000D03*
X109000000Y-91950000D03*
D15*
%TO.N,GND*%
X98500000Y-117000000D03*
D14*
X113500000Y-102200000D03*
D15*
X138500000Y-104500000D03*
X143500000Y-94500000D03*
D14*
X113700000Y-110000000D03*
X106150000Y-87850000D03*
X128350000Y-70000000D03*
D15*
X141000000Y-92000000D03*
D14*
X140725000Y-74450000D03*
D15*
X136000000Y-97000000D03*
X143500000Y-102000000D03*
X91000000Y-84500000D03*
X101000000Y-117000000D03*
X136000000Y-114500000D03*
X141000000Y-99500000D03*
D14*
X107950000Y-81160000D03*
D15*
X136000000Y-109500000D03*
D14*
X103160000Y-76050000D03*
D15*
X138500000Y-122000000D03*
X88500000Y-107000000D03*
X116000000Y-69500000D03*
X136000000Y-67000000D03*
X131000000Y-112000000D03*
X113500000Y-117000000D03*
X136000000Y-64500000D03*
D14*
X99470000Y-94090000D03*
D15*
X123500000Y-99500000D03*
X118500000Y-129500000D03*
X88500000Y-99500000D03*
D14*
X128100000Y-110520000D03*
D15*
X123500000Y-104500000D03*
D14*
X111200000Y-63680000D03*
D15*
X133500000Y-104500000D03*
X141000000Y-94500000D03*
D14*
X105750000Y-91400000D03*
D15*
X116000000Y-92000000D03*
X91000000Y-87000000D03*
X101000000Y-64500000D03*
X88500000Y-82000000D03*
X96000000Y-114500000D03*
X121000000Y-117000000D03*
D14*
X106394466Y-69895533D03*
D15*
X133500000Y-89500000D03*
D14*
X104400000Y-103150000D03*
D15*
X141000000Y-107000000D03*
X141000000Y-112000000D03*
X121000000Y-102000000D03*
X91000000Y-69500000D03*
X118500000Y-117000000D03*
D14*
X105420000Y-112020000D03*
D15*
X133500000Y-92000000D03*
X88500000Y-114500000D03*
X143500000Y-122000000D03*
X91000000Y-97000000D03*
X136000000Y-94500000D03*
D14*
X118525000Y-83950000D03*
X94225000Y-102575000D03*
D15*
X141000000Y-117000000D03*
X88500000Y-77000000D03*
X113500000Y-97000000D03*
X121000000Y-62000000D03*
D14*
X95700000Y-90900000D03*
D15*
X113500000Y-64500000D03*
X93500000Y-124500000D03*
D14*
X136125000Y-77525000D03*
D15*
X91000000Y-119500000D03*
X113500000Y-127000000D03*
D14*
X126150000Y-84800000D03*
D15*
X123500000Y-64500000D03*
X138500000Y-112000000D03*
D14*
X137975000Y-77125000D03*
D15*
X96000000Y-67000000D03*
X88500000Y-87000000D03*
X143500000Y-109500000D03*
X138500000Y-117000000D03*
X118500000Y-127000000D03*
D14*
X117329999Y-75200000D03*
X103850000Y-60750000D03*
D15*
X98500000Y-77000000D03*
D14*
X128900000Y-85500000D03*
D15*
X141000000Y-124500000D03*
X96000000Y-89500000D03*
X88500000Y-74500000D03*
D14*
X132550000Y-71750000D03*
D15*
X133500000Y-107000000D03*
X93500000Y-69500000D03*
X116000000Y-64500000D03*
X118500000Y-124500000D03*
X88500000Y-92000000D03*
X143500000Y-104500000D03*
X138500000Y-97000000D03*
X88500000Y-124500000D03*
D14*
X130350000Y-81750000D03*
D15*
X126000000Y-64500000D03*
X123500000Y-102000000D03*
X143500000Y-117000000D03*
D14*
X91550000Y-91850000D03*
X129870000Y-116100000D03*
D15*
X133500000Y-117000000D03*
X88500000Y-109500000D03*
X96000000Y-64500000D03*
D14*
X130150000Y-75000000D03*
D15*
X111000000Y-97000000D03*
D14*
X128180000Y-106050000D03*
X117200000Y-80550000D03*
D15*
X98500000Y-87000000D03*
X118500000Y-62000000D03*
X88500000Y-72000000D03*
D14*
X138000000Y-84000000D03*
D15*
X98500000Y-112000000D03*
X118500000Y-114500000D03*
X116000000Y-122000000D03*
X91000000Y-107000000D03*
X113500000Y-119500000D03*
X141000000Y-122000000D03*
X123500000Y-62000000D03*
X88500000Y-112000000D03*
X93500000Y-87000000D03*
D14*
X110204465Y-69924466D03*
X124930000Y-94020000D03*
D15*
X91000000Y-109500000D03*
X126000000Y-117000000D03*
D14*
X103630000Y-100410000D03*
X133700000Y-70850000D03*
D15*
X91000000Y-112000000D03*
X138500000Y-89500000D03*
X116000000Y-124500000D03*
D14*
X98950000Y-107280000D03*
D15*
X118500000Y-119500000D03*
X136000000Y-99500000D03*
X141000000Y-119500000D03*
X133500000Y-97000000D03*
X133500000Y-114500000D03*
X141000000Y-97000000D03*
X91000000Y-117000000D03*
X93500000Y-74500000D03*
X138500000Y-107000000D03*
D14*
X102850000Y-101750000D03*
D15*
X116000000Y-129500000D03*
X143500000Y-124500000D03*
D14*
X106200000Y-105500000D03*
D15*
X123500000Y-117000000D03*
D14*
X95850000Y-95450000D03*
X124710000Y-98640000D03*
X114025000Y-78175000D03*
D15*
X88500000Y-122000000D03*
D14*
X124500000Y-72950000D03*
X123960000Y-110500000D03*
D15*
X143500000Y-99500000D03*
D14*
X134950000Y-67950000D03*
D15*
X101000000Y-62000000D03*
D14*
X100760534Y-111755534D03*
X138475000Y-76450000D03*
X129150000Y-77650000D03*
D15*
X101000000Y-114500000D03*
X138500000Y-119500000D03*
X88500000Y-84500000D03*
X136000000Y-92000000D03*
X133500000Y-112000000D03*
X136000000Y-117000000D03*
D14*
X136725000Y-80057500D03*
D15*
X123500000Y-114500000D03*
X88500000Y-117000000D03*
X118500000Y-69500000D03*
X88500000Y-104500000D03*
X93500000Y-114500000D03*
D14*
X110000000Y-76600000D03*
D15*
X98500000Y-69500000D03*
X96000000Y-69500000D03*
X96000000Y-62000000D03*
X113500000Y-67000000D03*
X111000000Y-67000000D03*
X88500000Y-102000000D03*
D14*
X117870000Y-109980000D03*
D15*
X88500000Y-94500000D03*
D14*
X113400000Y-112600000D03*
X111100000Y-75700000D03*
X98915534Y-65364465D03*
X140725000Y-86775000D03*
X130250000Y-109550000D03*
X105630000Y-78780000D03*
D15*
X136000000Y-62000000D03*
X143500000Y-114500000D03*
X136000000Y-72000000D03*
D14*
X103200000Y-81900000D03*
D15*
X113500000Y-124500000D03*
D14*
X119150000Y-78800000D03*
X127610000Y-101840000D03*
D15*
X111000000Y-117000000D03*
X88500000Y-97000000D03*
X93500000Y-109500000D03*
D14*
X124100000Y-72200000D03*
D15*
X111000000Y-114500000D03*
X118500000Y-132000000D03*
X96000000Y-109500000D03*
X93500000Y-119500000D03*
X121000000Y-97000000D03*
D14*
X109630000Y-81130000D03*
D15*
X133500000Y-102000000D03*
X133500000Y-62000000D03*
X136000000Y-112000000D03*
D14*
X111950000Y-100300000D03*
X102950000Y-84600000D03*
D15*
X141000000Y-114500000D03*
D14*
X101564466Y-67365535D03*
X107175000Y-106200000D03*
X99500000Y-98610000D03*
D15*
X88500000Y-119500000D03*
D14*
X107685000Y-60745000D03*
D15*
X93500000Y-89500000D03*
X138500000Y-92000000D03*
X113500000Y-132000000D03*
D14*
X111950000Y-102200000D03*
D15*
X116000000Y-117000000D03*
X141000000Y-104500000D03*
X138500000Y-99500000D03*
X96000000Y-112000000D03*
X93500000Y-122000000D03*
X133500000Y-99500000D03*
D14*
X104800000Y-107300000D03*
X106385000Y-60745000D03*
D15*
X121000000Y-104500000D03*
X91000000Y-94500000D03*
X121000000Y-99500000D03*
D14*
X111950000Y-101250000D03*
X104820000Y-116290000D03*
X93700000Y-103250000D03*
D15*
X121000000Y-64500000D03*
X143500000Y-112000000D03*
X131000000Y-104500000D03*
X138500000Y-109500000D03*
D14*
X102974466Y-69894465D03*
D15*
X108500000Y-117000000D03*
X91000000Y-124500000D03*
D14*
X98630000Y-98210000D03*
D15*
X143500000Y-107000000D03*
X133500000Y-64500000D03*
D14*
X127350000Y-69950000D03*
X138475000Y-84650000D03*
D15*
X93500000Y-112000000D03*
X136000000Y-89500000D03*
D14*
X99500000Y-97780000D03*
D15*
X93500000Y-117000000D03*
X98500000Y-89500000D03*
X91000000Y-122000000D03*
X113500000Y-129500000D03*
X96000000Y-77000000D03*
X141000000Y-109500000D03*
X138500000Y-74500000D03*
D14*
X97390534Y-108000534D03*
D15*
X116000000Y-132000000D03*
X133500000Y-94500000D03*
X88500000Y-79500000D03*
X126000000Y-114500000D03*
X126000000Y-62000000D03*
X91000000Y-89500000D03*
D14*
X113500000Y-101250000D03*
D15*
X131000000Y-102000000D03*
X138500000Y-124500000D03*
D14*
X132300000Y-86725000D03*
D15*
X138500000Y-94500000D03*
X113500000Y-92000000D03*
X98500000Y-74500000D03*
X88500000Y-89500000D03*
X91000000Y-114500000D03*
D14*
X131650000Y-71750000D03*
X133950000Y-86725000D03*
D15*
X133500000Y-109500000D03*
X143500000Y-92000000D03*
X143500000Y-119500000D03*
D14*
X140850000Y-70950000D03*
X116850000Y-94250000D03*
D15*
X111000000Y-92000000D03*
X96000000Y-74500000D03*
X118500000Y-122000000D03*
X118500000Y-92000000D03*
X136000000Y-107000000D03*
D14*
X130500000Y-98600000D03*
D15*
X116000000Y-119500000D03*
X98500000Y-114500000D03*
X88500000Y-69500000D03*
D14*
X118600000Y-79550000D03*
X92445534Y-77474466D03*
D15*
X136000000Y-74500000D03*
D14*
X130030000Y-103000000D03*
D15*
X98500000Y-62000000D03*
X121000000Y-114500000D03*
X118500000Y-64500000D03*
X116000000Y-127000000D03*
X143500000Y-97000000D03*
D14*
X113500000Y-100300000D03*
D15*
X138500000Y-72000000D03*
X96000000Y-117000000D03*
D14*
X107150000Y-112150000D03*
D15*
X131000000Y-107000000D03*
X138500000Y-114500000D03*
X96000000Y-87000000D03*
X136000000Y-104500000D03*
D14*
%TO.N,+5V*%
X128150000Y-78100000D03*
X116700000Y-95300000D03*
X129450000Y-82150000D03*
X95650000Y-91850000D03*
%TO.N,+3.3V*%
X112700000Y-62400000D03*
X130150000Y-73950000D03*
X124350000Y-77850000D03*
X111700000Y-86903315D03*
X121250000Y-76700000D03*
X125700000Y-91600000D03*
X124550000Y-88900000D03*
X90650000Y-76500000D03*
X101050000Y-91650000D03*
X135550000Y-68800000D03*
X113250000Y-74250000D03*
X134350000Y-68800000D03*
X106850000Y-86350000D03*
X120450000Y-86900000D03*
X134050000Y-69800000D03*
%TO.N,/MCU/NRST*%
X111950000Y-76600000D03*
X113950000Y-79400000D03*
%TO.N,SPI1_NSS*%
X106000000Y-90500000D03*
X107100000Y-88100000D03*
%TO.N,SPI2_NSS*%
X126250000Y-85750000D03*
X128850000Y-86500000D03*
%TO.N,/MCU/TIM4_CH1*%
X104000000Y-85450000D03*
X117850000Y-78750000D03*
%TO.N,/MCU/TIM4_CH2*%
X116500000Y-79600000D03*
X104000000Y-83800000D03*
%TO.N,/MCU/TIM4_CH3*%
X104000000Y-82750000D03*
X115400000Y-79100000D03*
%TO.N,DAC_NCLR*%
X129550000Y-99050000D03*
X126750000Y-90750000D03*
%TO.N,DAC_NLDAC*%
X129600000Y-98050000D03*
X126750000Y-89700000D03*
%TD*%
D16*
%TO.N,+3.3VA*%
X98050000Y-106150000D02*
X96350000Y-106150000D01*
X95750000Y-97500000D02*
X95750000Y-96850000D01*
X105200000Y-105550000D02*
X105200000Y-103950000D01*
X105200000Y-105550000D02*
X105200000Y-105850000D01*
X109000000Y-91950000D02*
X109000000Y-87553315D01*
X109000000Y-87553315D02*
X108850000Y-87403315D01*
X95900000Y-105700000D02*
X95750000Y-105550000D01*
X95750000Y-96850000D02*
X96350000Y-96250000D01*
X105200000Y-105850000D02*
X104900000Y-106150000D01*
X104900000Y-106150000D02*
X98050000Y-106150000D01*
X96350000Y-106150000D02*
X95900000Y-105700000D01*
X95750000Y-105550000D02*
X95750000Y-97500000D01*
%TO.N,+5V*%
X128550000Y-83050000D02*
X126700000Y-83050000D01*
X126700000Y-83050000D02*
X125950000Y-83050000D01*
X128150000Y-80850000D02*
X129350000Y-82050000D01*
X122350000Y-86650000D02*
X122350000Y-94100000D01*
X122350000Y-94100000D02*
X121150000Y-95300000D01*
X129450000Y-82150000D02*
X128550000Y-83050000D01*
X128150000Y-78100000D02*
X128150000Y-80850000D01*
X99250000Y-92200000D02*
X98900000Y-91850000D01*
X125950000Y-83050000D02*
X123050000Y-85950000D01*
X123050000Y-85950000D02*
X122350000Y-86650000D01*
X115900000Y-95300000D02*
X102350000Y-95300000D01*
X98900000Y-91850000D02*
X95650000Y-91850000D01*
X121150000Y-95300000D02*
X116700000Y-95300000D01*
X102350000Y-95300000D02*
X99250000Y-92200000D01*
X116700000Y-95300000D02*
X115900000Y-95300000D01*
%TO.N,+3.3V*%
X124550000Y-91050000D02*
X125000000Y-91500000D01*
X124100000Y-77050000D02*
X124350000Y-77300000D01*
X121250000Y-76700000D02*
X123300000Y-76700000D01*
X91450000Y-72650000D02*
X90750000Y-73350000D01*
X105050000Y-86350000D02*
X106850000Y-86350000D01*
X133000000Y-67800000D02*
X120700000Y-67800000D01*
X101050000Y-72650000D02*
X91450000Y-72650000D01*
D17*
X134500000Y-72850000D02*
X134500000Y-70250000D01*
D16*
X106850000Y-86350000D02*
X110400000Y-86350000D01*
X116650000Y-63050000D02*
X116000000Y-62400000D01*
X117400000Y-67800000D02*
X115800000Y-67800000D01*
X125100000Y-91600000D02*
X125700000Y-91600000D01*
X124550000Y-88900000D02*
X124550000Y-91050000D01*
X101050000Y-72650000D02*
X101050000Y-87100000D01*
X134350000Y-68800000D02*
X135550000Y-68800000D01*
X123750000Y-76700000D02*
X124100000Y-77050000D01*
D17*
X134500000Y-70250000D02*
X134050000Y-69800000D01*
D16*
X120700000Y-67800000D02*
X117400000Y-67800000D01*
D17*
X134450000Y-72900000D02*
X134500000Y-72850000D01*
D16*
X123300000Y-76700000D02*
X123750000Y-76700000D01*
X125000000Y-91500000D02*
X125100000Y-91600000D01*
X113950000Y-69500000D02*
X113250000Y-70200000D01*
X113250000Y-70200000D02*
X113250000Y-72650000D01*
X101050000Y-87100000D02*
X101050000Y-91650000D01*
X110953315Y-86903315D02*
X111700000Y-86903315D01*
X117400000Y-67800000D02*
X117400000Y-63800000D01*
X115650000Y-67800000D02*
X113950000Y-69500000D01*
X134000000Y-68800000D02*
X133750000Y-68550000D01*
D17*
X133400000Y-73950000D02*
X134450000Y-72900000D01*
D16*
X120700000Y-76150000D02*
X121050000Y-76500000D01*
X120450000Y-86900000D02*
X120446685Y-86903315D01*
X90650000Y-73450000D02*
X90650000Y-76500000D01*
X113250000Y-72650000D02*
X113250000Y-74250000D01*
X121050000Y-76500000D02*
X121250000Y-76700000D01*
X115800000Y-67800000D02*
X115650000Y-67800000D01*
X133750000Y-68550000D02*
X133000000Y-67800000D01*
X104300000Y-87100000D02*
X105050000Y-86350000D01*
X101050000Y-87100000D02*
X104300000Y-87100000D01*
X120700000Y-67800000D02*
X120700000Y-76150000D01*
X90750000Y-73350000D02*
X90650000Y-73450000D01*
X110400000Y-86350000D02*
X110953315Y-86903315D01*
X124350000Y-77300000D02*
X124350000Y-77850000D01*
X117400000Y-63800000D02*
X116650000Y-63050000D01*
X111700000Y-86903315D02*
X120446685Y-86903315D01*
X134350000Y-68800000D02*
X134000000Y-68800000D01*
X113250000Y-72650000D02*
X101050000Y-72650000D01*
X116000000Y-62400000D02*
X112700000Y-62400000D01*
D17*
X130150000Y-73950000D02*
X133400000Y-73950000D01*
D18*
%TO.N,/MCU/NRST*%
X111950000Y-78700000D02*
X111950000Y-76600000D01*
X112650000Y-79400000D02*
X112500000Y-79250000D01*
X112500000Y-79250000D02*
X111950000Y-78700000D01*
X113950000Y-79400000D02*
X112650000Y-79400000D01*
%TO.N,SPI1_NSS*%
X106000000Y-90500000D02*
X106700000Y-90500000D01*
X106700000Y-90500000D02*
X107050000Y-90150000D01*
X107050000Y-90150000D02*
X107100000Y-90100000D01*
X107100000Y-90100000D02*
X107100000Y-88100000D01*
%TO.N,SPI2_NSS*%
X126950000Y-86150000D02*
X126650000Y-86150000D01*
X128850000Y-86500000D02*
X128500000Y-86150000D01*
X126650000Y-86150000D02*
X126250000Y-85750000D01*
X128500000Y-86150000D02*
X126950000Y-86150000D01*
%TO.N,/MCU/TIM4_CH1*%
X117896685Y-78796685D02*
X117850000Y-78750000D01*
X117896685Y-82903315D02*
X117896685Y-78796685D01*
X115350000Y-85450000D02*
X117896685Y-82903315D01*
X104000000Y-85450000D02*
X115350000Y-85450000D01*
%TO.N,/MCU/TIM4_CH2*%
X116500000Y-82150000D02*
X116500000Y-79600000D01*
X116300000Y-82350000D02*
X116500000Y-82150000D01*
X104000000Y-83800000D02*
X114850000Y-83800000D01*
X114850000Y-83800000D02*
X116300000Y-82350000D01*
%TO.N,/MCU/TIM4_CH3*%
X115400000Y-81350000D02*
X115400000Y-79150000D01*
X115400000Y-79150000D02*
X115400000Y-79100000D01*
X114000000Y-82750000D02*
X115400000Y-81350000D01*
X104000000Y-82750000D02*
X114000000Y-82750000D01*
%TO.N,DAC_NCLR*%
X126750000Y-90750000D02*
X127900000Y-90750000D01*
X128250000Y-91100000D02*
X128250000Y-98550000D01*
X128250000Y-98550000D02*
X128750000Y-99050000D01*
X128750000Y-99050000D02*
X129550000Y-99050000D01*
X127900000Y-90750000D02*
X128250000Y-91100000D01*
%TO.N,DAC_NLDAC*%
X126750000Y-89700000D02*
X129000000Y-89700000D01*
X129000000Y-89700000D02*
X129800000Y-90500000D01*
X129800000Y-97850000D02*
X129600000Y-98050000D01*
X129800000Y-90500000D02*
X129800000Y-97850000D01*
%TD*%
M02*
